<?xml version="1.0" encoding="UTF-8" standalone="no"?>
<!-- Created with Inkscape (http://www.inkscape.org/) -->

<svg
   xmlns:dc="http://purl.org/dc/elements/1.1/"
   xmlns:cc="http://creativecommons.org/ns#"
   xmlns:rdf="http://www.w3.org/1999/02/22-rdf-syntax-ns#"
   xmlns:svg="http://www.w3.org/2000/svg"
   xmlns="http://www.w3.org/2000/svg"
   xmlns:sodipodi="http://sodipodi.sourceforge.net/DTD/sodipodi-0.dtd"
   xmlns:inkscape="http://www.inkscape.org/namespaces/inkscape"
   width="101.5"
   height="101.5"
   id="svg3369"
   version="1.1"
   inkscape:version="0.47 r22583"
   sodipodi:docname="pbp-scene-3-1.svg">
  <defs
     id="defs3371" />
  <sodipodi:namedview
     id="base"
     pagecolor="#ffffff"
     bordercolor="#666666"
     borderopacity="1.0"
     inkscape:pageopacity="0.0"
     inkscape:pageshadow="2"
     inkscape:zoom="7.919596"
     inkscape:cx="45.759809"
     inkscape:cy="46.042445"
     inkscape:document-units="px"
     inkscape:current-layer="g8059"
     showgrid="false"
     inkscape:window-width="715"
     inkscape:window-height="592"
     inkscape:window-x="0"
     inkscape:window-y="24"
     inkscape:window-maximized="0" />
  <metadata
     id="metadata3374">
    <rdf:RDF>
      <cc:Work
         rdf:about="">
        <dc:format>image/svg+xml</dc:format>
        <dc:type
           rdf:resource="http://purl.org/dc/dcmitype/StillImage" />
        <dc:title />
      </cc:Work>
    </rdf:RDF>
  </metadata>
  <g
     inkscape:label="Layer 1"
     inkscape:groupmode="layer"
     id="layer1"
     transform="translate(-297.78211,-633.04076)">
    <g
       id="layer1-5"
       inkscape:label="Layer 1"
       transform="translate(282.44186,627.2204)">
      <g
         id="g8059">
        <rect
           y="6.5703225"
           x="16.09025"
           height="100"
           width="100"
           id="rect2909"
           style="color:#000000;fill:none;stroke:#000000;stroke-width:1.5;stroke-linecap:square;stroke-linejoin:round;stroke-miterlimit:4;stroke-opacity:1;stroke-dasharray:none;stroke-dashoffset:0;marker:none;visibility:visible;display:inline;overflow:visible;enable-background:accumulate" />
        <path
           style="color:#000000;fill:none;stroke:#000000;stroke-width:1;stroke-linecap:butt;stroke-linejoin:miter;stroke-miterlimit:4;stroke-opacity:1;stroke-dasharray:none;stroke-dashoffset:0;marker:none;visibility:visible;display:inline;overflow:visible;enable-background:accumulate"
           d="m 17.2448,93.4514 c -0.3544,0 -1.417602,0 -1.0632,0 32.69851,0 70.1204,0.5316 99.94027,0.5316"
           id="path2880" />
        <path
           style="color:#000000;fill:#e3f4d7;fill-opacity:1;fill-rule:nonzero;stroke:#5aa02c;stroke-width:1;stroke-linecap:round;stroke-linejoin:round;stroke-miterlimit:4;stroke-opacity:1;stroke-dasharray:none;stroke-dashoffset:0;marker:none;visibility:visible;display:inline;overflow:visible;enable-background:accumulate"
           d="m 58.665421,65.54255 c -2.512369,-0.870873 -18.059011,-1.34429 -18.8717,-0.5316 -1.082251,1.08225 -0.473242,25.30922 1.063194,26.84566 1.958277,1.95828 36.900617,1.90598 39.072394,-0.2658 2.581795,-2.5818 1.594792,-10.93853 1.594792,-14.61892 0,-4.19789 -0.554755,-14.14065 -3.986979,-13.28993 -3.198697,0.79284 -11.25222,-0.0851 -11.42934,1.32899 -0.646985,5.16556 9.330399,3.24448 10.100347,4.78438 1.082427,2.16485 1.326077,16.48242 -0.265799,18.0743 -1.255412,1.25541 -2.156841,1.21132 -3.986979,2.12639 -4.900966,-0.67777 -8.37199,-1.7228 -13.28993,-1.32899 -3.674297,0 -11.912324,2.05149 -13.821527,-0.5316 -2.688209,-3.63706 -1.155647,-14.21145 2.126389,-17.80851 2.036103,-2.23153 11.666102,0.56064 13.28993,-1.06319 3.28589,-2.96321 0.352327,-2.963566 -1.594792,-3.72118 z"
           id="path2882"
           sodipodi:nodetypes="cssssssssccsscc" />
        <path
           sodipodi:type="arc"
           style="color:#000000;fill:#e3f4d7;fill-opacity:1;fill-rule:nonzero;stroke:#5aa02c;stroke-width:1;stroke-linecap:round;stroke-linejoin:round;stroke-miterlimit:4;stroke-opacity:1;stroke-dasharray:none;stroke-dashoffset:0;marker:none;visibility:visible;display:inline;overflow:visible;enable-background:accumulate"
           id="path2892-4"
           sodipodi:cx="41.198784"
           sodipodi:cy="208.66994"
           sodipodi:rx="4.5185761"
           sodipodi:ry="4.5185761"
           d="m 45.71736,208.66994 c 0,2.49554 -2.023035,4.51857 -4.518576,4.51857 -2.495541,0 -4.518576,-2.02303 -4.518576,-4.51857 0,-2.49554 2.023035,-4.51858 4.518576,-4.51858 2.495541,0 4.518576,2.02304 4.518576,4.51858 z"
           transform="translate(15.34025,-125.05309)" />
      </g>
    </g>
  </g>
</svg>
