<?xml version="1.0" encoding="UTF-8" standalone="no"?>
<!-- Created with Inkscape (http://www.inkscape.org/) -->

<svg
   xmlns:dc="http://purl.org/dc/elements/1.1/"
   xmlns:cc="http://creativecommons.org/ns#"
   xmlns:rdf="http://www.w3.org/1999/02/22-rdf-syntax-ns#"
   xmlns:svg="http://www.w3.org/2000/svg"
   xmlns="http://www.w3.org/2000/svg"
   xmlns:sodipodi="http://sodipodi.sourceforge.net/DTD/sodipodi-0.dtd"
   xmlns:inkscape="http://www.inkscape.org/namespaces/inkscape"
   width="1100"
   height="530"
   id="svg2885"
   version="1.1"
   inkscape:version="0.47 r22583"
   sodipodi:docname="pbp03.svg">
  <defs
     id="defs2887">
    <inkscape:perspective
       sodipodi:type="inkscape:persp3d"
       inkscape:vp_x="0 : 526.18109 : 1"
       inkscape:vp_y="0 : 1000 : 0"
       inkscape:vp_z="744.09448 : 526.18109 : 1"
       inkscape:persp3d-origin="372.04724 : 350.78739 : 1"
       id="perspective2893" />
    <inkscape:perspective
       id="perspective2903"
       inkscape:persp3d-origin="0.5 : 0.33333333 : 1"
       inkscape:vp_z="1 : 0.5 : 1"
       inkscape:vp_y="0 : 1000 : 0"
       inkscape:vp_x="0 : 0.5 : 1"
       sodipodi:type="inkscape:persp3d" />
    <inkscape:perspective
       id="perspective3722"
       inkscape:persp3d-origin="0.5 : 0.33333333 : 1"
       inkscape:vp_z="1 : 0.5 : 1"
       inkscape:vp_y="0 : 1000 : 0"
       inkscape:vp_x="0 : 0.5 : 1"
       sodipodi:type="inkscape:persp3d" />
    <inkscape:perspective
       id="perspective3773"
       inkscape:persp3d-origin="0.5 : 0.33333333 : 1"
       inkscape:vp_z="1 : 0.5 : 1"
       inkscape:vp_y="0 : 1000 : 0"
       inkscape:vp_x="0 : 0.5 : 1"
       sodipodi:type="inkscape:persp3d" />
    <inkscape:perspective
       id="perspective3773-1"
       inkscape:persp3d-origin="0.5 : 0.33333333 : 1"
       inkscape:vp_z="1 : 0.5 : 1"
       inkscape:vp_y="0 : 1000 : 0"
       inkscape:vp_x="0 : 0.5 : 1"
       sodipodi:type="inkscape:persp3d" />
    <inkscape:perspective
       id="perspective3858"
       inkscape:persp3d-origin="0.5 : 0.33333333 : 1"
       inkscape:vp_z="1 : 0.5 : 1"
       inkscape:vp_y="0 : 1000 : 0"
       inkscape:vp_x="0 : 0.5 : 1"
       sodipodi:type="inkscape:persp3d" />
    <inkscape:perspective
       id="perspective3858-4"
       inkscape:persp3d-origin="0.5 : 0.33333333 : 1"
       inkscape:vp_z="1 : 0.5 : 1"
       inkscape:vp_y="0 : 1000 : 0"
       inkscape:vp_x="0 : 0.5 : 1"
       sodipodi:type="inkscape:persp3d" />
    <inkscape:perspective
       id="perspective4155"
       inkscape:persp3d-origin="0.5 : 0.33333333 : 1"
       inkscape:vp_z="1 : 0.5 : 1"
       inkscape:vp_y="0 : 1000 : 0"
       inkscape:vp_x="0 : 0.5 : 1"
       sodipodi:type="inkscape:persp3d" />
    <inkscape:perspective
       id="perspective2847"
       inkscape:persp3d-origin="0.5 : 0.33333333 : 1"
       inkscape:vp_z="1 : 0.5 : 1"
       inkscape:vp_y="0 : 1000 : 0"
       inkscape:vp_x="0 : 0.5 : 1"
       sodipodi:type="inkscape:persp3d" />
  </defs>
  <sodipodi:namedview
     id="base"
     pagecolor="#ffffff"
     bordercolor="#666666"
     borderopacity="1.0"
     inkscape:pageopacity="0.0"
     inkscape:pageshadow="2"
     inkscape:zoom="2.3852883"
     inkscape:cx="165.92206"
     inkscape:cy="144.95527"
     inkscape:document-units="px"
     inkscape:current-layer="layer1"
     showgrid="true"
     inkscape:snap-global="false"
     inkscape:window-width="1920"
     inkscape:window-height="1125"
     inkscape:window-x="0"
     inkscape:window-y="24"
     inkscape:window-maximized="1">
    <inkscape:grid
       type="xygrid"
       id="grid3683"
       empspacing="10"
       visible="true"
       enabled="false"
       snapvisiblegridlinesonly="true"
       spacingx="10px"
       spacingy="10px" />
  </sodipodi:namedview>
  <metadata
     id="metadata2890">
    <rdf:RDF>
      <cc:Work
         rdf:about="">
        <dc:format>image/svg+xml</dc:format>
        <dc:type
           rdf:resource="http://purl.org/dc/dcmitype/StillImage" />
        <dc:title />
      </cc:Work>
    </rdf:RDF>
  </metadata>
  <g
     inkscape:label="Layer 1"
     inkscape:groupmode="layer"
     id="layer1"
     transform="translate(-99.250007,-423.86216)">
    <path
       style="color:#000000;fill:none;stroke:#000000;stroke-width:7.82457161;stroke-linecap:square;stroke-linejoin:round;stroke-miterlimit:4;stroke-opacity:1;stroke-dasharray:none;stroke-dashoffset:0;marker:none;visibility:visible;display:inline;overflow:visible;enable-background:accumulate"
       d="m 648.92614,428.3118 0,521.63809"
       id="path3701" />
    <g
       id="g3887"
       s2p-scene-id="0"
       transform="matrix(2.6081905,0,0,2.6081905,-159.6129,-1533.9921)">
      <rect
         style="color:#000000;fill:none;stroke:#000000;stroke-width:1.5;stroke-linecap:square;stroke-linejoin:round;stroke-miterlimit:4;stroke-opacity:1;stroke-dasharray:none;stroke-dashoffset:0;marker:none;visibility:visible;display:inline;overflow:visible;enable-background:accumulate"
         id="rect3685"
         width="100"
         height="100"
         x="100"
         y="752.36218" />
      <path
         style="color:#000000;fill:none;stroke:#000000;stroke-width:1;stroke-linecap:butt;stroke-linejoin:miter;stroke-miterlimit:4;stroke-opacity:1;stroke-dasharray:none;stroke-dashoffset:0;marker:none;visibility:visible;display:inline;overflow:visible;enable-background:accumulate"
         d="m 100.73223,839.43441 c 3.98092,2.05706 8.48557,-1.49804 12.45979,0.59127 11.04393,0.36375 22.1403,1.47869 33.1504,-0.0219 11.06042,-1.19426 22.21872,-2.81359 33.34735,-1.54484 5.74418,-0.28742 11.43332,0.66696 17.15307,0.87987 1.06881,-0.002 2.13847,-0.0605 3.19846,-0.20044"
         id="path2926" />
      <path
         style="color:#000000;fill:#e3f4d7;fill-opacity:1;fill-rule:nonzero;stroke:#5aa02c;stroke-width:1;stroke-linecap:round;stroke-linejoin:round;stroke-miterlimit:4;stroke-opacity:1;stroke-dasharray:none;stroke-dashoffset:0;marker:none;visibility:visible;display:inline;overflow:visible;enable-background:accumulate"
         d="M 29.05161,98.537384 28.162275,119.28853 56.32455,117.21342 56.620995,98.833829 29.05161,98.537384 z"
         id="path2939"
         transform="translate(99.25,720.73877)" />
      <path
         style="color:#000000;fill:#e3f4d7;fill-opacity:1;fill-rule:nonzero;stroke:#5aa02c;stroke-width:1;stroke-linecap:round;stroke-linejoin:round;stroke-miterlimit:4;stroke-opacity:1;stroke-dasharray:none;stroke-dashoffset:0;marker:none;visibility:visible;display:inline;overflow:visible;enable-background:accumulate"
         d="m 136.89852,801.48945 -1.18578,16.60092 13.93291,0.59289 1.18578,-17.7867 -13.93291,0.59289 z"
         id="path2941" />
    </g>
    <g
       id="g3893"
       s2p-scene-id="1"
       transform="matrix(2.6081905,0,0,2.6081905,-159.6129,-1533.9921)">
      <rect
         y="852.36218"
         x="100"
         height="100"
         width="100"
         id="rect2909"
         style="color:#000000;fill:none;stroke:#000000;stroke-width:1.5;stroke-linecap:square;stroke-linejoin:round;stroke-miterlimit:4;stroke-opacity:1;stroke-dasharray:none;stroke-dashoffset:0;marker:none;visibility:visible;display:inline;overflow:visible;enable-background:accumulate" />
      <path
         style="color:#000000;fill:none;stroke:#000000;stroke-width:1;stroke-linecap:butt;stroke-linejoin:miter;stroke-miterlimit:4;stroke-opacity:1;stroke-dasharray:none;stroke-dashoffset:0;marker:none;visibility:visible;display:inline;overflow:visible;enable-background:accumulate"
         d="m 101.02867,936.96482 c 5.25019,-0.69071 10.62317,-0.48915 15.86401,0.0481 8.05019,1.65515 16.32388,0.92257 24.42004,2.1968 5.73681,0.61249 11.46155,1.32009 17.15846,2.19859 4.79894,0.78523 8.23081,-3.04192 11.94436,-5.31986 4.91585,-3.53347 9.97938,-6.84347 15.00507,-10.21625 4.51481,-3.69512 8.99325,-7.44067 14.32424,-9.95496"
         id="path2943" />
      <path
         style="color:#000000;fill:#e3f4d7;fill-opacity:1;fill-rule:nonzero;stroke:#5aa02c;stroke-width:1;stroke-linecap:round;stroke-linejoin:round;stroke-miterlimit:4;stroke-opacity:1;stroke-dasharray:none;stroke-dashoffset:0;marker:none;visibility:visible;display:inline;overflow:visible;enable-background:accumulate"
         d="m 42.391635,217.41183 15.711585,-21.0476 16.60092,14.52581 -32.312505,6.52179 z"
         id="path2953"
         transform="translate(99.25,720.73877)" />
    </g>
    <g
       id="g3899"
       s2p-scene-id="2"
       transform="matrix(2.6081905,0,0,2.6081905,-159.6129,-1533.9921)">
      <rect
         y="752.36218"
         x="200"
         height="100"
         width="100"
         id="rect3687"
         style="color:#000000;fill:none;stroke:#000000;stroke-width:1.5;stroke-linecap:square;stroke-linejoin:round;stroke-miterlimit:4;stroke-opacity:1;stroke-dasharray:none;stroke-dashoffset:0;marker:none;visibility:visible;display:inline;overflow:visible;enable-background:accumulate" />
      <path
         style="color:#000000;fill:none;stroke:#000000;stroke-width:1;stroke-linecap:butt;stroke-linejoin:miter;stroke-miterlimit:4;stroke-opacity:1;stroke-dasharray:none;stroke-dashoffset:0;marker:none;visibility:visible;display:inline;overflow:visible;enable-background:accumulate"
         d="m 200.31668,824.54023 c 3.24435,3.6779 11.10847,4.23132 14.4469,7.77513 7.3927,5.18358 16.77572,5.02415 25.30426,6.69824 5.25994,0.55206 10.58742,0.56634 15.77075,1.69256 13.04761,1.17253 26.4579,-0.2653 38.75963,-4.85657 1.76274,-0.71265 3.48307,-1.55502 5.0486,-2.64052"
         id="path2955"
         sodipodi:nodetypes="cccccc" />
      <path
         sodipodi:type="arc"
         style="color:#000000;fill:#e3f4d7;fill-opacity:1;fill-rule:nonzero;stroke:#5aa02c;stroke-width:0.93333334;stroke-linecap:round;stroke-linejoin:round;stroke-miterlimit:4;stroke-opacity:1;stroke-dasharray:none;stroke-dashoffset:0;marker:none;visibility:visible;display:inline;overflow:visible;enable-background:accumulate"
         id="path2966"
         sodipodi:cx="126.28557"
         sodipodi:cy="104.46629"
         sodipodi:rx="10.375575"
         sodipodi:ry="10.375575"
         d="m 136.66114,104.46629 c 0,5.73028 -4.6453,10.37558 -10.37557,10.37558 -5.73027,0 -10.37558,-4.6453 -10.37558,-10.37558 0,-5.730269 4.64531,-10.375572 10.37558,-10.375572 5.73027,0 10.37557,4.645303 10.37557,10.375572 z"
         transform="matrix(1.0714286,0,0,1.0714286,90.970715,712.53578)" />
    </g>
    <g
       id="g3905"
       s2p-scene-id="3"
       transform="matrix(2.6081905,0,0,2.6081905,-159.6129,-1533.9921)">
      <rect
         style="color:#000000;fill:none;stroke:#000000;stroke-width:1.5;stroke-linecap:square;stroke-linejoin:round;stroke-miterlimit:4;stroke-opacity:1;stroke-dasharray:none;stroke-dashoffset:0;marker:none;visibility:visible;display:inline;overflow:visible;enable-background:accumulate"
         id="rect3689"
         width="100"
         height="100"
         x="200"
         y="852.36218" />
      <path
         style="color:#000000;fill:none;stroke:#000000;stroke-width:1;stroke-linecap:butt;stroke-linejoin:miter;stroke-miterlimit:4;stroke-opacity:1;stroke-dasharray:none;stroke-dashoffset:0;marker:none;visibility:visible;display:inline;overflow:visible;enable-background:accumulate"
         d="m 199.9483,910.28477 c -2.22556,-0.58415 6.83866,-0.17148 7.86451,-0.27788 6.95335,-0.003 13.93032,-0.2235 20.85712,0.39267 4.03604,0.42556 9.44823,-2.73968 12.56138,0.14008 -0.29222,4.8104 -1.2682,9.7739 0.18382,14.52383 0.99832,5.65912 2.40571,11.30498 2.36016,17.08783 2.69208,1.37573 6.14016,0.37414 9.129,0.35142 3.65695,-0.11696 7.36628,1.11884 10.97456,0.0755 6.78157,0.3963 13.51306,-0.56147 20.18915,-1.6087 5.31159,-0.89464 10.66977,1.73917 15.87526,0.14557"
         id="path2970"
         sodipodi:nodetypes="cccccccccc" />
      <path
         style="color:#000000;fill:#e3f4d7;fill-opacity:1;fill-rule:nonzero;stroke:#5aa02c;stroke-width:1;stroke-linecap:round;stroke-linejoin:round;stroke-miterlimit:4;stroke-opacity:1;stroke-dasharray:none;stroke-dashoffset:0;marker:none;visibility:visible;display:inline;overflow:visible;enable-background:accumulate"
         d="m 129.25002,176.50242 31.42317,-0.29645 -0.29645,11.56136 -31.42317,-0.29645 0.29645,-10.96846 z"
         id="path2976"
         transform="translate(99.25,720.73877)" />
      <path
         style="color:#000000;fill:#e3f4d7;fill-opacity:1;fill-rule:nonzero;stroke:#5aa02c;stroke-width:1;stroke-linecap:round;stroke-linejoin:round;stroke-miterlimit:4;stroke-opacity:1;stroke-dasharray:none;stroke-dashoffset:0;marker:none;visibility:visible;display:inline;overflow:visible;enable-background:accumulate"
         d="m 149.40828,220.37628 8.30046,-21.93693 12.74713,22.23337 -21.04759,-0.29644 z"
         id="path2978"
         transform="translate(99.25,720.73877)" />
    </g>
    <g
       id="g3912"
       s2p-scene-id="4"
       transform="matrix(2.6081905,0,0,2.6081905,-159.6129,-1533.9921)">
      <rect
         style="color:#000000;fill:none;stroke:#000000;stroke-width:1.5;stroke-linecap:square;stroke-linejoin:round;stroke-miterlimit:4;stroke-opacity:1;stroke-dasharray:none;stroke-dashoffset:0;marker:none;visibility:visible;display:inline;overflow:visible;enable-background:accumulate"
         id="rect3691"
         width="100"
         height="100"
         x="320"
         y="752.36218" />
      <path
         style="color:#000000;fill:#e3f4d7;fill-opacity:1;fill-rule:nonzero;stroke:#5aa02c;stroke-width:1;stroke-linecap:round;stroke-linejoin:round;stroke-miterlimit:4;stroke-opacity:1;stroke-dasharray:none;stroke-dashoffset:0;marker:none;visibility:visible;display:inline;overflow:visible;enable-background:accumulate"
         d="m 243.97423,111.87741 9.78269,0.59289 0.29644,7.41112 -10.67202,-0.59289 0.59289,-7.41112 z"
         id="path2987"
         transform="translate(99.25,720.73877)" />
      <path
         style="color:#000000;fill:none;stroke:#000000;stroke-width:1;stroke-linecap:butt;stroke-linejoin:miter;stroke-miterlimit:4;stroke-opacity:1;stroke-dasharray:none;stroke-dashoffset:0;marker:none;visibility:visible;display:inline;overflow:visible;enable-background:accumulate"
         d="m 320.39797,841.50953 c 3.4292,-0.19854 6.89183,1.0107 10.28803,-0.10344 5.22177,-0.71049 10.52146,-0.56945 15.70899,0.30666 5.78481,0.52267 11.55176,-0.88754 17.31691,-0.20544 5.92362,-0.0369 11.87361,-1.28763 17.76886,-0.12714 4.72889,0.5839 9.53403,-0.10582 14.19861,0.98274 6.48894,1.02912 13.02792,-0.2583 19.55061,0.11525 1.49384,0.0349 2.98709,0.10335 4.47706,0.2173"
         id="path2980" />
    </g>
    <g
       id="g3918"
       s2p-scene-id="5"
       transform="matrix(2.6081905,0,0,2.6081905,-159.6129,-1533.9921)">
      <rect
         y="852.36218"
         x="320"
         height="100"
         width="100"
         id="rect3695"
         style="color:#000000;fill:none;stroke:#000000;stroke-width:1.5;stroke-linecap:square;stroke-linejoin:round;stroke-miterlimit:4;stroke-opacity:1;stroke-dasharray:none;stroke-dashoffset:0;marker:none;visibility:visible;display:inline;overflow:visible;enable-background:accumulate" />
      <path
         style="color:#000000;fill:none;stroke:#000000;stroke-width:1;stroke-linecap:butt;stroke-linejoin:miter;stroke-miterlimit:4;stroke-opacity:1;stroke-dasharray:none;stroke-dashoffset:0;marker:none;visibility:visible;display:inline;overflow:visible;enable-background:accumulate"
         d="m 320.02959,926.76289 c 5.82631,-0.56337 13.10092,-0.6329 18.7637,1.20248 4.56053,0.64533 9.80697,-1.69534 13.75528,1.6207 3.37196,2.41069 6.45759,5.23432 10.04669,7.32461 2.23322,2.66951 5.47007,8.80795 9.23011,4.29192 2.58675,-3.4174 6.2446,-5.37712 9.47861,-7.98799 3.06554,-2.46205 7.01696,-3.94783 10.96849,-3.38949 5.87597,-0.42321 11.74639,0.28295 17.59907,0.57368 3.07178,-0.10756 7.26375,-1.23013 9.63202,-0.83862 l -0.20179,-0.003 -0.18762,-0.003"
         id="path2989"
         sodipodi:nodetypes="ccccccccccc" />
      <path
         style="color:#000000;fill:#e3f4d7;fill-opacity:1;fill-rule:nonzero;stroke:#5aa02c;stroke-width:1;stroke-linecap:round;stroke-linejoin:round;stroke-miterlimit:4;stroke-opacity:1;stroke-dasharray:none;stroke-dashoffset:0;marker:none;visibility:visible;display:inline;overflow:visible;enable-background:accumulate"
         d="m 246.34579,174.4273 8.89335,-0.59289 -3.26089,8.59691 -5.63246,-8.00402 z"
         id="path3001"
         transform="translate(99.25,720.73877)" />
    </g>
    <g
       id="g3925"
       s2p-scene-id="6"
       transform="matrix(2.6081905,0,0,2.6081905,-159.6129,-1533.9921)">
      <rect
         y="752.36218"
         x="420"
         height="100"
         width="100"
         id="rect3693"
         style="color:#000000;fill:none;stroke:#000000;stroke-width:1.5;stroke-linecap:square;stroke-linejoin:round;stroke-miterlimit:4;stroke-opacity:1;stroke-dasharray:none;stroke-dashoffset:0;marker:none;visibility:visible;display:inline;overflow:visible;enable-background:accumulate" />
      <path
         style="color:#000000;fill:none;stroke:#000000;stroke-width:1;stroke-linecap:butt;stroke-linejoin:miter;stroke-miterlimit:4;stroke-opacity:1;stroke-dasharray:none;stroke-dashoffset:0;marker:none;visibility:visible;display:inline;overflow:visible;enable-background:accumulate"
         d="m 420.10521,837.48209 c 8.79613,-3.46864 20.4085,-3.59037 28.81407,-8.21246 7.97917,-3.61469 16.53294,-5.65401 24.68599,-8.81254 9.23662,-2.71478 18.28417,-6.083 27.02791,-10.10971 4.15427,-1.33378 8.65966,-1.91787 12.30388,-4.48678 2.26625,-1.01349 4.71102,-1.55696 6.96839,-2.59248"
         id="path3003"
         sodipodi:nodetypes="cccccc" />
      <path
         sodipodi:type="arc"
         style="color:#000000;fill:#e3f4d7;fill-opacity:1;fill-rule:nonzero;stroke:#5aa02c;stroke-width:1;stroke-linecap:round;stroke-linejoin:round;stroke-miterlimit:4;stroke-opacity:1;stroke-dasharray:none;stroke-dashoffset:0;marker:none;visibility:visible;display:inline;overflow:visible;enable-background:accumulate"
         id="path3009"
         sodipodi:cx="405.53674"
         sodipodi:cy="83.715134"
         sodipodi:rx="4.1502299"
         sodipodi:ry="4.1502299"
         d="m 409.68697,83.715134 c 0,2.292108 -1.85812,4.15023 -4.15023,4.15023 -2.29211,0 -4.15023,-1.858122 -4.15023,-4.15023 0,-2.292109 1.85812,-4.15023 4.15023,-4.15023 2.29211,0 4.15023,1.858121 4.15023,4.15023 z"
         transform="translate(99.25,720.73877)" />
    </g>
    <g
       id="g3931"
       s2p-scene-id="7"
       transform="matrix(2.6081905,0,0,2.6081905,-159.6129,-1533.9921)">
      <rect
         style="color:#000000;fill:none;stroke:#000000;stroke-width:1.5;stroke-linecap:square;stroke-linejoin:round;stroke-miterlimit:4;stroke-opacity:1;stroke-dasharray:none;stroke-dashoffset:0;marker:none;visibility:visible;display:inline;overflow:visible;enable-background:accumulate"
         id="rect3697"
         width="100"
         height="100"
         x="420"
         y="852.36218" />
      <path
         style="color:#000000;fill:none;stroke:#000000;stroke-width:1;stroke-linecap:butt;stroke-linejoin:miter;stroke-miterlimit:4;stroke-opacity:1;stroke-dasharray:none;stroke-dashoffset:0;marker:none;visibility:visible;display:inline;overflow:visible;enable-background:accumulate"
         d="m 420.29993,934.8897 c 33.39947,-0.39526 66.79894,-0.79052 100.19841,-1.18578"
         id="path3011" />
      <path
         style="color:#000000;fill:#e3f4d7;fill-opacity:1;fill-rule:nonzero;stroke:#5aa02c;stroke-width:1;stroke-linecap:round;stroke-linejoin:round;stroke-miterlimit:4;stroke-opacity:1;stroke-dasharray:none;stroke-dashoffset:0;marker:none;visibility:visible;display:inline;overflow:visible;enable-background:accumulate"
         d="m 350.99088,205.55403 0.59289,8.00401 15.71158,-1.18578 -0.59289,-6.81823 -15.71158,0 z"
         id="path3018"
         transform="translate(99.25,720.73877)" />
      <path
         style="color:#000000;fill:#e3f4d7;fill-opacity:1;fill-rule:nonzero;stroke:#5aa02c;stroke-width:1;stroke-linecap:round;stroke-linejoin:round;stroke-miterlimit:4;stroke-opacity:1;stroke-dasharray:none;stroke-dashoffset:0;marker:none;visibility:visible;display:inline;overflow:visible;enable-background:accumulate"
         d="m 455.28044,925.69991 -0.59289,-7.41112 6.81824,0.59289 -0.59289,6.52179 -5.63246,0.29644 z"
         id="path3020" />
    </g>
  </g>
</svg>
