<?xml version="1.0" encoding="UTF-8" standalone="no"?>
<!-- Created with Inkscape (http://www.inkscape.org/) -->

<svg
   xmlns:dc="http://purl.org/dc/elements/1.1/"
   xmlns:cc="http://creativecommons.org/ns#"
   xmlns:rdf="http://www.w3.org/1999/02/22-rdf-syntax-ns#"
   xmlns:svg="http://www.w3.org/2000/svg"
   xmlns="http://www.w3.org/2000/svg"
   xmlns:sodipodi="http://sodipodi.sourceforge.net/DTD/sodipodi-0.dtd"
   xmlns:inkscape="http://www.inkscape.org/namespaces/inkscape"
   width="1100"
   height="530"
   id="svg2885"
   version="1.1"
   inkscape:version="0.47 r22583"
   sodipodi:docname="pbp01.svg">
  <defs
     id="defs2887">
    <inkscape:perspective
       sodipodi:type="inkscape:persp3d"
       inkscape:vp_x="0 : 526.18109 : 1"
       inkscape:vp_y="0 : 1000 : 0"
       inkscape:vp_z="744.09448 : 526.18109 : 1"
       inkscape:persp3d-origin="372.04724 : 350.78739 : 1"
       id="perspective2893" />
    <inkscape:perspective
       id="perspective2903"
       inkscape:persp3d-origin="0.5 : 0.33333333 : 1"
       inkscape:vp_z="1 : 0.5 : 1"
       inkscape:vp_y="0 : 1000 : 0"
       inkscape:vp_x="0 : 0.5 : 1"
       sodipodi:type="inkscape:persp3d" />
    <inkscape:perspective
       id="perspective3722"
       inkscape:persp3d-origin="0.5 : 0.33333333 : 1"
       inkscape:vp_z="1 : 0.5 : 1"
       inkscape:vp_y="0 : 1000 : 0"
       inkscape:vp_x="0 : 0.5 : 1"
       sodipodi:type="inkscape:persp3d" />
    <inkscape:perspective
       id="perspective3773"
       inkscape:persp3d-origin="0.5 : 0.33333333 : 1"
       inkscape:vp_z="1 : 0.5 : 1"
       inkscape:vp_y="0 : 1000 : 0"
       inkscape:vp_x="0 : 0.5 : 1"
       sodipodi:type="inkscape:persp3d" />
    <inkscape:perspective
       id="perspective3773-1"
       inkscape:persp3d-origin="0.5 : 0.33333333 : 1"
       inkscape:vp_z="1 : 0.5 : 1"
       inkscape:vp_y="0 : 1000 : 0"
       inkscape:vp_x="0 : 0.5 : 1"
       sodipodi:type="inkscape:persp3d" />
    <inkscape:perspective
       id="perspective3858"
       inkscape:persp3d-origin="0.5 : 0.33333333 : 1"
       inkscape:vp_z="1 : 0.5 : 1"
       inkscape:vp_y="0 : 1000 : 0"
       inkscape:vp_x="0 : 0.5 : 1"
       sodipodi:type="inkscape:persp3d" />
    <inkscape:perspective
       id="perspective3858-4"
       inkscape:persp3d-origin="0.5 : 0.33333333 : 1"
       inkscape:vp_z="1 : 0.5 : 1"
       inkscape:vp_y="0 : 1000 : 0"
       inkscape:vp_x="0 : 0.5 : 1"
       sodipodi:type="inkscape:persp3d" />
    <inkscape:perspective
       id="perspective4155"
       inkscape:persp3d-origin="0.5 : 0.33333333 : 1"
       inkscape:vp_z="1 : 0.5 : 1"
       inkscape:vp_y="0 : 1000 : 0"
       inkscape:vp_x="0 : 0.5 : 1"
       sodipodi:type="inkscape:persp3d" />
    <inkscape:perspective
       id="perspective2847"
       inkscape:persp3d-origin="0.5 : 0.33333333 : 1"
       inkscape:vp_z="1 : 0.5 : 1"
       inkscape:vp_y="0 : 1000 : 0"
       inkscape:vp_x="0 : 0.5 : 1"
       sodipodi:type="inkscape:persp3d" />
  </defs>
  <sodipodi:namedview
     id="base"
     pagecolor="#ffffff"
     bordercolor="#666666"
     borderopacity="1.0"
     inkscape:pageopacity="0.0"
     inkscape:pageshadow="2"
     inkscape:zoom="1.4"
     inkscape:cx="258.08028"
     inkscape:cy="216.85838"
     inkscape:document-units="px"
     inkscape:current-layer="layer1"
     showgrid="true"
     inkscape:snap-global="false"
     inkscape:window-width="1920"
     inkscape:window-height="1125"
     inkscape:window-x="0"
     inkscape:window-y="24"
     inkscape:window-maximized="1">
    <inkscape:grid
       type="xygrid"
       id="grid3683"
       empspacing="10"
       visible="true"
       enabled="false"
       snapvisiblegridlinesonly="true"
       spacingx="10px"
       spacingy="10px" />
  </sodipodi:namedview>
  <metadata
     id="metadata2890">
    <rdf:RDF>
      <cc:Work
         rdf:about="">
        <dc:format>image/svg+xml</dc:format>
        <dc:type
           rdf:resource="http://purl.org/dc/dcmitype/StillImage" />
        <dc:title />
      </cc:Work>
    </rdf:RDF>
  </metadata>
  <g
     inkscape:label="Layer 1"
     inkscape:groupmode="layer"
     id="layer1"
     transform="translate(-99.250005,-423.86215)">
    <g
       id="g2853"
       transform="matrix(2.6097272,0,0,2.6097272,-159.76542,-1535.4579)">
      <path
         transform="translate(0,308.2677)"
         id="path3701"
         d="m 310,444.09448 0,200"
         style="color:#000000;fill:none;stroke:#000000;stroke-width:3;stroke-linecap:square;stroke-linejoin:round;stroke-miterlimit:4;stroke-opacity:1;stroke-dasharray:none;stroke-dashoffset:0;marker:none;visibility:visible;display:inline;overflow:visible;enable-background:accumulate" />
      <g
         s2p-scene-id="0"
         id="g3887">
        <rect
           y="752.36218"
           x="100"
           height="100"
           width="100"
           id="rect3685"
           style="color:#000000;fill:none;stroke:#000000;stroke-width:1.5;stroke-linecap:square;stroke-linejoin:round;stroke-miterlimit:4;stroke-opacity:1;stroke-dasharray:none;stroke-dashoffset:0;marker:none;visibility:visible;display:inline;overflow:visible;enable-background:accumulate" />
        <path
           id="path2874"
           d="m 101.01777,836.68449 c 5.94968,-1.06731 11.86747,1.14871 17.8215,0.22337 7.13216,-0.74117 14.3018,-0.004 21.45241,-0.38779 7.58857,-0.38454 15.12585,1.09933 22.7239,0.70948 5.22111,-0.23794 10.44765,0.29704 15.67217,0.29131 5.45245,0.60195 10.93905,-0.41787 16.35394,0.59475 1.48153,0.15818 2.98054,0.2468 4.46595,0.0842"
           style="color:#000000;fill:none;stroke:#000000;stroke-width:1;stroke-linecap:butt;stroke-linejoin:miter;stroke-miterlimit:4;stroke-opacity:1;stroke-dasharray:none;stroke-dashoffset:0;marker:none;visibility:visible;display:inline;overflow:visible;enable-background:accumulate" />
        <path
           transform="translate(99.25,720.73877)"
           id="path2880"
           d="m 38.890873,81.347994 6.565991,-0.505076 -4.04061,33.840112 -5.050763,0 2.525382,-33.335036 z"
           style="color:#000000;fill:#e3f4d7;fill-opacity:1;fill-rule:nonzero;stroke:#5aa02c;stroke-width:1;stroke-linecap:round;stroke-linejoin:round;stroke-miterlimit:4;stroke-opacity:1;stroke-dasharray:none;stroke-dashoffset:0;marker:none;visibility:visible;display:inline;overflow:visible;enable-background:accumulate" />
      </g>
      <g
         s2p-scene-id="1"
         id="g3893">
        <rect
           style="color:#000000;fill:none;stroke:#000000;stroke-width:1.5;stroke-linecap:square;stroke-linejoin:round;stroke-miterlimit:4;stroke-opacity:1;stroke-dasharray:none;stroke-dashoffset:0;marker:none;visibility:visible;display:inline;overflow:visible;enable-background:accumulate"
           id="rect2909"
           width="100"
           height="100"
           x="100"
           y="852.36218" />
        <path
           sodipodi:nodetypes="cccccc"
           id="path2893"
           d="m 101.01777,920.02207 c 10.97739,2.82543 20.05313,9.30404 29.60629,15.33849 3.00178,2.5852 6.31902,6.45023 10.75282,5.26016 6.248,-1.55485 12.00176,-4.72806 18.41424,-5.71411 10.42078,-2.29866 21.19668,-2.54714 31.55942,-5.10183 2.51966,-0.68974 5.04078,-1.45008 7.65202,-1.70149"
           style="color:#000000;fill:none;stroke:#000000;stroke-width:1;stroke-linecap:butt;stroke-linejoin:miter;stroke-miterlimit:4;stroke-opacity:1;stroke-dasharray:none;stroke-dashoffset:0;marker:none;visibility:visible;display:inline;overflow:visible;enable-background:accumulate" />
        <path
           transform="translate(99.25,720.73877)"
           d="m 26.516504,201.3036 c 0,2.92894 -2.374368,5.3033 -5.303301,5.3033 -2.928932,0 -5.3033,-2.37436 -5.3033,-5.3033 0,-2.92893 2.374368,-5.3033 5.3033,-5.3033 2.928933,0 5.303301,2.37437 5.303301,5.3033 z"
           sodipodi:ry="5.3033009"
           sodipodi:rx="5.3033009"
           sodipodi:cy="201.3036"
           sodipodi:cx="21.213203"
           id="path2902"
           style="color:#000000;fill:#e3f4d7;fill-opacity:1;fill-rule:nonzero;stroke:#5aa02c;stroke-width:1;stroke-linecap:round;stroke-linejoin:round;stroke-miterlimit:4;stroke-opacity:1;stroke-dasharray:none;stroke-dashoffset:0;marker:none;visibility:visible;display:inline;overflow:visible;enable-background:accumulate"
           sodipodi:type="arc" />
      </g>
      <g
         s2p-scene-id="2"
         id="g3899">
        <rect
           style="color:#000000;fill:none;stroke:#000000;stroke-width:1.5;stroke-linecap:square;stroke-linejoin:round;stroke-miterlimit:4;stroke-opacity:1;stroke-dasharray:none;stroke-dashoffset:0;marker:none;visibility:visible;display:inline;overflow:visible;enable-background:accumulate"
           id="rect3687"
           width="100"
           height="100"
           x="200"
           y="752.36218" />
        <path
           id="path2882"
           d="m 201.27541,832.89642 c 9.22629,-3.40802 18.91976,-5.33658 28.54749,-7.21105 7.18203,-1.14708 14.57221,-0.82499 21.61571,0.97141 9.58377,1.34127 19.36588,2.19964 28.47062,5.70761 4.76688,1.36705 9.22864,3.63766 13.33415,6.38189 2.26836,1.04804 4.87286,1.73307 6.52191,3.74659"
           style="color:#000000;fill:none;stroke:#000000;stroke-width:1;stroke-linecap:butt;stroke-linejoin:miter;stroke-miterlimit:4;stroke-opacity:1;stroke-dasharray:none;stroke-dashoffset:0;marker:none;visibility:visible;display:inline;overflow:visible;enable-background:accumulate" />
        <path
           transform="translate(99.25,720.73877)"
           id="path2891"
           d="m 137.88582,77.054846 10.35407,-0.252538 -2.02031,12.626906 -9.09137,-1.767766 0.75761,-10.606602 z"
           style="color:#000000;fill:#e3f4d7;fill-opacity:1;fill-rule:nonzero;stroke:#5aa02c;stroke-width:1;stroke-linecap:round;stroke-linejoin:round;stroke-miterlimit:4;stroke-opacity:1;stroke-dasharray:none;stroke-dashoffset:0;marker:none;visibility:visible;display:inline;overflow:visible;enable-background:accumulate" />
      </g>
      <g
         s2p-scene-id="3"
         id="g3905">
        <rect
           y="852.36218"
           x="200"
           height="100"
           width="100"
           id="rect3689"
           style="color:#000000;fill:none;stroke:#000000;stroke-width:1.5;stroke-linecap:square;stroke-linejoin:round;stroke-miterlimit:4;stroke-opacity:1;stroke-dasharray:none;stroke-dashoffset:0;marker:none;visibility:visible;display:inline;overflow:visible;enable-background:accumulate" />
        <path
           id="path2904"
           d="m 201.27541,932.90152 c 6.84191,-2.04545 13.96563,-0.26976 20.92381,-0.13762 5.63693,2.06004 0.30333,-6.84078 4.02457,-7.05191 4.95623,0.32942 9.89697,1.31877 14.87801,0.69525 4.85446,-0.23639 9.78497,-0.40821 14.56376,0.64536 3.72561,-0.70701 8.81798,1.43847 11.71722,-0.5523 -0.70534,-2.70296 -1.00839,-7.56854 3.25378,-5.63803 9.32785,1.4532 18.81633,-0.80044 28.13123,0.90623 0.49526,0.31234 -0.0987,0.15961 -0.2652,0.27383"
           style="color:#000000;fill:none;stroke:#000000;stroke-width:1;stroke-linecap:butt;stroke-linejoin:miter;stroke-miterlimit:4;stroke-opacity:1;stroke-dasharray:none;stroke-dashoffset:0;marker:none;visibility:visible;display:inline;overflow:visible;enable-background:accumulate" />
        <path
           transform="translate(99.25,720.73877)"
           d="m 141.16881,199.53584 c 0,2.92894 -2.37437,5.3033 -5.3033,5.3033 -2.92893,0 -5.3033,-2.37436 -5.3033,-5.3033 0,-2.92893 2.37437,-5.3033 5.3033,-5.3033 2.92893,0 5.3033,2.37437 5.3033,5.3033 z"
           sodipodi:ry="5.3033009"
           sodipodi:rx="5.3033009"
           sodipodi:cy="199.53584"
           sodipodi:cx="135.86551"
           id="path2909"
           style="color:#000000;fill:#e3f4d7;fill-opacity:1;fill-rule:nonzero;stroke:#5aa02c;stroke-width:1;stroke-linecap:round;stroke-linejoin:round;stroke-miterlimit:4;stroke-opacity:1;stroke-dasharray:none;stroke-dashoffset:0;marker:none;visibility:visible;display:inline;overflow:visible;enable-background:accumulate"
           sodipodi:type="arc" />
        <path
           transform="translate(99.25,720.73877)"
           d="m 185.61554,194.48508 c 0,2.78946 -2.26131,5.05076 -5.05077,5.05076 -2.78946,0 -5.05076,-2.2613 -5.05076,-5.05076 0,-2.78946 2.2613,-5.05077 5.05076,-5.05077 2.78946,0 5.05077,2.26131 5.05077,5.05077 z"
           sodipodi:ry="5.0507627"
           sodipodi:rx="5.0507627"
           sodipodi:cy="194.48508"
           sodipodi:cx="180.56477"
           id="path2911"
           style="color:#000000;fill:#e3f4d7;fill-opacity:1;fill-rule:nonzero;stroke:#5aa02c;stroke-width:1;stroke-linecap:round;stroke-linejoin:round;stroke-miterlimit:4;stroke-opacity:1;stroke-dasharray:none;stroke-dashoffset:0;marker:none;visibility:visible;display:inline;overflow:visible;enable-background:accumulate"
           sodipodi:type="arc" />
      </g>
      <g
         s2p-scene-id="4"
         id="g3912">
        <rect
           y="752.36218"
           x="320"
           height="100"
           width="100"
           id="rect3691"
           style="color:#000000;fill:none;stroke:#000000;stroke-width:1.5;stroke-linecap:square;stroke-linejoin:round;stroke-miterlimit:4;stroke-opacity:1;stroke-dasharray:none;stroke-dashoffset:0;marker:none;visibility:visible;display:inline;overflow:visible;enable-background:accumulate" />
        <path
           id="path2913"
           d="m 320.22087,825.06773 c 4.58452,1.89559 8.75835,4.81905 13.69381,5.80748 11.80838,3.52119 24.37619,4.36899 36.58715,2.97253 5.42492,-1.27181 11.01322,0.61192 16.44875,-0.57349 5.87444,-0.10695 11.52067,-1.85515 17.25676,-2.94106 5.11437,-1.1545 10.23076,-2.67609 14.74121,-5.41391 l 0.5198,-0.60916"
           style="color:#000000;fill:none;stroke:#000000;stroke-width:1;stroke-linecap:butt;stroke-linejoin:miter;stroke-miterlimit:4;stroke-opacity:1;stroke-dasharray:none;stroke-dashoffset:0;marker:none;visibility:visible;display:inline;overflow:visible;enable-background:accumulate" />
      </g>
      <g
         s2p-scene-id="5"
         id="g3918">
        <rect
           style="color:#000000;fill:none;stroke:#000000;stroke-width:1.5;stroke-linecap:square;stroke-linejoin:round;stroke-miterlimit:4;stroke-opacity:1;stroke-dasharray:none;stroke-dashoffset:0;marker:none;visibility:visible;display:inline;overflow:visible;enable-background:accumulate"
           id="rect3695"
           width="100"
           height="100"
           x="320"
           y="852.36218" />
        <path
           id="path2925"
           d="m 320.72594,937.4472 c 5.32005,2.70341 11.49884,1.7293 17.24468,1.92208 7.46124,-0.1347 14.75375,1.75983 22.20626,1.81548 7.85549,0.40543 15.75664,-0.0499 23.56885,0.97479 11.73568,0.71816 23.47494,-0.99982 35.21755,-0.16667"
           style="color:#000000;fill:none;stroke:#000000;stroke-width:1;stroke-linecap:butt;stroke-linejoin:miter;stroke-miterlimit:4;stroke-opacity:1;stroke-dasharray:none;stroke-dashoffset:0;marker:none;visibility:visible;display:inline;overflow:visible;enable-background:accumulate" />
      </g>
      <g
         s2p-scene-id="6"
         id="g3925">
        <rect
           style="color:#000000;fill:none;stroke:#000000;stroke-width:1.5;stroke-linecap:square;stroke-linejoin:round;stroke-miterlimit:4;stroke-opacity:1;stroke-dasharray:none;stroke-dashoffset:0;marker:none;visibility:visible;display:inline;overflow:visible;enable-background:accumulate"
           id="rect3693"
           width="100"
           height="100"
           x="420"
           y="752.36218" />
        <path
           id="path2919"
           d="m 420.98358,816.98651 c 3.82109,0.21629 7.61847,-0.89709 11.45896,-0.38777 6.16662,0.2952 12.36181,-0.0667 18.43557,-1.07434 4.32475,-0.20714 9.22279,-2.44615 13.13033,0.43334 3.24593,4.69642 6.41893,9.56539 10.80382,13.3001 2.03118,3.80507 5.38531,7.9403 10.16534,6.46105 5.61527,0.58329 11.23977,1.49477 16.89703,0.9357 5.83529,-0.0711 11.63554,1.67851 17.45535,0.92575 l 0.64855,-0.1382"
           style="color:#000000;fill:none;stroke:#000000;stroke-width:1;stroke-linecap:butt;stroke-linejoin:miter;stroke-miterlimit:4;stroke-opacity:1;stroke-dasharray:none;stroke-dashoffset:0;marker:none;visibility:visible;display:inline;overflow:visible;enable-background:accumulate" />
      </g>
      <g
         s2p-scene-id="7"
         id="g3931">
        <rect
           y="852.36218"
           x="420"
           height="100"
           width="100"
           id="rect3697"
           style="color:#000000;fill:none;stroke:#000000;stroke-width:1.5;stroke-linecap:square;stroke-linejoin:round;stroke-miterlimit:4;stroke-opacity:1;stroke-dasharray:none;stroke-dashoffset:0;marker:none;visibility:visible;display:inline;overflow:visible;enable-background:accumulate" />
        <path
           id="path2933"
           d="m 420.73105,933.15406 c 5.12692,0.82468 10.01679,2.72037 15.1122,3.6654 7.27009,2.59261 14.68069,4.99228 22.41876,5.62008 13.72701,1.97809 27.47394,3.93323 41.33953,4.61763 5.98534,0.44041 11.99733,0.73501 17.9641,-0.0899 0.80355,-0.0683 1.60776,-0.12962 2.41289,-0.17616"
           style="color:#000000;fill:none;stroke:#000000;stroke-width:1;stroke-linecap:butt;stroke-linejoin:miter;stroke-miterlimit:4;stroke-opacity:1;stroke-dasharray:none;stroke-dashoffset:0;marker:none;visibility:visible;display:inline;overflow:visible;enable-background:accumulate" />
      </g>
    </g>
  </g>
</svg>
