<?xml version="1.0" encoding="UTF-8" standalone="no"?>
<!-- Created with Inkscape (http://www.inkscape.org/) -->

<svg
   xmlns:dc="http://purl.org/dc/elements/1.1/"
   xmlns:cc="http://creativecommons.org/ns#"
   xmlns:rdf="http://www.w3.org/1999/02/22-rdf-syntax-ns#"
   xmlns:svg="http://www.w3.org/2000/svg"
   xmlns="http://www.w3.org/2000/svg"
   xmlns:sodipodi="http://sodipodi.sourceforge.net/DTD/sodipodi-0.dtd"
   xmlns:inkscape="http://www.inkscape.org/namespaces/inkscape"
   width="1100"
   height="530"
   id="svg2885"
   version="1.1"
   inkscape:version="0.47 r22583"
   sodipodi:docname="pbp15.svg">
  <defs
     id="defs2887">
    <inkscape:perspective
       sodipodi:type="inkscape:persp3d"
       inkscape:vp_x="0 : 526.18109 : 1"
       inkscape:vp_y="0 : 1000 : 0"
       inkscape:vp_z="744.09448 : 526.18109 : 1"
       inkscape:persp3d-origin="372.04724 : 350.78739 : 1"
       id="perspective2893" />
    <inkscape:perspective
       id="perspective2903"
       inkscape:persp3d-origin="0.5 : 0.33333333 : 1"
       inkscape:vp_z="1 : 0.5 : 1"
       inkscape:vp_y="0 : 1000 : 0"
       inkscape:vp_x="0 : 0.5 : 1"
       sodipodi:type="inkscape:persp3d" />
    <inkscape:perspective
       id="perspective3722"
       inkscape:persp3d-origin="0.5 : 0.33333333 : 1"
       inkscape:vp_z="1 : 0.5 : 1"
       inkscape:vp_y="0 : 1000 : 0"
       inkscape:vp_x="0 : 0.5 : 1"
       sodipodi:type="inkscape:persp3d" />
    <inkscape:perspective
       id="perspective3773"
       inkscape:persp3d-origin="0.5 : 0.33333333 : 1"
       inkscape:vp_z="1 : 0.5 : 1"
       inkscape:vp_y="0 : 1000 : 0"
       inkscape:vp_x="0 : 0.5 : 1"
       sodipodi:type="inkscape:persp3d" />
    <inkscape:perspective
       id="perspective3773-1"
       inkscape:persp3d-origin="0.5 : 0.33333333 : 1"
       inkscape:vp_z="1 : 0.5 : 1"
       inkscape:vp_y="0 : 1000 : 0"
       inkscape:vp_x="0 : 0.5 : 1"
       sodipodi:type="inkscape:persp3d" />
    <inkscape:perspective
       id="perspective3858"
       inkscape:persp3d-origin="0.5 : 0.33333333 : 1"
       inkscape:vp_z="1 : 0.5 : 1"
       inkscape:vp_y="0 : 1000 : 0"
       inkscape:vp_x="0 : 0.5 : 1"
       sodipodi:type="inkscape:persp3d" />
    <inkscape:perspective
       id="perspective3858-4"
       inkscape:persp3d-origin="0.5 : 0.33333333 : 1"
       inkscape:vp_z="1 : 0.5 : 1"
       inkscape:vp_y="0 : 1000 : 0"
       inkscape:vp_x="0 : 0.5 : 1"
       sodipodi:type="inkscape:persp3d" />
    <inkscape:perspective
       id="perspective4155"
       inkscape:persp3d-origin="0.5 : 0.33333333 : 1"
       inkscape:vp_z="1 : 0.5 : 1"
       inkscape:vp_y="0 : 1000 : 0"
       inkscape:vp_x="0 : 0.5 : 1"
       sodipodi:type="inkscape:persp3d" />
    <inkscape:perspective
       id="perspective2847"
       inkscape:persp3d-origin="0.5 : 0.33333333 : 1"
       inkscape:vp_z="1 : 0.5 : 1"
       inkscape:vp_y="0 : 1000 : 0"
       inkscape:vp_x="0 : 0.5 : 1"
       sodipodi:type="inkscape:persp3d" />
  </defs>
  <sodipodi:namedview
     id="base"
     pagecolor="#ffffff"
     bordercolor="#666666"
     borderopacity="1.0"
     inkscape:pageopacity="0.0"
     inkscape:pageshadow="2"
     inkscape:zoom="2.0404762"
     inkscape:cx="212.07942"
     inkscape:cy="87.998186"
     inkscape:document-units="px"
     inkscape:current-layer="layer1"
     showgrid="false"
     inkscape:snap-global="false"
     inkscape:window-width="1920"
     inkscape:window-height="1125"
     inkscape:window-x="0"
     inkscape:window-y="24"
     inkscape:window-maximized="1">
    <inkscape:grid
       type="xygrid"
       id="grid3683"
       empspacing="10"
       visible="true"
       enabled="false"
       snapvisiblegridlinesonly="true"
       spacingx="10px"
       spacingy="10px" />
  </sodipodi:namedview>
  <metadata
     id="metadata2890">
    <rdf:RDF>
      <cc:Work
         rdf:about="">
        <dc:format>image/svg+xml</dc:format>
        <dc:type
           rdf:resource="http://purl.org/dc/dcmitype/StillImage" />
        <dc:title />
      </cc:Work>
    </rdf:RDF>
  </metadata>
  <g
     inkscape:label="Layer 1"
     inkscape:groupmode="layer"
     id="layer1"
     transform="translate(-99.250005,-423.86217)">
    <path
       style="color:#000000;fill:none;stroke:#000000;stroke-width:7.82918167;stroke-linecap:square;stroke-linejoin:round;stroke-miterlimit:4;stroke-opacity:1;stroke-dasharray:none;stroke-dashoffset:0;marker:none;visibility:visible;display:inline;overflow:visible;enable-background:accumulate"
       d="m 649.25,428.00216 0,521.94543"
       id="path3701" />
    <g
       id="g3887"
       s2p-scene-id="0"
       transform="matrix(2.6097272,0,0,2.6097272,-159.76542,-1535.4579)">
      <rect
         style="color:#000000;fill:none;stroke:#000000;stroke-width:1.5;stroke-linecap:square;stroke-linejoin:round;stroke-miterlimit:4;stroke-opacity:1;stroke-dasharray:none;stroke-dashoffset:0;marker:none;visibility:visible;display:inline;overflow:visible;enable-background:accumulate"
         id="rect3685"
         width="100"
         height="100"
         x="100"
         y="752.36218" />
      <path
         style="color:#000000;fill:none;stroke:#000000;stroke-width:1;stroke-linecap:butt;stroke-linejoin:miter;stroke-miterlimit:4;stroke-opacity:1;stroke-dasharray:none;stroke-dashoffset:0;marker:none;visibility:visible;display:inline;overflow:visible;enable-background:accumulate"
         d="m 199.2551,785.67178 c -1.09292,9.48185 -4.85375,23.88567 -14.75984,26.96887 -4.75004,2.80825 -16.32381,1.93284 -20.26111,-0.11131 -3.66362,-3.7335 -0.59002,1.8732 -1.13396,3.9487 2.33166,8.64731 1.57404,12.7079 1.86304,21.46171 -15.89957,-0.0494 -25.54904,-1.41965 -41.4295,-1.94929 -7.13301,-1.67333 -14.35687,0.15222 -21.50581,-0.31612"
         id="path2874"
         sodipodi:nodetypes="ccccccc" />
      <path
         sodipodi:type="arc"
         style="color:#000000;fill:#e3f4d7;fill-opacity:1;fill-rule:nonzero;stroke:#5aa02c;stroke-width:1;stroke-linecap:round;stroke-linejoin:round;stroke-miterlimit:4;stroke-opacity:1;stroke-dasharray:none;stroke-dashoffset:0;marker:none;visibility:visible;display:inline;overflow:visible;enable-background:accumulate"
         id="path2877"
         sodipodi:cx="93.944183"
         sodipodi:cy="65.690628"
         sodipodi:rx="3.7880721"
         sodipodi:ry="3.7880721"
         d="m 97.732255,65.690628 c 0,2.092095 -1.695977,3.788072 -3.788072,3.788072 -2.092094,0 -3.788072,-1.695977 -3.788072,-3.788072 0,-2.092094 1.695978,-3.788072 3.788072,-3.788072 2.092095,0 3.788072,1.695978 3.788072,3.788072 z"
         transform="translate(100.00761,722.00146)" />
      <path
         style="color:#000000;fill:#e3f4d7;fill-opacity:1;fill-rule:nonzero;stroke:#5aa02c;stroke-width:1;stroke-linecap:round;stroke-linejoin:round;stroke-miterlimit:4;stroke-opacity:1;stroke-dasharray:none;stroke-dashoffset:0;marker:none;visibility:visible;display:inline;overflow:visible;enable-background:accumulate"
         d="m 156.45795,836.38221 3.4004,-8.74706 4.19075,8.91291 -7.59115,-0.16585 z"
         id="path2879" />
      <path
         style="color:#000000;fill:#e3f4d7;fill-opacity:1;fill-rule:nonzero;stroke:#5aa02c;stroke-width:1;stroke-linecap:round;stroke-linejoin:round;stroke-miterlimit:4;stroke-opacity:1;stroke-dasharray:none;stroke-dashoffset:0;marker:none;visibility:visible;display:inline;overflow:visible;enable-background:accumulate"
         d="m 140.20104,835.71183 4.04061,-7.82869 3.28299,8.33376 -7.3236,-0.50507 z"
         id="path2881" />
    </g>
    <g
       id="g3893"
       s2p-scene-id="1"
       transform="matrix(2.6097272,0,0,2.6097272,-159.76542,-1535.4579)">
      <rect
         y="852.36218"
         x="100"
         height="100"
         width="100"
         id="rect2909"
         style="color:#000000;fill:none;stroke:#000000;stroke-width:1.5;stroke-linecap:square;stroke-linejoin:round;stroke-miterlimit:4;stroke-opacity:1;stroke-dasharray:none;stroke-dashoffset:0;marker:none;visibility:visible;display:inline;overflow:visible;enable-background:accumulate" />
      <path
         style="color:#000000;fill:none;stroke:#000000;stroke-width:1;stroke-linecap:butt;stroke-linejoin:miter;stroke-miterlimit:4;stroke-opacity:1;stroke-dasharray:none;stroke-dashoffset:0;marker:none;visibility:visible;display:inline;overflow:visible;enable-background:accumulate"
         d="m 102.28046,939.97259 c 7.69969,-1.63372 15.60669,0.23685 23.35882,-0.96482 6.65725,-0.60781 13.27717,-2.72204 19.99423,-1.45092 5.21388,0.66314 10.48147,-0.33541 15.68839,0.55013 8.24207,1.47248 16.60897,-0.15034 24.90893,0.4155 4.93028,0.0857 8.59781,-0.0208 13.52935,-0.0651"
         id="path2883"
         sodipodi:nodetypes="cccccc" />
      <path
         sodipodi:type="arc"
         style="color:#000000;fill:#e3f4d7;fill-opacity:1;fill-rule:nonzero;stroke:#5aa02c;stroke-width:1;stroke-linecap:round;stroke-linejoin:round;stroke-miterlimit:4;stroke-opacity:1;stroke-dasharray:none;stroke-dashoffset:0;marker:none;visibility:visible;display:inline;overflow:visible;enable-background:accumulate"
         id="path2889"
         sodipodi:cx="71.215752"
         sodipodi:cy="187.91908"
         sodipodi:rx="4.5456862"
         sodipodi:ry="4.5456862"
         d="m 75.761438,187.91908 c 0,2.51052 -2.035173,4.54569 -4.545686,4.54569 -2.510514,0 -4.545687,-2.03517 -4.545687,-4.54569 0,-2.51051 2.035173,-4.54568 4.545687,-4.54568 2.510513,0 4.545686,2.03517 4.545686,4.54568 z"
         transform="translate(99.25,720.73877)" />
      <path
         style="color:#000000;fill:#e3f4d7;fill-opacity:1;fill-rule:nonzero;stroke:#5aa02c;stroke-width:1;stroke-linecap:round;stroke-linejoin:round;stroke-miterlimit:4;stroke-opacity:1;stroke-dasharray:none;stroke-dashoffset:0;marker:none;visibility:visible;display:inline;overflow:visible;enable-background:accumulate"
         d="m 76.519055,204.5866 -7.323606,12.62691 14.89975,-0.50508 -7.576144,-12.12183 z"
         id="path2891"
         transform="translate(99.25,720.73877)" />
      <path
         style="color:#000000;fill:#e3f4d7;fill-opacity:1;fill-rule:nonzero;stroke:#5aa02c;stroke-width:1;stroke-linecap:round;stroke-linejoin:round;stroke-miterlimit:4;stroke-opacity:1;stroke-dasharray:none;stroke-dashoffset:0;marker:none;visibility:visible;display:inline;overflow:visible;enable-background:accumulate"
         d="m 33.84011,203.57645 -11.364216,13.8896 16.920055,-1.51523 -5.555839,-12.37437 z"
         id="path2893"
         transform="translate(99.25,720.73877)" />
    </g>
    <g
       id="g3899"
       s2p-scene-id="2"
       transform="matrix(2.6097272,0,0,2.6097272,-159.76542,-1535.4579)">
      <rect
         y="752.36218"
         x="200"
         height="100"
         width="100"
         id="rect3687"
         style="color:#000000;fill:none;stroke:#000000;stroke-width:1.5;stroke-linecap:square;stroke-linejoin:round;stroke-miterlimit:4;stroke-opacity:1;stroke-dasharray:none;stroke-dashoffset:0;marker:none;visibility:visible;display:inline;overflow:visible;enable-background:accumulate" />
      <path
         style="color:#000000;fill:none;stroke:#000000;stroke-width:1;stroke-linecap:butt;stroke-linejoin:miter;stroke-miterlimit:4;stroke-opacity:1;stroke-dasharray:none;stroke-dashoffset:0;marker:none;visibility:visible;display:inline;overflow:visible;enable-background:accumulate"
         d="m 201.78048,835.4218 c 4.83004,-0.52776 9.70366,0.0275 14.55208,-0.0303 6.8978,0.36001 13.77182,-0.29948 20.65214,-0.61991 5.65657,-0.58969 11.24647,-1.75118 16.95257,-1.88288 11.06374,-0.47543 22.1861,-0.52368 33.1903,0.87301 4.36572,0.43083 7.74209,0.78416 12.13264,0.64979"
         id="path2907"
         sodipodi:nodetypes="cccccc" />
      <path
         sodipodi:type="arc"
         style="color:#000000;fill:#e3f4d7;fill-opacity:1;fill-rule:nonzero;stroke:#5aa02c;stroke-width:1;stroke-linecap:round;stroke-linejoin:round;stroke-miterlimit:4;stroke-opacity:1;stroke-dasharray:none;stroke-dashoffset:0;marker:none;visibility:visible;display:inline;overflow:visible;enable-background:accumulate"
         id="path2914"
         sodipodi:cx="136.11806"
         sodipodi:cy="78.822617"
         sodipodi:rx="5.3033009"
         sodipodi:ry="5.3033009"
         d="m 141.42136,78.822617 c 0,2.928932 -2.37437,5.3033 -5.3033,5.3033 -2.92893,0 -5.3033,-2.374368 -5.3033,-5.3033 0,-2.928933 2.37437,-5.303301 5.3033,-5.303301 2.92893,0 5.3033,2.374368 5.3033,5.303301 z"
         transform="translate(136.37311,719.98116)" />
      <path
         style="color:#000000;fill:#e3f4d7;fill-opacity:1;fill-rule:nonzero;stroke:#5aa02c;stroke-width:1;stroke-linecap:round;stroke-linejoin:round;stroke-miterlimit:4;stroke-opacity:1;stroke-dasharray:none;stroke-dashoffset:0;marker:none;visibility:visible;display:inline;overflow:visible;enable-background:accumulate"
         d="m 117.43023,104.32897 0,8.58629 9.84899,0.50508 0.25254,-9.84899 -10.10153,0.75762 z"
         id="path2916"
         transform="translate(99.25,720.73877)"
         sodipodi:nodetypes="ccccc" />
      <path
         style="color:#000000;fill:#e3f4d7;fill-opacity:1;fill-rule:nonzero;stroke:#5aa02c;stroke-width:1;stroke-linecap:round;stroke-linejoin:round;stroke-miterlimit:4;stroke-opacity:1;stroke-dasharray:none;stroke-dashoffset:0;marker:none;visibility:visible;display:inline;overflow:visible;enable-background:accumulate"
         d="m 246.2272,822.79489 0,9.84899 10.35405,-1.01015 0.50509,-9.59645 -10.85914,0.75761 z"
         id="path2918"
         sodipodi:nodetypes="ccccc" />
    </g>
    <g
       id="g3905"
       s2p-scene-id="3"
       transform="matrix(2.6097272,0,0,2.6097272,-159.76542,-1535.4579)">
      <rect
         style="color:#000000;fill:none;stroke:#000000;stroke-width:1.5;stroke-linecap:square;stroke-linejoin:round;stroke-miterlimit:4;stroke-opacity:1;stroke-dasharray:none;stroke-dashoffset:0;marker:none;visibility:visible;display:inline;overflow:visible;enable-background:accumulate"
         id="rect3689"
         width="100"
         height="100"
         x="200"
         y="852.36218" />
      <path
         sodipodi:type="arc"
         style="color:#000000;fill:#e3f4d7;fill-opacity:1;fill-rule:nonzero;stroke:#5aa02c;stroke-width:1;stroke-linecap:round;stroke-linejoin:round;stroke-miterlimit:4;stroke-opacity:1;stroke-dasharray:none;stroke-dashoffset:0;marker:none;visibility:visible;display:inline;overflow:visible;enable-background:accumulate"
         id="path2895"
         sodipodi:cx="146.47212"
         sodipodi:cy="176.30234"
         sodipodi:rx="4.7982244"
         sodipodi:ry="4.7982244"
         d="m 151.27035,176.30234 c 0,2.64998 -2.14824,4.79822 -4.79823,4.79822 -2.64998,0 -4.79822,-2.14824 -4.79822,-4.79822 0,-2.64999 2.14824,-4.79823 4.79822,-4.79823 2.64999,0 4.79823,2.14824 4.79823,4.79823 z"
         transform="translate(99.25,720.73877)" />
      <path
         style="color:#000000;fill:none;stroke:#000000;stroke-width:1;stroke-linecap:butt;stroke-linejoin:miter;stroke-miterlimit:4;stroke-opacity:1;stroke-dasharray:none;stroke-dashoffset:0;marker:none;visibility:visible;display:inline;overflow:visible;enable-background:accumulate"
         d="m 201.02287,937.4472 c 12.1106,0.93748 24.23796,-0.98311 36.35163,-0.0645 9.45159,-0.0228 18.91263,-0.0322 28.33934,0.71775 10.84981,0.36483 21.72285,-0.24871 32.56162,0.343 l 0.55779,0.16189 -0.33066,-0.14787"
         id="path2901" />
      <path
         style="color:#000000;fill:#e3f4d7;fill-opacity:1;fill-rule:nonzero;stroke:#5aa02c;stroke-width:1;stroke-linecap:round;stroke-linejoin:round;stroke-miterlimit:4;stroke-opacity:1;stroke-dasharray:none;stroke-dashoffset:0;marker:none;visibility:visible;display:inline;overflow:visible;enable-background:accumulate"
         d="m 249.25765,922.04238 13.13198,0 -0.25253,14.64721 -13.38452,0.50507 0.50507,-15.15228 z"
         id="path2899" />
      <path
         style="color:#000000;fill:#e3f4d7;fill-opacity:1;fill-rule:nonzero;stroke:#5aa02c;stroke-width:1;stroke-linecap:round;stroke-linejoin:round;stroke-miterlimit:4;stroke-opacity:1;stroke-dasharray:none;stroke-dashoffset:0;marker:none;visibility:visible;display:inline;overflow:visible;enable-background:accumulate"
         d="m 225.77161,921.03222 13.13198,-0.75761 -0.75762,15.40482 -13.38452,0.50508 1.01016,-15.15229 z"
         id="path2897" />
    </g>
    <g
       id="g3912"
       s2p-scene-id="4"
       transform="matrix(2.6097272,0,0,2.6097272,-159.76542,-1535.4579)">
      <rect
         style="color:#000000;fill:none;stroke:#000000;stroke-width:1.5;stroke-linecap:square;stroke-linejoin:round;stroke-miterlimit:4;stroke-opacity:1;stroke-dasharray:none;stroke-dashoffset:0;marker:none;visibility:visible;display:inline;overflow:visible;enable-background:accumulate"
         id="rect3691"
         width="100"
         height="100"
         x="320"
         y="752.36218" />
      <path
         style="color:#000000;fill:none;stroke:#000000;stroke-width:1;stroke-linecap:butt;stroke-linejoin:miter;stroke-miterlimit:4;stroke-opacity:1;stroke-dasharray:none;stroke-dashoffset:0;marker:none;visibility:visible;display:inline;overflow:visible;enable-background:accumulate"
         d="m 322.24117,834.91672 c 2.8592,-0.96107 6.08746,-0.65734 9.16684,-0.27464 6.03208,0.69183 12.1249,1.31548 18.17262,0.44114 4.78603,-0.21468 9.33307,1.50045 14.0499,2.00366 5.9812,1.23984 12.10098,1.27612 18.16035,0.69327 6.50598,-0.46921 13.10309,-0.65618 19.52868,0.62783 6.12622,0.38491 12.26682,0.40576 18.40133,0.54935"
         id="path2920" />
      <path
         sodipodi:type="arc"
         style="color:#000000;fill:#e3f4d7;fill-opacity:1;fill-rule:nonzero;stroke:#5aa02c;stroke-width:1;stroke-linecap:round;stroke-linejoin:round;stroke-miterlimit:4;stroke-opacity:1;stroke-dasharray:none;stroke-dashoffset:0;marker:none;visibility:visible;display:inline;overflow:visible;enable-background:accumulate"
         id="path2926"
         sodipodi:cx="275.01404"
         sodipodi:cy="75.792152"
         sodipodi:rx="4.5456862"
         sodipodi:ry="4.5456862"
         d="m 279.55972,75.792152 c 0,2.510514 -2.03517,4.545687 -4.54568,4.545687 -2.51052,0 -4.54569,-2.035173 -4.54569,-4.545687 0,-2.510513 2.03517,-4.545686 4.54569,-4.545686 2.51051,0 4.54568,2.035173 4.54568,4.545686 z"
         transform="translate(99.249999,721.74893)" />
      <path
         style="color:#000000;fill:#e3f4d7;fill-opacity:1;fill-rule:nonzero;stroke:#5aa02c;stroke-width:1;stroke-linecap:round;stroke-linejoin:round;stroke-miterlimit:4;stroke-opacity:1;stroke-dasharray:none;stroke-dashoffset:0;marker:none;visibility:visible;display:inline;overflow:visible;enable-background:accumulate"
         d="m 248.75006,100.79343 11.11168,0.25254 -2.0203,13.13198 -9.59645,-0.25254 0.50507,-13.13198 z"
         id="path2928"
         transform="translate(99.25,720.73877)" />
      <path
         style="color:#000000;fill:#e3f4d7;fill-opacity:1;fill-rule:nonzero;stroke:#5aa02c;stroke-width:1;stroke-linecap:round;stroke-linejoin:round;stroke-miterlimit:4;stroke-opacity:1;stroke-dasharray:none;stroke-dashoffset:0;marker:none;visibility:visible;display:inline;overflow:visible;enable-background:accumulate"
         d="m 283.34779,103.31881 -0.25254,13.13198 8.08122,-0.50507 1.26269,-12.62691 -9.09137,0 z"
         id="path2930"
         transform="translate(99.25,720.73877)" />
    </g>
    <g
       id="g3918"
       s2p-scene-id="5"
       transform="matrix(2.6097272,0,0,2.6097272,-159.76542,-1535.4579)">
      <rect
         y="852.36218"
         x="320"
         height="100"
         width="100"
         id="rect3695"
         style="color:#000000;fill:none;stroke:#000000;stroke-width:1.5;stroke-linecap:square;stroke-linejoin:round;stroke-miterlimit:4;stroke-opacity:1;stroke-dasharray:none;stroke-dashoffset:0;marker:none;visibility:visible;display:inline;overflow:visible;enable-background:accumulate" />
      <path
         style="color:#000000;fill:none;stroke:#000000;stroke-width:1;stroke-linecap:butt;stroke-linejoin:miter;stroke-miterlimit:4;stroke-opacity:1;stroke-dasharray:none;stroke-dashoffset:0;marker:none;visibility:visible;display:inline;overflow:visible;enable-background:accumulate"
         d="m 322.49371,891.23273 c 8.84113,-0.007 17.41446,2.84185 25.18564,6.86321 4.10696,1.40201 8.52693,2.7747 11.48891,6.14029 2.34346,9.90477 1.94636,20.17794 1.11985,30.23238 0.54444,5.8188 7.16389,6.37522 11.4592,4.57079 7.01468,-0.69829 14.10153,-0.70047 21.13938,-0.45544 6.94071,0.60902 13.89297,1.06902 20.86273,0.87373 1.90824,0.0324 3.81662,0.10451 5.71893,0.2623"
         id="path2952" />
      <path
         sodipodi:type="arc"
         style="color:#000000;fill:#e3f4d7;fill-opacity:1;fill-rule:nonzero;stroke:#5aa02c;stroke-width:1;stroke-linecap:round;stroke-linejoin:round;stroke-miterlimit:4;stroke-opacity:1;stroke-dasharray:none;stroke-dashoffset:0;marker:none;visibility:visible;display:inline;overflow:visible;enable-background:accumulate"
         id="path2967"
         sodipodi:cx="238.396"
         sodipodi:cy="166.95842"
         sodipodi:rx="4.7982244"
         sodipodi:ry="4.7982244"
         d="m 243.19422,166.95842 c 0,2.64999 -2.14824,4.79822 -4.79822,4.79822 -2.64999,0 -4.79823,-2.14823 -4.79823,-4.79822 0,-2.64999 2.14824,-4.79822 4.79823,-4.79822 2.64998,0 4.79822,2.14823 4.79822,4.79822 z"
         transform="translate(105.05837,723.01162)" />
      <path
         style="color:#000000;fill:#e3f4d7;fill-opacity:1;fill-rule:nonzero;stroke:#5aa02c;stroke-width:1;stroke-linecap:round;stroke-linejoin:round;stroke-miterlimit:4;stroke-opacity:1;stroke-dasharray:none;stroke-dashoffset:0;marker:none;visibility:visible;display:inline;overflow:visible;enable-background:accumulate"
         d="m 264.40743,207.8696 9.34391,0.25254 -0.25254,8.58629 -8.83883,0.25254 -0.25254,-9.09137 z"
         id="path2969"
         transform="translate(99.25,720.73877)" />
      <path
         style="color:#000000;fill:#e3f4d7;fill-opacity:1;fill-rule:nonzero;stroke:#5aa02c;stroke-width:1;stroke-linecap:round;stroke-linejoin:round;stroke-miterlimit:4;stroke-opacity:1;stroke-dasharray:none;stroke-dashoffset:0;marker:none;visibility:visible;display:inline;overflow:visible;enable-background:accumulate"
         d="m 305.06607,209.63737 -0.25254,8.08122 10.35406,0.25254 -1.01015,-8.08123 -9.09137,-0.25253 z"
         id="path2971"
         transform="translate(99.25,720.73877)" />
    </g>
    <g
       id="g3925"
       s2p-scene-id="6"
       transform="matrix(2.6097272,0,0,2.6097272,-159.76542,-1535.4579)">
      <rect
         y="752.36218"
         x="420"
         height="100"
         width="100"
         id="rect3693"
         style="color:#000000;fill:none;stroke:#000000;stroke-width:1.5;stroke-linecap:square;stroke-linejoin:round;stroke-miterlimit:4;stroke-opacity:1;stroke-dasharray:none;stroke-dashoffset:0;marker:none;visibility:visible;display:inline;overflow:visible;enable-background:accumulate" />
      <path
         style="color:#000000;fill:none;stroke:#000000;stroke-width:1;stroke-linecap:butt;stroke-linejoin:miter;stroke-miterlimit:4;stroke-opacity:1;stroke-dasharray:none;stroke-dashoffset:0;marker:none;visibility:visible;display:inline;overflow:visible;enable-background:accumulate"
         d="m 420.73105,834.41165 c 6.19879,-1.35734 12.84082,-0.7499 18.56588,2.02018 9.74466,2.30036 19.77222,-0.88818 29.57359,0.94744 8.0674,1.05949 16.2203,2.60647 24.3686,1.4316 6.17295,-0.39405 12.31164,0.57529 18.37414,1.551 2.5349,0.11101 5.07957,-0.18249 7.60766,0.11075"
         id="path2932" />
      <path
         sodipodi:type="arc"
         style="color:#000000;fill:#e3f4d7;fill-opacity:1;fill-rule:nonzero;stroke:#5aa02c;stroke-width:1;stroke-linecap:round;stroke-linejoin:round;stroke-miterlimit:4;stroke-opacity:1;stroke-dasharray:none;stroke-dashoffset:0;marker:none;visibility:visible;display:inline;overflow:visible;enable-background:accumulate"
         id="path2946"
         sodipodi:cx="367.19046"
         sodipodi:cy="83.873375"
         sodipodi:rx="5.0507627"
         sodipodi:ry="5.0507627"
         d="m 372.24122,83.873375 c 0,2.789459 -2.2613,5.050763 -5.05076,5.050763 -2.78946,0 -5.05076,-2.261304 -5.05076,-5.050763 0,-2.789459 2.2613,-5.050763 5.05076,-5.050763 2.78946,0 5.05076,2.261304 5.05076,5.050763 z"
         transform="translate(99.25,720.73877)" />
      <path
         style="color:#000000;fill:#e3f4d7;fill-opacity:1;fill-rule:nonzero;stroke:#5aa02c;stroke-width:1;stroke-linecap:round;stroke-linejoin:round;stroke-miterlimit:4;stroke-opacity:1;stroke-dasharray:none;stroke-dashoffset:0;marker:none;visibility:visible;display:inline;overflow:visible;enable-background:accumulate"
         d="m 341.6841,115.44064 9.34391,-12.37437 5.3033,12.37437 -14.64721,0 z"
         id="path2948"
         transform="translate(99.25,720.73877)" />
      <path
         style="color:#000000;fill:#e3f4d7;fill-opacity:1;fill-rule:nonzero;stroke:#5aa02c;stroke-width:1;stroke-linecap:round;stroke-linejoin:round;stroke-miterlimit:4;stroke-opacity:1;stroke-dasharray:none;stroke-dashoffset:0;marker:none;visibility:visible;display:inline;overflow:visible;enable-background:accumulate"
         d="m 387.14096,105.33912 -4.29315,11.36421 11.86929,0.50508 -7.57614,-11.86929 z"
         id="path2950"
         transform="translate(99.25,720.73877)" />
    </g>
    <g
       id="g3931"
       s2p-scene-id="7"
       transform="matrix(2.6097272,0,0,2.6097272,-159.76542,-1535.4579)">
      <rect
         style="color:#000000;fill:none;stroke:#000000;stroke-width:1.5;stroke-linecap:square;stroke-linejoin:round;stroke-miterlimit:4;stroke-opacity:1;stroke-dasharray:none;stroke-dashoffset:0;marker:none;visibility:visible;display:inline;overflow:visible;enable-background:accumulate"
         id="rect3697"
         width="100"
         height="100"
         x="420"
         y="852.36218" />
      <path
         style="color:#000000;fill:none;stroke:#000000;stroke-width:1;stroke-linecap:butt;stroke-linejoin:miter;stroke-miterlimit:4;stroke-opacity:1;stroke-dasharray:none;stroke-dashoffset:0;marker:none;visibility:visible;display:inline;overflow:visible;enable-background:accumulate"
         d="m 420.98358,930.62867 c 12.43826,0.69607 24.8645,-0.96859 37.30447,-0.44834 4.4683,1.06711 9.15703,0.38668 13.6595,1.26342 6.19225,0.64243 12.4023,0.4826 18.60515,0.14444 8.29345,-0.4675 16.58,0.11439 24.86153,0.48585 1.35271,0.0403 2.7059,0.0665 4.05923,0.0699"
         id="path2973" />
      <path
         style="color:#000000;fill:#e3f4d7;fill-opacity:1;fill-rule:nonzero;stroke:#5aa02c;stroke-width:1;stroke-linecap:round;stroke-linejoin:round;stroke-miterlimit:4;stroke-opacity:1;stroke-dasharray:none;stroke-dashoffset:0;marker:none;visibility:visible;display:inline;overflow:visible;enable-background:accumulate"
         d="m 347.49247,195.74777 0,12.37437 56.06347,1.51523 0.75761,-13.13199 -56.82108,-0.75761 z"
         id="path2982"
         transform="translate(99.25,720.73877)" />
      <path
         style="color:#000000;fill:#e3f4d7;fill-opacity:1;fill-rule:nonzero;stroke:#5aa02c;stroke-width:1;stroke-linecap:round;stroke-linejoin:round;stroke-miterlimit:4;stroke-opacity:1;stroke-dasharray:none;stroke-dashoffset:0;marker:none;visibility:visible;display:inline;overflow:visible;enable-background:accumulate"
         d="m 350.52293,184.13101 -0.50508,10.60661 9.34392,-0.25254 0.25253,-10.35407 -9.09137,0 z"
         id="path2984"
         transform="translate(99.25,720.73877)" />
      <path
         style="color:#000000;fill:#e3f4d7;fill-opacity:1;fill-rule:nonzero;stroke:#5aa02c;stroke-width:1;stroke-linecap:round;stroke-linejoin:round;stroke-miterlimit:4;stroke-opacity:1;stroke-dasharray:none;stroke-dashoffset:0;marker:none;visibility:visible;display:inline;overflow:visible;enable-background:accumulate"
         d="m 392.19172,185.64624 -0.75761,9.59645 9.59645,-0.25254 1.01015,-10.10152 -9.84899,0.75761 z"
         id="path2986"
         transform="translate(99.25,720.73877)" />
      <path
         sodipodi:type="arc"
         style="color:#000000;fill:#e3f4d7;fill-opacity:1;fill-rule:nonzero;stroke:#5aa02c;stroke-width:1;stroke-linecap:round;stroke-linejoin:round;stroke-miterlimit:4;stroke-opacity:1;stroke-dasharray:none;stroke-dashoffset:0;marker:none;visibility:visible;display:inline;overflow:visible;enable-background:accumulate"
         id="path2988"
         sodipodi:cx="381.08005"
         sodipodi:cy="147.0079"
         sodipodi:rx="4.7982244"
         sodipodi:ry="4.7982244"
         d="m 385.87827,147.0079 c 0,2.64999 -2.14824,4.79823 -4.79822,4.79823 -2.64999,0 -4.79823,-2.14824 -4.79823,-4.79823 0,-2.64998 2.14824,-4.79822 4.79823,-4.79822 2.64998,0 4.79822,2.14824 4.79822,4.79822 z"
         transform="translate(99.25,720.73877)" />
    </g>
  </g>
</svg>
