<?xml version="1.0" encoding="UTF-8" standalone="no"?>
<!-- Created with Inkscape (http://www.inkscape.org/) -->

<svg
   xmlns:dc="http://purl.org/dc/elements/1.1/"
   xmlns:cc="http://creativecommons.org/ns#"
   xmlns:rdf="http://www.w3.org/1999/02/22-rdf-syntax-ns#"
   xmlns:svg="http://www.w3.org/2000/svg"
   xmlns="http://www.w3.org/2000/svg"
   xmlns:sodipodi="http://sodipodi.sourceforge.net/DTD/sodipodi-0.dtd"
   xmlns:inkscape="http://www.inkscape.org/namespaces/inkscape"
   width="1100"
   height="530"
   id="svg2885"
   version="1.1"
   inkscape:version="0.47 r22583"
   sodipodi:docname="pbp23.svg">
  <defs
     id="defs2887">
    <inkscape:perspective
       sodipodi:type="inkscape:persp3d"
       inkscape:vp_x="0 : 526.18109 : 1"
       inkscape:vp_y="0 : 1000 : 0"
       inkscape:vp_z="744.09448 : 526.18109 : 1"
       inkscape:persp3d-origin="372.04724 : 350.78739 : 1"
       id="perspective2893" />
    <inkscape:perspective
       id="perspective2903"
       inkscape:persp3d-origin="0.5 : 0.33333333 : 1"
       inkscape:vp_z="1 : 0.5 : 1"
       inkscape:vp_y="0 : 1000 : 0"
       inkscape:vp_x="0 : 0.5 : 1"
       sodipodi:type="inkscape:persp3d" />
    <inkscape:perspective
       id="perspective3722"
       inkscape:persp3d-origin="0.5 : 0.33333333 : 1"
       inkscape:vp_z="1 : 0.5 : 1"
       inkscape:vp_y="0 : 1000 : 0"
       inkscape:vp_x="0 : 0.5 : 1"
       sodipodi:type="inkscape:persp3d" />
    <inkscape:perspective
       id="perspective3773"
       inkscape:persp3d-origin="0.5 : 0.33333333 : 1"
       inkscape:vp_z="1 : 0.5 : 1"
       inkscape:vp_y="0 : 1000 : 0"
       inkscape:vp_x="0 : 0.5 : 1"
       sodipodi:type="inkscape:persp3d" />
    <inkscape:perspective
       id="perspective3773-1"
       inkscape:persp3d-origin="0.5 : 0.33333333 : 1"
       inkscape:vp_z="1 : 0.5 : 1"
       inkscape:vp_y="0 : 1000 : 0"
       inkscape:vp_x="0 : 0.5 : 1"
       sodipodi:type="inkscape:persp3d" />
    <inkscape:perspective
       id="perspective3858"
       inkscape:persp3d-origin="0.5 : 0.33333333 : 1"
       inkscape:vp_z="1 : 0.5 : 1"
       inkscape:vp_y="0 : 1000 : 0"
       inkscape:vp_x="0 : 0.5 : 1"
       sodipodi:type="inkscape:persp3d" />
    <inkscape:perspective
       id="perspective3858-4"
       inkscape:persp3d-origin="0.5 : 0.33333333 : 1"
       inkscape:vp_z="1 : 0.5 : 1"
       inkscape:vp_y="0 : 1000 : 0"
       inkscape:vp_x="0 : 0.5 : 1"
       sodipodi:type="inkscape:persp3d" />
    <inkscape:perspective
       id="perspective4155"
       inkscape:persp3d-origin="0.5 : 0.33333333 : 1"
       inkscape:vp_z="1 : 0.5 : 1"
       inkscape:vp_y="0 : 1000 : 0"
       inkscape:vp_x="0 : 0.5 : 1"
       sodipodi:type="inkscape:persp3d" />
    <inkscape:perspective
       id="perspective2926"
       inkscape:persp3d-origin="0.5 : 0.33333333 : 1"
       inkscape:vp_z="1 : 0.5 : 1"
       inkscape:vp_y="0 : 1000 : 0"
       inkscape:vp_x="0 : 0.5 : 1"
       sodipodi:type="inkscape:persp3d" />
  </defs>
  <sodipodi:namedview
     id="base"
     pagecolor="#ffffff"
     bordercolor="#666666"
     borderopacity="1.0"
     inkscape:pageopacity="0.0"
     inkscape:pageshadow="2"
     inkscape:zoom="1.4"
     inkscape:cx="296.64153"
     inkscape:cy="166.61651"
     inkscape:document-units="px"
     inkscape:current-layer="layer1"
     showgrid="true"
     inkscape:snap-global="false"
     inkscape:window-width="1920"
     inkscape:window-height="1125"
     inkscape:window-x="0"
     inkscape:window-y="24"
     inkscape:window-maximized="1">
    <inkscape:grid
       type="xygrid"
       id="grid3683"
       empspacing="10"
       visible="true"
       enabled="false"
       snapvisiblegridlinesonly="true"
       spacingx="10px"
       spacingy="10px" />
  </sodipodi:namedview>
  <metadata
     id="metadata2890">
    <rdf:RDF>
      <cc:Work
         rdf:about="">
        <dc:format>image/svg+xml</dc:format>
        <dc:type
           rdf:resource="http://purl.org/dc/dcmitype/StillImage" />
        <dc:title />
      </cc:Work>
    </rdf:RDF>
  </metadata>
  <g
     inkscape:label="Layer 1"
     inkscape:groupmode="layer"
     id="layer1"
     transform="translate(-99.250005,-423.86217)">
    <path
       style="color:#000000;fill:none;stroke:#000000;stroke-width:7.82918167;stroke-linecap:square;stroke-linejoin:round;stroke-miterlimit:4;stroke-opacity:1;stroke-dasharray:none;stroke-dashoffset:0;marker:none;visibility:visible;display:inline;overflow:visible;enable-background:accumulate"
       d="m 649.25,428.00216 0,521.94543"
       id="path3701" />
    <g
       id="g3887"
       s2p-scene-id="0"
       transform="matrix(2.6097272,0,0,2.6097272,-159.76542,-1535.4579)">
      <rect
         style="color:#000000;fill:none;stroke:#000000;stroke-width:1.5;stroke-linecap:square;stroke-linejoin:round;stroke-miterlimit:4;stroke-opacity:1;stroke-dasharray:none;stroke-dashoffset:0;marker:none;visibility:visible;display:inline;overflow:visible;enable-background:accumulate"
         id="rect3685"
         width="100"
         height="100"
         x="100"
         y="752.36218" />
      <path
         style="color:#000000;fill:none;stroke:#000000;stroke-width:1;stroke-linecap:butt;stroke-linejoin:miter;stroke-miterlimit:4;stroke-opacity:1;stroke-dasharray:none;stroke-dashoffset:0;marker:none;visibility:visible;display:inline;overflow:visible;enable-background:accumulate"
         d="m 100.76523,828.35073 c 11.65767,-1.18392 23.36466,0.34352 35.03523,0.17278 5.97778,0.89912 12.0934,1.5796 18.07687,0.36338 8.27705,-0.77045 16.67179,-1.07572 24.91326,0.22377 6.58248,-0.49182 13.15093,0.75869 19.72342,0.64825 0.42358,0.0885 0.84141,0.20639 1.24617,0.35989"
         id="path2932" />
      <path
         style="color:#000000;fill:#e3f4d7;fill-opacity:1;fill-rule:nonzero;stroke:#5aa02c;stroke-width:1;stroke-linecap:round;stroke-linejoin:round;stroke-miterlimit:4;stroke-opacity:1;stroke-dasharray:none;stroke-dashoffset:0;marker:none;visibility:visible;display:inline;overflow:visible;enable-background:accumulate"
         d="m 31.062191,95.995206 -0.252539,10.859144 26.516505,-0.25254 0.757614,-10.101528 -27.02158,-0.505076 z"
         id="path2942"
         transform="translate(99.25,720.73877)" />
      <path
         style="color:#000000;fill:#e3f4d7;fill-opacity:1;fill-rule:nonzero;stroke:#5aa02c;stroke-width:1;stroke-linecap:round;stroke-linejoin:round;stroke-miterlimit:4;stroke-opacity:1;stroke-dasharray:none;stroke-dashoffset:0;marker:none;visibility:visible;display:inline;overflow:visible;enable-background:accumulate"
         d="m 36.870568,87.913986 -0.505076,7.323605 16.414978,1e-6 0,-6.313454 -15.909902,-1.010152 z"
         id="path2944"
         transform="translate(99.25,720.73877)"
         sodipodi:nodetypes="ccccc" />
      <path
         style="color:#000000;fill:#e3f4d7;fill-opacity:1;fill-rule:nonzero;stroke:#5aa02c;stroke-width:1;stroke-linecap:round;stroke-linejoin:round;stroke-miterlimit:4;stroke-opacity:1;stroke-dasharray:none;stroke-dashoffset:0;marker:none;visibility:visible;display:inline;overflow:visible;enable-background:accumulate"
         d="m 41.92133,79.832765 -0.252538,7.323606 7.828682,0.252538 -0.252538,-7.323606 -7.323606,-0.252538 z"
         id="path2946"
         transform="translate(99.25,720.73877)" />
    </g>
    <g
       id="g3893"
       s2p-scene-id="1"
       transform="matrix(2.6097272,0,0,2.6097272,-159.76542,-1535.4579)">
      <rect
         y="852.36218"
         x="100"
         height="100"
         width="100"
         id="rect2909"
         style="color:#000000;fill:none;stroke:#000000;stroke-width:1.5;stroke-linecap:square;stroke-linejoin:round;stroke-miterlimit:4;stroke-opacity:1;stroke-dasharray:none;stroke-dashoffset:0;marker:none;visibility:visible;display:inline;overflow:visible;enable-background:accumulate" />
      <path
         style="color:#000000;fill:none;stroke:#000000;stroke-width:1;stroke-linecap:butt;stroke-linejoin:miter;stroke-miterlimit:4;stroke-opacity:1;stroke-dasharray:none;stroke-dashoffset:0;marker:none;visibility:visible;display:inline;overflow:visible;enable-background:accumulate"
         d="m 100.26016,910.17308 c 5.76286,5.35216 14.09824,10.1442 20.112,15.15289 10.40933,5.11294 22.28918,4.7617 33.43499,7.01441 11.81337,1.75926 23.76778,2.5778 35.70765,2.37459 3.3232,0.22473 6.68338,0.47574 9.99284,-0.0454"
         id="path2955"
         sodipodi:nodetypes="ccccc" />
      <path
         style="color:#000000;fill:#e3f4d7;fill-opacity:1;fill-rule:nonzero;stroke:#5aa02c;stroke-width:1;stroke-linecap:round;stroke-linejoin:round;stroke-miterlimit:4;stroke-opacity:1;stroke-dasharray:none;stroke-dashoffset:0;marker:none;visibility:visible;display:inline;overflow:visible;enable-background:accumulate"
         d="m 22.475894,192.46477 -4.545686,8.33376 9.343911,4.04061 4.04061,-8.33376 -8.838835,-4.04061 z"
         id="path2973"
         transform="translate(99.25,720.73877)" />
    </g>
    <g
       id="g3899"
       s2p-scene-id="2"
       transform="matrix(2.6097272,0,0,2.6097272,-159.76542,-1535.4579)">
      <rect
         y="752.36218"
         x="200"
         height="100"
         width="100"
         id="rect3687"
         style="color:#000000;fill:none;stroke:#000000;stroke-width:1.5;stroke-linecap:square;stroke-linejoin:round;stroke-miterlimit:4;stroke-opacity:1;stroke-dasharray:none;stroke-dashoffset:0;marker:none;visibility:visible;display:inline;overflow:visible;enable-background:accumulate" />
      <path
         style="color:#000000;fill:none;stroke:#000000;stroke-width:1;stroke-linecap:butt;stroke-linejoin:miter;stroke-miterlimit:4;stroke-opacity:1;stroke-dasharray:none;stroke-dashoffset:0;marker:none;visibility:visible;display:inline;overflow:visible;enable-background:accumulate"
         d="m 200.51779,832.89642 c 2.96926,-0.32983 5.71419,-1.33213 8.57611,-2.13387 3.51737,-1.08776 6.18579,-3.86024 7.85917,-7.04122 2.34377,-3.53704 4.75707,-8.54774 9.71316,-8.41832 4.66113,0.53362 6.07292,5.76094 9.20906,8.47792 2.43665,2.97244 6.89503,3.96089 10.04864,1.55801 3.43237,-2.19698 5.70404,-5.72045 7.66147,-9.17177 2.75982,-3.85411 8.37593,-1.8127 9.39246,2.36127 2.39111,4.8774 4.30425,11.05962 9.87214,13.14648 4.5927,0.76342 8.89847,-1.87315 12.80699,-3.95668 3.90619,-2.48596 7.99123,-4.93927 11.1514,-8.3525 0.66304,-0.80762 2.27325,-3.19174 2.70435,-4.14699"
         id="path2948"
         sodipodi:nodetypes="cccccccccccc" />
      <path
         sodipodi:type="arc"
         style="color:#000000;fill:#e3f4d7;fill-opacity:1;fill-rule:nonzero;stroke:#5aa02c;stroke-width:1;stroke-linecap:round;stroke-linejoin:round;stroke-miterlimit:4;stroke-opacity:1;stroke-dasharray:none;stroke-dashoffset:0;marker:none;visibility:visible;display:inline;overflow:visible;enable-background:accumulate"
         id="path2953"
         sodipodi:cx="187.63583"
         sodipodi:cy="98.015511"
         sodipodi:rx="4.5456862"
         sodipodi:ry="4.5456862"
         d="m 192.18152,98.015511 c 0,2.510509 -2.03517,4.545689 -4.54569,4.545689 -2.51051,0 -4.54568,-2.03518 -4.54568,-4.545689 0,-2.510514 2.03517,-4.545687 4.54568,-4.545687 2.51052,0 4.54569,2.035173 4.54569,4.545687 z"
         transform="translate(101.52284,720.99131)" />
    </g>
    <g
       id="g3905"
       s2p-scene-id="3"
       transform="matrix(2.6097272,0,0,2.6097272,-159.76542,-1535.4579)">
      <rect
         style="color:#000000;fill:none;stroke:#000000;stroke-width:1.5;stroke-linecap:square;stroke-linejoin:round;stroke-miterlimit:4;stroke-opacity:1;stroke-dasharray:none;stroke-dashoffset:0;marker:none;visibility:visible;display:inline;overflow:visible;enable-background:accumulate"
         id="rect3689"
         width="100"
         height="100"
         x="200"
         y="852.36218" />
      <path
         style="color:#000000;fill:none;stroke:#000000;stroke-width:1;stroke-linecap:butt;stroke-linejoin:miter;stroke-miterlimit:4;stroke-opacity:1;stroke-dasharray:none;stroke-dashoffset:0;marker:none;visibility:visible;display:inline;overflow:visible;enable-background:accumulate"
         d="m 200.77033,918.50684 c 6.01204,6.95325 15.09522,9.75413 22.90895,14.08411 6.53922,3.08445 13.99142,4.87215 21.17942,3.2976 6.67949,-0.32062 13.38311,-1.24347 19.6048,-3.81682 7.00657,-2.46057 13.573,-6.08213 19.45134,-10.60034 4.7956,-2.74357 9.31746,-5.92765 13.97064,-8.88571 l 0.42914,-0.20652 0.44051,-0.18577"
         id="path2975" />
      <path
         sodipodi:type="arc"
         style="color:#000000;fill:#e3f4d7;fill-opacity:1;fill-rule:nonzero;stroke:#5aa02c;stroke-width:1;stroke-linecap:round;stroke-linejoin:round;stroke-miterlimit:4;stroke-opacity:1;stroke-dasharray:none;stroke-dashoffset:0;marker:none;visibility:visible;display:inline;overflow:visible;enable-background:accumulate"
         id="path2984"
         sodipodi:cx="110.35916"
         sodipodi:cy="198.02061"
         sodipodi:rx="5.3033009"
         sodipodi:ry="5.3033009"
         d="m 115.66246,198.02061 c 0,2.92894 -2.37437,5.30331 -5.3033,5.30331 -2.92893,0 -5.3033,-2.37437 -5.3033,-5.30331 0,-2.92893 2.37437,-5.3033 5.3033,-5.3033 2.92893,0 5.3033,2.37437 5.3033,5.3033 z"
         transform="translate(99.755076,720.73877)" />
    </g>
    <g
       id="g3912"
       s2p-scene-id="4"
       transform="matrix(2.6097272,0,0,2.6097272,-159.76542,-1535.4579)">
      <rect
         style="color:#000000;fill:none;stroke:#000000;stroke-width:1.5;stroke-linecap:square;stroke-linejoin:round;stroke-miterlimit:4;stroke-opacity:1;stroke-dasharray:none;stroke-dashoffset:0;marker:none;visibility:visible;display:inline;overflow:visible;enable-background:accumulate"
         id="rect3691"
         width="100"
         height="100"
         x="320"
         y="752.36218" />
      <path
         style="color:#000000;fill:none;stroke:#000000;stroke-width:1;stroke-linecap:butt;stroke-linejoin:miter;stroke-miterlimit:4;stroke-opacity:1;stroke-dasharray:none;stroke-dashoffset:0;marker:none;visibility:visible;display:inline;overflow:visible;enable-background:accumulate"
         d="m 319.96833,836.93703 c 8.62287,-0.53652 18.86392,-0.74148 27.39884,0.74173 18.58341,0.50134 41.67027,-3.77496 60.26107,-1.02292 4.28236,0.4156 8.56806,-0.247 12.85027,-0.22372"
         id="path2986"
         sodipodi:nodetypes="cccc" />
      <path
         style="color:#000000;fill:#e3f4d7;fill-opacity:1;fill-rule:nonzero;stroke:#5aa02c;stroke-width:1;stroke-linecap:round;stroke-linejoin:round;stroke-miterlimit:4;stroke-opacity:1;stroke-dasharray:none;stroke-dashoffset:0;marker:none;visibility:visible;display:inline;overflow:visible;enable-background:accumulate"
         d="m 258.59905,79.327689 2.52538,12.626907 13.13198,-2.272843 -1.26269,-12.374369 -14.39467,2.020305 z"
         id="path2996"
         transform="translate(99.25,720.73877)" />
    </g>
    <g
       id="g3918"
       s2p-scene-id="5"
       transform="matrix(2.6097272,0,0,2.6097272,-159.76542,-1535.4579)">
      <rect
         y="852.36218"
         x="320"
         height="100"
         width="100"
         id="rect3695"
         style="color:#000000;fill:none;stroke:#000000;stroke-width:1.5;stroke-linecap:square;stroke-linejoin:round;stroke-miterlimit:4;stroke-opacity:1;stroke-dasharray:none;stroke-dashoffset:0;marker:none;visibility:visible;display:inline;overflow:visible;enable-background:accumulate" />
      <path
         style="color:#000000;fill:none;stroke:#000000;stroke-width:1;stroke-linecap:butt;stroke-linejoin:miter;stroke-miterlimit:4;stroke-opacity:1;stroke-dasharray:none;stroke-dashoffset:0;marker:none;visibility:visible;display:inline;overflow:visible;enable-background:accumulate"
         d="m 221.72848,181.60563 c -0.33672,-0.25253 -1.43105,-0.75761 -1.01015,-0.75761 21.81257,12.6576 43.15179,27.06266 69.19545,27.77919 0.3559,-9.66156 -1.46672,-19.25578 0,-28.78934 10.02442,0.92704 20.9306,1.72626 30.80965,0.25253"
         id="path2998"
         transform="translate(99.25,720.73877)"
         sodipodi:nodetypes="ccccc" />
      <path
         sodipodi:type="arc"
         style="color:#000000;fill:#e3f4d7;fill-opacity:1;fill-rule:nonzero;stroke:#5aa02c;stroke-width:1;stroke-linecap:round;stroke-linejoin:round;stroke-miterlimit:4;stroke-opacity:1;stroke-dasharray:none;stroke-dashoffset:0;marker:none;visibility:visible;display:inline;overflow:visible;enable-background:accumulate"
         id="path3000"
         sodipodi:cx="240.16377"
         sodipodi:cy="184.38356"
         sodipodi:rx="6.060915"
         sodipodi:ry="6.060915"
         d="m 246.22469,184.38356 c 0,3.34735 -2.71357,6.06092 -6.06092,6.06092 -3.34735,0 -6.06091,-2.71357 -6.06091,-6.06092 0,-3.34735 2.71356,-6.06091 6.06091,-6.06091 3.34735,0 6.06092,2.71356 6.06092,6.06091 z"
         transform="translate(99.25,720.73877)" />
    </g>
    <g
       id="g3925"
       s2p-scene-id="6"
       transform="matrix(2.6097272,0,0,2.6097272,-159.76542,-1535.4579)">
      <rect
         y="752.36218"
         x="420"
         height="100"
         width="100"
         id="rect3693"
         style="color:#000000;fill:none;stroke:#000000;stroke-width:1.5;stroke-linecap:square;stroke-linejoin:round;stroke-miterlimit:4;stroke-opacity:1;stroke-dasharray:none;stroke-dashoffset:0;marker:none;visibility:visible;display:inline;overflow:visible;enable-background:accumulate" />
      <path
         style="color:#000000;fill:none;stroke:#000000;stroke-width:1;stroke-linecap:butt;stroke-linejoin:miter;stroke-miterlimit:4;stroke-opacity:1;stroke-dasharray:none;stroke-dashoffset:0;marker:none;visibility:visible;display:inline;overflow:visible;enable-background:accumulate"
         d="m 320.97597,85.641142 c 12.40979,-0.813781 26.68739,-0.448247 39.14341,-1.767766 0.29821,11.803774 -2.41903,14.128917 -1.26269,31.314724 17.77819,1.22216 46.89051,0.90318 61.87184,-2.27284"
         id="path3002"
         transform="translate(99.25,720.73877)"
         sodipodi:nodetypes="cccc" />
      <path
         style="color:#000000;fill:#e3f4d7;fill-opacity:1;fill-rule:nonzero;stroke:#5aa02c;stroke-width:1;stroke-linecap:round;stroke-linejoin:round;stroke-miterlimit:4;stroke-opacity:1;stroke-dasharray:none;stroke-dashoffset:0;marker:none;visibility:visible;display:inline;overflow:visible;enable-background:accumulate"
         d="m 356.83638,74.024388 -0.50507,9.343911 12.6269,-0.252538 0,-9.091373 -12.12183,0 z"
         id="path3004"
         transform="translate(99.25,720.73877)" />
    </g>
    <g
       id="g3931"
       s2p-scene-id="7"
       transform="matrix(2.6097272,0,0,2.6097272,-159.76542,-1535.4579)">
      <rect
         style="color:#000000;fill:none;stroke:#000000;stroke-width:1.5;stroke-linecap:square;stroke-linejoin:round;stroke-miterlimit:4;stroke-opacity:1;stroke-dasharray:none;stroke-dashoffset:0;marker:none;visibility:visible;display:inline;overflow:visible;enable-background:accumulate"
         id="rect3697"
         width="100"
         height="100"
         x="420"
         y="852.36218" />
      <path
         style="color:#000000;fill:none;stroke:#000000;stroke-width:1;stroke-linecap:butt;stroke-linejoin:miter;stroke-miterlimit:4;stroke-opacity:1;stroke-dasharray:none;stroke-dashoffset:0;marker:none;visibility:visible;display:inline;overflow:visible;enable-background:accumulate"
         d="m 420.73105,932.90152 c 14.01054,0.27615 27.97919,1.68935 41.99791,1.68617 7.90503,-1.43985 15.98824,-0.56216 23.84388,0.68578 5.54377,-0.0279 11.16283,-1.10703 16.64024,0.18404 4.41463,0.10983 9.0056,-0.90099 13.26341,0.7095 1.17635,0.0596 2.32468,-0.42165 3.50204,-0.23503"
         id="path3006" />
      <path
         sodipodi:type="arc"
         style="color:#000000;fill:#e3f4d7;fill-opacity:1;fill-rule:nonzero;stroke:#5aa02c;stroke-width:1;stroke-linecap:round;stroke-linejoin:round;stroke-miterlimit:4;stroke-opacity:1;stroke-dasharray:none;stroke-dashoffset:0;marker:none;visibility:visible;display:inline;overflow:visible;enable-background:accumulate"
         id="path3011"
         sodipodi:cx="365.42267"
         sodipodi:cy="175.03964"
         sodipodi:rx="4.2931485"
         sodipodi:ry="4.2931485"
         d="m 369.71582,175.03964 c 0,2.37104 -1.92211,4.29315 -4.29315,4.29315 -2.37104,0 -4.29315,-1.92211 -4.29315,-4.29315 0,-2.37104 1.92211,-4.29315 4.29315,-4.29315 2.37104,0 4.29315,1.92211 4.29315,4.29315 z"
         transform="translate(103.29061,725.03192)" />
      <path
         sodipodi:type="arc"
         style="color:#000000;fill:#e3f4d7;fill-opacity:1;fill-rule:nonzero;stroke:#5aa02c;stroke-width:1;stroke-linecap:round;stroke-linejoin:round;stroke-miterlimit:4;stroke-opacity:1;stroke-dasharray:none;stroke-dashoffset:0;marker:none;visibility:visible;display:inline;overflow:visible;enable-background:accumulate"
         id="path3013"
         sodipodi:cx="360.37192"
         sodipodi:cy="205.09167"
         sodipodi:rx="6.8185296"
         sodipodi:ry="6.8185296"
         d="m 367.19045,205.09167 c 0,3.76577 -3.05276,6.81853 -6.81853,6.81853 -3.76577,0 -6.81853,-3.05276 -6.81853,-6.81853 0,-3.76577 3.05276,-6.81852 6.81853,-6.81852 3.76577,0 6.81853,3.05275 6.81853,6.81852 z"
         transform="translate(98.744924,722.00146)" />
    </g>
  </g>
</svg>
