<?xml version="1.0" encoding="UTF-8" standalone="no"?>
<!-- Created with Inkscape (http://www.inkscape.org/) -->

<svg
   xmlns:dc="http://purl.org/dc/elements/1.1/"
   xmlns:cc="http://creativecommons.org/ns#"
   xmlns:rdf="http://www.w3.org/1999/02/22-rdf-syntax-ns#"
   xmlns:svg="http://www.w3.org/2000/svg"
   xmlns="http://www.w3.org/2000/svg"
   xmlns:sodipodi="http://sodipodi.sourceforge.net/DTD/sodipodi-0.dtd"
   xmlns:inkscape="http://www.inkscape.org/namespaces/inkscape"
   width="1100"
   height="530"
   id="svg2885"
   version="1.1"
   inkscape:version="0.47 r22583"
   sodipodi:docname="pbp29.svg">
  <defs
     id="defs2887">
    <inkscape:perspective
       sodipodi:type="inkscape:persp3d"
       inkscape:vp_x="0 : 526.18109 : 1"
       inkscape:vp_y="0 : 1000 : 0"
       inkscape:vp_z="744.09448 : 526.18109 : 1"
       inkscape:persp3d-origin="372.04724 : 350.78739 : 1"
       id="perspective2893" />
    <inkscape:perspective
       id="perspective2903"
       inkscape:persp3d-origin="0.5 : 0.33333333 : 1"
       inkscape:vp_z="1 : 0.5 : 1"
       inkscape:vp_y="0 : 1000 : 0"
       inkscape:vp_x="0 : 0.5 : 1"
       sodipodi:type="inkscape:persp3d" />
    <inkscape:perspective
       id="perspective3722"
       inkscape:persp3d-origin="0.5 : 0.33333333 : 1"
       inkscape:vp_z="1 : 0.5 : 1"
       inkscape:vp_y="0 : 1000 : 0"
       inkscape:vp_x="0 : 0.5 : 1"
       sodipodi:type="inkscape:persp3d" />
    <inkscape:perspective
       id="perspective3773"
       inkscape:persp3d-origin="0.5 : 0.33333333 : 1"
       inkscape:vp_z="1 : 0.5 : 1"
       inkscape:vp_y="0 : 1000 : 0"
       inkscape:vp_x="0 : 0.5 : 1"
       sodipodi:type="inkscape:persp3d" />
    <inkscape:perspective
       id="perspective3773-1"
       inkscape:persp3d-origin="0.5 : 0.33333333 : 1"
       inkscape:vp_z="1 : 0.5 : 1"
       inkscape:vp_y="0 : 1000 : 0"
       inkscape:vp_x="0 : 0.5 : 1"
       sodipodi:type="inkscape:persp3d" />
    <inkscape:perspective
       id="perspective3858"
       inkscape:persp3d-origin="0.5 : 0.33333333 : 1"
       inkscape:vp_z="1 : 0.5 : 1"
       inkscape:vp_y="0 : 1000 : 0"
       inkscape:vp_x="0 : 0.5 : 1"
       sodipodi:type="inkscape:persp3d" />
    <inkscape:perspective
       id="perspective3858-4"
       inkscape:persp3d-origin="0.5 : 0.33333333 : 1"
       inkscape:vp_z="1 : 0.5 : 1"
       inkscape:vp_y="0 : 1000 : 0"
       inkscape:vp_x="0 : 0.5 : 1"
       sodipodi:type="inkscape:persp3d" />
    <inkscape:perspective
       id="perspective4155"
       inkscape:persp3d-origin="0.5 : 0.33333333 : 1"
       inkscape:vp_z="1 : 0.5 : 1"
       inkscape:vp_y="0 : 1000 : 0"
       inkscape:vp_x="0 : 0.5 : 1"
       sodipodi:type="inkscape:persp3d" />
    <inkscape:perspective
       id="perspective2847"
       inkscape:persp3d-origin="0.5 : 0.33333333 : 1"
       inkscape:vp_z="1 : 0.5 : 1"
       inkscape:vp_y="0 : 1000 : 0"
       inkscape:vp_x="0 : 0.5 : 1"
       sodipodi:type="inkscape:persp3d" />
  </defs>
  <sodipodi:namedview
     id="base"
     pagecolor="#ffffff"
     bordercolor="#666666"
     borderopacity="1.0"
     inkscape:pageopacity="0.0"
     inkscape:pageshadow="2"
     inkscape:zoom="1.2154538"
     inkscape:cx="305.56399"
     inkscape:cy="130.93938"
     inkscape:document-units="px"
     inkscape:current-layer="layer1"
     showgrid="true"
     inkscape:snap-global="false"
     inkscape:window-width="1920"
     inkscape:window-height="1125"
     inkscape:window-x="0"
     inkscape:window-y="24"
     inkscape:window-maximized="1">
    <inkscape:grid
       type="xygrid"
       id="grid3683"
       empspacing="10"
       visible="true"
       enabled="false"
       snapvisiblegridlinesonly="true"
       spacingx="10px"
       spacingy="10px" />
  </sodipodi:namedview>
  <metadata
     id="metadata2890">
    <rdf:RDF>
      <cc:Work
         rdf:about="">
        <dc:format>image/svg+xml</dc:format>
        <dc:type
           rdf:resource="http://purl.org/dc/dcmitype/StillImage" />
        <dc:title />
      </cc:Work>
    </rdf:RDF>
  </metadata>
  <g
     inkscape:label="Layer 1"
     inkscape:groupmode="layer"
     id="layer1"
     transform="translate(-99.250005,-423.86217)">
    <path
       style="color:#000000;fill:none;stroke:#000000;stroke-width:7.82918167;stroke-linecap:square;stroke-linejoin:round;stroke-miterlimit:4;stroke-opacity:1;stroke-dasharray:none;stroke-dashoffset:0;marker:none;visibility:visible;display:inline;overflow:visible;enable-background:accumulate"
       d="m 649.25,428.00216 0,521.94543"
       id="path3701" />
    <g
       id="g3887"
       s2p-scene-id="0"
       transform="matrix(2.6097272,0,0,2.6097272,-159.76542,-1535.4579)">
      <rect
         style="color:#000000;fill:none;stroke:#000000;stroke-width:1.5;stroke-linecap:square;stroke-linejoin:round;stroke-miterlimit:4;stroke-opacity:1;stroke-dasharray:none;stroke-dashoffset:0;marker:none;visibility:visible;display:inline;overflow:visible;enable-background:accumulate"
         id="rect3685"
         width="100"
         height="100"
         x="100"
         y="752.36218" />
      <path
         style="color:#000000;fill:none;stroke:#000000;stroke-width:1;stroke-linecap:butt;stroke-linejoin:miter;stroke-miterlimit:4;stroke-opacity:1;stroke-dasharray:none;stroke-dashoffset:0;marker:none;visibility:visible;display:inline;overflow:visible;enable-background:accumulate"
         d="m 99.831764,783.11456 c 3.764866,-0.96263 7.223716,0.40811 11.038476,0.89064 3.64338,0.64108 6.91839,3.1532 7.88172,6.81742 4.68644,11.35813 6.02672,23.80282 10.85226,35.09896 1.87779,3.96078 6.12109,5.48626 10.0703,6.46609 4.58315,1.40849 9.43939,2.40172 14.24118,1.69517 7.29139,1.76589 15.01732,1.65023 22.26912,-0.25492 8.04302,1.08838 15.34764,-3.45759 23.12852,-4.46313"
         id="path2853" />
      <path
         sodipodi:type="arc"
         style="color:#000000;fill:#e3f4d7;fill-opacity:1;fill-rule:nonzero;stroke:#5aa02c;stroke-width:1;stroke-linecap:round;stroke-linejoin:round;stroke-miterlimit:4;stroke-opacity:1;stroke-dasharray:none;stroke-dashoffset:0;marker:none;visibility:visible;display:inline;overflow:visible;enable-background:accumulate"
         id="path2860"
         sodipodi:cx="36.651108"
         sodipodi:cy="104.26277"
         sodipodi:rx="4.654109"
         sodipodi:ry="4.654109"
         d="m 41.305217,104.26277 c 0,2.5704 -2.083716,4.65411 -4.654109,4.65411 -2.570394,0 -4.654109,-2.08371 -4.654109,-4.65411 0,-2.57039 2.083715,-4.654107 4.654109,-4.654107 2.570393,0 4.654109,2.083717 4.654109,4.654107 z"
         transform="translate(99.25,720.73877)" />
    </g>
    <g
       id="g3893"
       s2p-scene-id="1"
       transform="matrix(2.6097272,0,0,2.6097272,-159.76542,-1535.4579)">
      <rect
         y="852.36218"
         x="100"
         height="100"
         width="100"
         id="rect2909"
         style="color:#000000;fill:none;stroke:#000000;stroke-width:1.5;stroke-linecap:square;stroke-linejoin:round;stroke-miterlimit:4;stroke-opacity:1;stroke-dasharray:none;stroke-dashoffset:0;marker:none;visibility:visible;display:inline;overflow:visible;enable-background:accumulate" />
      <path
         style="color:#000000;fill:none;stroke:#000000;stroke-width:1;stroke-linecap:butt;stroke-linejoin:miter;stroke-miterlimit:4;stroke-opacity:1;stroke-dasharray:none;stroke-dashoffset:0;marker:none;visibility:visible;display:inline;overflow:visible;enable-background:accumulate"
         d="m 100.41353,922.73783 c 5.68337,3.25588 10.35442,8.23627 16.70351,10.30842 9.78521,4.20901 20.21786,6.70304 30.74816,8.12492 9.72867,2.0363 19.56931,3.42847 29.36732,5.05197 6.81656,1.13019 13.69497,0.45267 20.53715,0.094 0.41751,-0.0104 0.83514,-0.0167 1.25279,-0.0179"
         id="path2862" />
      <path
         style="color:#000000;fill:#e3f4d7;fill-opacity:1;fill-rule:nonzero;stroke:#5aa02c;stroke-width:1;stroke-linecap:round;stroke-linejoin:round;stroke-miterlimit:4;stroke-opacity:1;stroke-dasharray:none;stroke-dashoffset:0;marker:none;visibility:visible;display:inline;overflow:visible;enable-background:accumulate"
         d="m 143.25876,927.56318 -8.66644,10.04422 13.23592,2.38984 -4.56948,-12.43406 z"
         id="path2868" />
      <path
         sodipodi:type="arc"
         style="color:#000000;fill:#e3f4d7;fill-opacity:1;fill-rule:nonzero;stroke:#5aa02c;stroke-width:1;stroke-linecap:round;stroke-linejoin:round;stroke-miterlimit:4;stroke-opacity:1;stroke-dasharray:none;stroke-dashoffset:0;marker:none;visibility:visible;display:inline;overflow:visible;enable-background:accumulate"
         id="path2870"
         sodipodi:cx="32.578762"
         sodipodi:cy="211.30728"
         sodipodi:rx="5.2358727"
         sodipodi:ry="5.2358727"
         d="m 37.814635,211.30728 c 0,2.89169 -2.34418,5.23587 -5.235873,5.23587 -2.891693,0 -5.235873,-2.34418 -5.235873,-5.23587 0,-2.89169 2.34418,-5.23587 5.235873,-5.23587 2.891693,0 5.235873,2.34418 5.235873,5.23587 z"
         transform="translate(98.959118,720.15701)" />
    </g>
    <g
       id="g3899"
       s2p-scene-id="2"
       transform="matrix(2.6097272,0,0,2.6097272,-159.76542,-1535.4579)">
      <rect
         y="752.36218"
         x="200"
         height="100"
         width="100"
         id="rect3687"
         style="color:#000000;fill:none;stroke:#000000;stroke-width:1.5;stroke-linecap:square;stroke-linejoin:round;stroke-miterlimit:4;stroke-opacity:1;stroke-dasharray:none;stroke-dashoffset:0;marker:none;visibility:visible;display:inline;overflow:visible;enable-background:accumulate" />
      <path
         style="color:#000000;fill:none;stroke:#000000;stroke-width:1;stroke-linecap:butt;stroke-linejoin:miter;stroke-miterlimit:4;stroke-opacity:1;stroke-dasharray:none;stroke-dashoffset:0;marker:none;visibility:visible;display:inline;overflow:visible;enable-background:accumulate"
         d="m 201.34952,801.14923 c 1.66942,-0.58825 6.15484,-0.11114 9.00127,0.2784 3.63193,0.52652 7.32381,0.48891 10.95417,0.26255 3.87171,0.24688 11.76387,-1.25044 10.57495,5.01116 -0.43287,8.57906 -0.53868,17.16961 -0.79085,25.75759 4.88284,-1.24871 9.73049,1.47003 14.6631,0.52112 6.82411,-0.61834 13.65243,-1.25971 20.51104,-1.11059 10.58394,-0.33974 21.1847,-0.65923 31.7656,-0.1141 0.74996,-0.0289 1.50479,-0.11743 2.22053,-0.35442"
         id="path2872" />
      <path
         sodipodi:type="arc"
         style="color:#000000;fill:#e3f4d7;fill-opacity:1;fill-rule:nonzero;stroke:#5aa02c;stroke-width:1;stroke-linecap:round;stroke-linejoin:round;stroke-miterlimit:4;stroke-opacity:1;stroke-dasharray:none;stroke-dashoffset:0;marker:none;visibility:visible;display:inline;overflow:visible;enable-background:accumulate"
         id="path2877"
         sodipodi:cx="139.0415"
         sodipodi:cy="105.71718"
         sodipodi:rx="5.817636"
         sodipodi:ry="5.817636"
         d="m 144.85914,105.71718 c 0,3.21299 -2.60464,5.81763 -5.81764,5.81763 -3.21299,0 -5.81763,-2.60464 -5.81763,-5.81763 0,-3.21299 2.60464,-5.817638 5.81763,-5.817638 3.213,0 5.81764,2.604648 5.81764,5.817638 z"
         transform="translate(99.25,720.15701)" />
    </g>
    <g
       id="g3905"
       s2p-scene-id="3"
       transform="matrix(2.6097272,0,0,2.6097272,-159.76542,-1535.4579)">
      <rect
         style="color:#000000;fill:none;stroke:#000000;stroke-width:1.5;stroke-linecap:square;stroke-linejoin:round;stroke-miterlimit:4;stroke-opacity:1;stroke-dasharray:none;stroke-dashoffset:0;marker:none;visibility:visible;display:inline;overflow:visible;enable-background:accumulate"
         id="rect3689"
         width="100"
         height="100"
         x="200"
         y="852.36218" />
      <path
         style="color:#000000;fill:none;stroke:#000000;stroke-width:1;stroke-linecap:butt;stroke-linejoin:miter;stroke-miterlimit:4;stroke-opacity:1;stroke-dasharray:none;stroke-dashoffset:0;marker:none;visibility:visible;display:inline;overflow:visible;enable-background:accumulate"
         d="m 199.89511,934.3731 c 7.76133,-0.23687 17.25319,-1.80156 25.0189,-0.54009 12.65075,1.11355 25.38746,0.78303 38.03185,1.89163 8.03311,1.18654 16.19298,1.3989 24.25667,0.40844 4.03616,-0.29859 8.17706,-0.75997 12.17413,-0.0147"
         id="path2879"
         sodipodi:nodetypes="ccccc" />
      <path
         style="color:#000000;fill:#e3f4d7;fill-opacity:1;fill-rule:nonzero;stroke:#5aa02c;stroke-width:1;stroke-linecap:round;stroke-linejoin:round;stroke-miterlimit:4;stroke-opacity:1;stroke-dasharray:none;stroke-dashoffset:0;marker:none;visibility:visible;display:inline;overflow:visible;enable-background:accumulate"
         d="m 171.03851,204.03523 13.08968,0.87265 -2.32706,10.18086 -12.21703,-0.58176 1.45441,-10.47175 z"
         id="path2892"
         transform="translate(99.25,720.73877)" />
      <path
         sodipodi:type="arc"
         style="color:#000000;fill:#e3f4d7;fill-opacity:1;fill-rule:nonzero;stroke:#5aa02c;stroke-width:1;stroke-linecap:round;stroke-linejoin:round;stroke-miterlimit:4;stroke-opacity:1;stroke-dasharray:none;stroke-dashoffset:0;marker:none;visibility:visible;display:inline;overflow:visible;enable-background:accumulate"
         id="path2894"
         sodipodi:cx="162.60294"
         sodipodi:cy="209.56198"
         sodipodi:rx="5.817636"
         sodipodi:ry="5.817636"
         d="m 168.42057,209.56198 c 0,3.21299 -2.60464,5.81764 -5.81763,5.81764 -3.213,0 -5.81764,-2.60465 -5.81764,-5.81764 0,-3.21299 2.60464,-5.81763 5.81764,-5.81763 3.21299,0 5.81763,2.60464 5.81763,5.81763 z"
         transform="translate(99.25,720.15701)" />
    </g>
    <g
       id="g3912"
       s2p-scene-id="4"
       transform="matrix(2.6097272,0,0,2.6097272,-159.76542,-1535.4579)">
      <rect
         style="color:#000000;fill:none;stroke:#000000;stroke-width:1.5;stroke-linecap:square;stroke-linejoin:round;stroke-miterlimit:4;stroke-opacity:1;stroke-dasharray:none;stroke-dashoffset:0;marker:none;visibility:visible;display:inline;overflow:visible;enable-background:accumulate"
         id="rect3691"
         width="100"
         height="100"
         x="320"
         y="752.36218" />
      <path
         style="color:#000000;fill:none;stroke:#000000;stroke-width:1;stroke-linecap:butt;stroke-linejoin:miter;stroke-miterlimit:4;stroke-opacity:1;stroke-dasharray:none;stroke-dashoffset:0;marker:none;visibility:visible;display:inline;overflow:visible;enable-background:accumulate"
         d="m 320.90194,828.783 c 5.86487,-2.02334 12.28333,-0.82884 18.18801,-2.6226 10.11678,-0.22149 20.15754,-2.67146 30.30275,-1.49847 8.94519,0.82194 17.81658,2.3033 26.76412,3.10283 6.70413,0.52763 13.34671,1.72001 19.86524,3.3476 1.50308,0.44473 2.68584,0.13201 4.07058,0.87034"
         id="path2896"
         sodipodi:nodetypes="cccccc" />
      <path
         sodipodi:type="arc"
         style="color:#000000;fill:#e3f4d7;fill-opacity:1;fill-rule:nonzero;stroke:#5aa02c;stroke-width:1;stroke-linecap:round;stroke-linejoin:round;stroke-miterlimit:4;stroke-opacity:1;stroke-dasharray:none;stroke-dashoffset:0;marker:none;visibility:visible;display:inline;overflow:visible;enable-background:accumulate"
         id="path2903"
         sodipodi:cx="268.77478"
         sodipodi:cy="96.699844"
         sodipodi:rx="5.817636"
         sodipodi:ry="5.817636"
         d="m 274.59242,96.699844 c 0,3.212992 -2.60465,5.817636 -5.81764,5.817636 -3.21299,0 -5.81764,-2.604644 -5.81764,-5.817636 0,-3.212991 2.60465,-5.817636 5.81764,-5.817636 3.21299,0 5.81764,2.604645 5.81764,5.817636 z"
         transform="translate(96.195741,720.81149)" />
    </g>
    <g
       id="g3918"
       s2p-scene-id="5"
       transform="matrix(2.6097272,0,0,2.6097272,-159.76542,-1535.4579)">
      <rect
         y="852.36218"
         x="320"
         height="100"
         width="100"
         id="rect3695"
         style="color:#000000;fill:none;stroke:#000000;stroke-width:1.5;stroke-linecap:square;stroke-linejoin:round;stroke-miterlimit:4;stroke-opacity:1;stroke-dasharray:none;stroke-dashoffset:0;marker:none;visibility:visible;display:inline;overflow:visible;enable-background:accumulate" />
      <path
         style="color:#000000;fill:none;stroke:#000000;stroke-width:1;stroke-linecap:butt;stroke-linejoin:miter;stroke-miterlimit:4;stroke-opacity:1;stroke-dasharray:none;stroke-dashoffset:0;marker:none;visibility:visible;display:inline;overflow:visible;enable-background:accumulate"
         d="m 320.17473,928.19186 c 3.9071,-1.58187 9.54699,-0.99195 13.62916,-1.33173 18.01878,-0.0488 35.99962,0.40301 54.4044,0.48571 8.35603,0.59237 16.02127,2.30722 24.29137,3.69815 2.24805,0.11413 4.50444,-0.0702 6.72033,-0.45229"
         id="path2909"
         sodipodi:nodetypes="ccccc" />
      <path
         style="color:#000000;fill:#e3f4d7;fill-opacity:1;fill-rule:nonzero;stroke:#5aa02c;stroke-width:1;stroke-linecap:round;stroke-linejoin:round;stroke-miterlimit:4;stroke-opacity:1;stroke-dasharray:none;stroke-dashoffset:0;marker:none;visibility:visible;display:inline;overflow:visible;enable-background:accumulate"
         d="m 351.08093,908.92095 0.3636,17.0893 35.34214,0.43632 -0.14544,-17.52562 -35.5603,0 z"
         id="path2918"
         sodipodi:nodetypes="ccccc" />
      <path
         sodipodi:type="arc"
         style="color:#000000;fill:#e3f4d7;fill-opacity:1;fill-rule:nonzero;stroke:#5aa02c;stroke-width:1;stroke-linecap:round;stroke-linejoin:round;stroke-miterlimit:4;stroke-opacity:1;stroke-dasharray:none;stroke-dashoffset:0;marker:none;visibility:visible;display:inline;overflow:visible;enable-background:accumulate"
         id="path2920"
         sodipodi:cx="269.93832"
         sodipodi:cy="182.2191"
         sodipodi:rx="6.1085181"
         sodipodi:ry="6.1085181"
         d="m 276.04684,182.2191 c 0,3.37364 -2.73487,6.10852 -6.10852,6.10852 -3.37364,0 -6.10851,-2.73488 -6.10851,-6.10852 0,-3.37364 2.73487,-6.10852 6.10851,-6.10852 3.37365,0 6.10852,2.73488 6.10852,6.10852 z"
         transform="translate(99.177284,719.57524)" />
    </g>
    <g
       id="g3925"
       s2p-scene-id="6"
       transform="matrix(2.6097272,0,0,2.6097272,-159.76542,-1535.4579)">
      <rect
         y="752.36218"
         x="420"
         height="100"
         width="100"
         id="rect3693"
         style="color:#000000;fill:none;stroke:#000000;stroke-width:1.5;stroke-linecap:square;stroke-linejoin:round;stroke-miterlimit:4;stroke-opacity:1;stroke-dasharray:none;stroke-dashoffset:0;marker:none;visibility:visible;display:inline;overflow:visible;enable-background:accumulate" />
      <path
         style="color:#000000;fill:none;stroke:#000000;stroke-width:1;stroke-linecap:butt;stroke-linejoin:miter;stroke-miterlimit:4;stroke-opacity:1;stroke-dasharray:none;stroke-dashoffset:0;marker:none;visibility:visible;display:inline;overflow:visible;enable-background:accumulate"
         d="m 320.55176,80.992225 c 9.08684,-0.516696 20.78869,0 31.12435,0 2.59004,0 7.86823,-1.14911 9.5991,0.581764 -1.35487,9.286479 -0.94764,18.986141 -0.58176,28.506421 20.00565,-3.25764 39.99891,3.47878 59.92165,1.45441"
         id="path2905"
         transform="translate(99.25,720.73877)"
         sodipodi:nodetypes="csccc" />
      <path
         sodipodi:type="arc"
         style="color:#000000;fill:#e3f4d7;fill-opacity:1;fill-rule:nonzero;stroke:#5aa02c;stroke-width:1;stroke-linecap:round;stroke-linejoin:round;stroke-miterlimit:4;stroke-opacity:1;stroke-dasharray:none;stroke-dashoffset:0;marker:none;visibility:visible;display:inline;overflow:visible;enable-background:accumulate"
         id="path2907"
         sodipodi:cx="342.077"
         sodipodi:cy="74.301941"
         sodipodi:rx="5.817636"
         sodipodi:ry="5.817636"
         d="m 347.89463,74.301941 c 0,3.212992 -2.60464,5.817636 -5.81763,5.817636 -3.213,0 -5.81764,-2.604644 -5.81764,-5.817636 0,-3.212992 2.60464,-5.817636 5.81764,-5.817636 3.21299,0 5.81763,2.604644 5.81763,5.817636 z"
         transform="translate(99.25,720.73877)" />
    </g>
    <g
       id="g3931"
       s2p-scene-id="7"
       transform="matrix(2.6097272,0,0,2.6097272,-159.76542,-1535.4579)">
      <rect
         style="color:#000000;fill:none;stroke:#000000;stroke-width:1.5;stroke-linecap:square;stroke-linejoin:round;stroke-miterlimit:4;stroke-opacity:1;stroke-dasharray:none;stroke-dashoffset:0;marker:none;visibility:visible;display:inline;overflow:visible;enable-background:accumulate"
         id="rect3697"
         width="100"
         height="100"
         x="420"
         y="852.36218" />
      <path
         style="color:#000000;fill:none;stroke:#000000;stroke-width:1;stroke-linecap:butt;stroke-linejoin:miter;stroke-miterlimit:4;stroke-opacity:1;stroke-dasharray:none;stroke-dashoffset:0;marker:none;visibility:visible;display:inline;overflow:visible;enable-background:accumulate"
         d="m 421.25617,938.15457 c 7.5153,-0.53312 15.02508,-2.00224 22.57312,-1.26021 7.3217,-0.76488 13.90944,-4.37641 20.97488,-6.18685 9.16567,-3.05481 16.86678,-7.19247 22.70376,-15.32322 2.35639,-3.91405 4.91353,-9.28451 9.62519,-11.26994 7.98324,0 14.85801,0.29951 22.73198,0.58892"
         id="path2922"
         sodipodi:nodetypes="cccccc" />
      <path
         sodipodi:type="arc"
         style="color:#000000;fill:#e3f4d7;fill-opacity:1;fill-rule:nonzero;stroke:#5aa02c;stroke-width:1;stroke-linecap:round;stroke-linejoin:round;stroke-miterlimit:4;stroke-opacity:1;stroke-dasharray:none;stroke-dashoffset:0;marker:none;visibility:visible;display:inline;overflow:visible;enable-background:accumulate"
         id="path2934"
         sodipodi:cx="400.54425"
         sodipodi:cy="177.56499"
         sodipodi:rx="5.817636"
         sodipodi:ry="5.817636"
         d="m 406.36189,177.56499 c 0,3.21299 -2.60465,5.81763 -5.81764,5.81763 -3.21299,0 -5.81764,-2.60464 -5.81764,-5.81763 0,-3.21299 2.60465,-5.81764 5.81764,-5.81764 3.21299,0 5.81764,2.60465 5.81764,5.81764 z"
         transform="translate(101.50434,719.7934)" />
    </g>
  </g>
</svg>
