<?xml version="1.0" encoding="UTF-8" standalone="no"?>
<!-- Created with Inkscape (http://www.inkscape.org/) -->

<svg
   xmlns:dc="http://purl.org/dc/elements/1.1/"
   xmlns:cc="http://creativecommons.org/ns#"
   xmlns:rdf="http://www.w3.org/1999/02/22-rdf-syntax-ns#"
   xmlns:svg="http://www.w3.org/2000/svg"
   xmlns="http://www.w3.org/2000/svg"
   xmlns:sodipodi="http://sodipodi.sourceforge.net/DTD/sodipodi-0.dtd"
   xmlns:inkscape="http://www.inkscape.org/namespaces/inkscape"
   width="1100"
   height="530"
   id="svg2885"
   version="1.1"
   inkscape:version="0.47 r22583"
   sodipodi:docname="pbp22.svg">
  <defs
     id="defs2887">
    <inkscape:perspective
       sodipodi:type="inkscape:persp3d"
       inkscape:vp_x="0 : 526.18109 : 1"
       inkscape:vp_y="0 : 1000 : 0"
       inkscape:vp_z="744.09448 : 526.18109 : 1"
       inkscape:persp3d-origin="372.04724 : 350.78739 : 1"
       id="perspective2893" />
    <inkscape:perspective
       id="perspective2903"
       inkscape:persp3d-origin="0.5 : 0.33333333 : 1"
       inkscape:vp_z="1 : 0.5 : 1"
       inkscape:vp_y="0 : 1000 : 0"
       inkscape:vp_x="0 : 0.5 : 1"
       sodipodi:type="inkscape:persp3d" />
    <inkscape:perspective
       id="perspective3722"
       inkscape:persp3d-origin="0.5 : 0.33333333 : 1"
       inkscape:vp_z="1 : 0.5 : 1"
       inkscape:vp_y="0 : 1000 : 0"
       inkscape:vp_x="0 : 0.5 : 1"
       sodipodi:type="inkscape:persp3d" />
    <inkscape:perspective
       id="perspective3773"
       inkscape:persp3d-origin="0.5 : 0.33333333 : 1"
       inkscape:vp_z="1 : 0.5 : 1"
       inkscape:vp_y="0 : 1000 : 0"
       inkscape:vp_x="0 : 0.5 : 1"
       sodipodi:type="inkscape:persp3d" />
    <inkscape:perspective
       id="perspective3773-1"
       inkscape:persp3d-origin="0.5 : 0.33333333 : 1"
       inkscape:vp_z="1 : 0.5 : 1"
       inkscape:vp_y="0 : 1000 : 0"
       inkscape:vp_x="0 : 0.5 : 1"
       sodipodi:type="inkscape:persp3d" />
    <inkscape:perspective
       id="perspective3858"
       inkscape:persp3d-origin="0.5 : 0.33333333 : 1"
       inkscape:vp_z="1 : 0.5 : 1"
       inkscape:vp_y="0 : 1000 : 0"
       inkscape:vp_x="0 : 0.5 : 1"
       sodipodi:type="inkscape:persp3d" />
    <inkscape:perspective
       id="perspective3858-4"
       inkscape:persp3d-origin="0.5 : 0.33333333 : 1"
       inkscape:vp_z="1 : 0.5 : 1"
       inkscape:vp_y="0 : 1000 : 0"
       inkscape:vp_x="0 : 0.5 : 1"
       sodipodi:type="inkscape:persp3d" />
    <inkscape:perspective
       id="perspective4155"
       inkscape:persp3d-origin="0.5 : 0.33333333 : 1"
       inkscape:vp_z="1 : 0.5 : 1"
       inkscape:vp_y="0 : 1000 : 0"
       inkscape:vp_x="0 : 0.5 : 1"
       sodipodi:type="inkscape:persp3d" />
    <inkscape:perspective
       id="perspective2919"
       inkscape:persp3d-origin="0.5 : 0.33333333 : 1"
       inkscape:vp_z="1 : 0.5 : 1"
       inkscape:vp_y="0 : 1000 : 0"
       inkscape:vp_x="0 : 0.5 : 1"
       sodipodi:type="inkscape:persp3d" />
  </defs>
  <sodipodi:namedview
     id="base"
     pagecolor="#ffffff"
     bordercolor="#666666"
     borderopacity="1.0"
     inkscape:pageopacity="0.0"
     inkscape:pageshadow="2"
     inkscape:zoom="2.558209"
     inkscape:cx="262.98463"
     inkscape:cy="116.31825"
     inkscape:document-units="px"
     inkscape:current-layer="layer1"
     showgrid="true"
     inkscape:snap-global="false"
     inkscape:window-width="1920"
     inkscape:window-height="1125"
     inkscape:window-x="0"
     inkscape:window-y="24"
     inkscape:window-maximized="1">
    <inkscape:grid
       type="xygrid"
       id="grid3683"
       empspacing="10"
       visible="true"
       enabled="false"
       snapvisiblegridlinesonly="true"
       spacingx="10px"
       spacingy="10px" />
  </sodipodi:namedview>
  <metadata
     id="metadata2890">
    <rdf:RDF>
      <cc:Work
         rdf:about="">
        <dc:format>image/svg+xml</dc:format>
        <dc:type
           rdf:resource="http://purl.org/dc/dcmitype/StillImage" />
        <dc:title />
      </cc:Work>
    </rdf:RDF>
  </metadata>
  <g
     inkscape:label="Layer 1"
     inkscape:groupmode="layer"
     id="layer1"
     transform="translate(-99.249998,-423.86218)">
    <path
       style="color:#000000;fill:none;stroke:#000000;stroke-width:7.8246479;stroke-linecap:square;stroke-linejoin:round;stroke-miterlimit:4;stroke-opacity:1;stroke-dasharray:none;stroke-dashoffset:0;marker:none;visibility:visible;display:inline;overflow:visible;enable-background:accumulate"
       d="m 648.93151,428.30667 0,521.64319"
       id="path3701" />
    <g
       id="g3887"
       s2p-scene-id="0"
       transform="matrix(2.6082159,0,0,2.6082159,-159.61543,-1534.0164)">
      <rect
         style="color:#000000;fill:none;stroke:#000000;stroke-width:1.5;stroke-linecap:square;stroke-linejoin:round;stroke-miterlimit:4;stroke-opacity:1;stroke-dasharray:none;stroke-dashoffset:0;marker:none;visibility:visible;display:inline;overflow:visible;enable-background:accumulate"
         id="rect3685"
         width="100"
         height="100"
         x="100"
         y="752.36218" />
      <path
         style="color:#000000;fill:none;stroke:#000000;stroke-width:1;stroke-linecap:butt;stroke-linejoin:miter;stroke-miterlimit:4;stroke-opacity:1;stroke-dasharray:none;stroke-dashoffset:0;marker:none;visibility:visible;display:inline;overflow:visible;enable-background:accumulate"
         d="m 100.07922,810.40697 c 23.19565,16.16537 52.51123,31.92789 81.26618,32.13958 6.26181,0.24757 12.53271,0.17517 18.79314,-0.0764"
         id="path2925"
         sodipodi:nodetypes="ccc" />
      <path
         style="color:#000000;fill:#e3f4d7;fill-opacity:1;fill-rule:nonzero;stroke:#5aa02c;stroke-width:1;stroke-linecap:round;stroke-linejoin:round;stroke-miterlimit:4;stroke-opacity:1;stroke-dasharray:none;stroke-dashoffset:0;marker:none;visibility:visible;display:inline;overflow:visible;enable-background:accumulate"
         d="m 66.890486,109.01669 -2.211256,9.95065 11.332686,1.93484 1.934849,-9.12143 -11.056279,-2.76406 z"
         id="path2935"
         transform="translate(99.25,720.73877)" />
      <path
         sodipodi:type="arc"
         style="color:#000000;fill:#e3f4d7;fill-opacity:1;fill-rule:nonzero;stroke:#5aa02c;stroke-width:1;stroke-linecap:round;stroke-linejoin:round;stroke-miterlimit:4;stroke-opacity:1;stroke-dasharray:none;stroke-dashoffset:0;marker:none;visibility:visible;display:inline;overflow:visible;enable-background:accumulate"
         id="path2864"
         sodipodi:cx="24.235706"
         sodipodi:cy="98.654335"
         sodipodi:rx="5.8634772"
         sodipodi:ry="5.8634772"
         d="m 30.099184,98.654335 c 0,3.238305 -2.625169,5.863475 -5.863478,5.863475 -3.238309,0 -5.863477,-2.62517 -5.863477,-5.863475 0,-3.238309 2.625168,-5.863477 5.863477,-5.863477 3.238309,0 5.863478,2.625168 5.863478,5.863477 z"
         transform="translate(99.25,718.73877)" />
    </g>
    <g
       id="g3893"
       s2p-scene-id="1"
       transform="matrix(2.6082159,0,0,2.6082159,-159.61543,-1534.0164)">
      <rect
         y="852.36218"
         x="100"
         height="100"
         width="100"
         id="rect2909"
         style="color:#000000;fill:none;stroke:#000000;stroke-width:1.5;stroke-linecap:square;stroke-linejoin:round;stroke-miterlimit:4;stroke-opacity:1;stroke-dasharray:none;stroke-dashoffset:0;marker:none;visibility:visible;display:inline;overflow:visible;enable-background:accumulate" />
      <path
         style="color:#000000;fill:none;stroke:#000000;stroke-width:1;stroke-linecap:butt;stroke-linejoin:miter;stroke-miterlimit:4;stroke-opacity:1;stroke-dasharray:none;stroke-dashoffset:0;marker:none;visibility:visible;display:inline;overflow:visible;enable-background:accumulate"
         d="m 99.802811,942.5295 c 14.329179,0.98673 30.771029,-1.51206 44.812619,-4.05329 16.48294,-3.9618 24.13796,-19.64979 30.11223,-33.83087 4.58604,-9.34297 15.70758,-12.98698 25.41088,-10.48706"
         id="path2950"
         sodipodi:nodetypes="cccc" />
      <path
         style="color:#000000;fill:#e3f4d7;fill-opacity:1;fill-rule:nonzero;stroke:#5aa02c;stroke-width:1;stroke-linecap:round;stroke-linejoin:round;stroke-miterlimit:4;stroke-opacity:1;stroke-dasharray:none;stroke-dashoffset:0;marker:none;visibility:visible;display:inline;overflow:visible;enable-background:accumulate"
         d="m 167.24611,897.47516 5.80455,-8.84502 8.29221,6.35736 -6.35736,6.91018 -7.7394,-4.42252 z"
         id="path2958" />
      <path
         style="color:#000000;fill:#e3f4d7;fill-opacity:1;fill-rule:nonzero;stroke:#5aa02c;stroke-width:1;stroke-linecap:round;stroke-linejoin:round;stroke-miterlimit:4;stroke-opacity:1;stroke-dasharray:none;stroke-dashoffset:0;marker:none;visibility:visible;display:inline;overflow:visible;enable-background:accumulate"
         d="m 44.225115,207.14116 1.105627,9.67424 10.779872,-4.97532 -1.934849,-8.29221 -9.95065,3.59329 z"
         id="path2960"
         transform="translate(99.25,720.73877)" />
    </g>
    <g
       id="g3899"
       s2p-scene-id="2"
       transform="matrix(2.6082159,0,0,2.6082159,-159.61543,-1534.0164)">
      <rect
         y="752.36218"
         x="200"
         height="100"
         width="100"
         id="rect3687"
         style="color:#000000;fill:none;stroke:#000000;stroke-width:1.5;stroke-linecap:square;stroke-linejoin:round;stroke-miterlimit:4;stroke-opacity:1;stroke-dasharray:none;stroke-dashoffset:0;marker:none;visibility:visible;display:inline;overflow:visible;enable-background:accumulate" />
      <path
         style="color:#000000;fill:none;stroke:#000000;stroke-width:1;stroke-linecap:butt;stroke-linejoin:miter;stroke-miterlimit:4;stroke-opacity:1;stroke-dasharray:none;stroke-dashoffset:0;marker:none;visibility:visible;display:inline;overflow:visible;enable-background:accumulate"
         d="m 199.86214,837.77126 c 20.79431,-3.19973 43.5386,1.15277 64.48011,0.32138 12.13564,0.13313 24.27178,0.32204 36.40848,0.23142"
         id="path2937"
         sodipodi:nodetypes="ccc" />
      <path
         sodipodi:type="arc"
         style="color:#000000;fill:#e3f4d7;fill-opacity:1;fill-rule:nonzero;stroke:#5aa02c;stroke-width:1;stroke-linecap:round;stroke-linejoin:round;stroke-miterlimit:4;stroke-opacity:1;stroke-dasharray:none;stroke-dashoffset:0;marker:none;visibility:visible;display:inline;overflow:visible;enable-background:accumulate"
         id="path2946"
         sodipodi:cx="153.68227"
         sodipodi:cy="77.229881"
         sodipodi:rx="6.3573604"
         sodipodi:ry="6.3573604"
         d="m 160.03963,77.229881 c 0,3.511073 -2.84629,6.357361 -6.35736,6.357361 -3.51108,0 -6.35736,-2.846288 -6.35736,-6.357361 0,-3.511073 2.84628,-6.35736 6.35736,-6.35736 3.51107,0 6.35736,2.846287 6.35736,6.35736 z"
         transform="translate(98.144372,721.01518)" />
      <path
         sodipodi:type="arc"
         style="color:#000000;fill:#e3f4d7;fill-opacity:1;fill-rule:nonzero;stroke:#5aa02c;stroke-width:1;stroke-linecap:round;stroke-linejoin:round;stroke-miterlimit:4;stroke-opacity:1;stroke-dasharray:none;stroke-dashoffset:0;marker:none;visibility:visible;display:inline;overflow:visible;enable-background:accumulate"
         id="path2948"
         sodipodi:cx="142.07318"
         sodipodi:cy="109.01669"
         sodipodi:rx="6.9101744"
         sodipodi:ry="6.9101744"
         d="m 148.98336,109.01669 c 0,3.81639 -3.09379,6.91018 -6.91018,6.91018 -3.81638,0 -6.91017,-3.09379 -6.91017,-6.91018 0,-3.81638 3.09379,-6.91017 6.91017,-6.91017 3.81639,0 6.91018,3.09379 6.91018,6.91017 z"
         transform="translate(99.25,720.73877)" />
    </g>
    <g
       id="g3905"
       s2p-scene-id="3"
       transform="matrix(2.6082159,0,0,2.6082159,-159.61543,-1534.0164)">
      <rect
         style="color:#000000;fill:none;stroke:#000000;stroke-width:1.5;stroke-linecap:square;stroke-linejoin:round;stroke-miterlimit:4;stroke-opacity:1;stroke-dasharray:none;stroke-dashoffset:0;marker:none;visibility:visible;display:inline;overflow:visible;enable-background:accumulate"
         id="rect3689"
         width="100"
         height="100"
         x="200"
         y="852.36218" />
      <path
         style="color:#000000;fill:none;stroke:#000000;stroke-width:1;stroke-linecap:butt;stroke-linejoin:miter;stroke-miterlimit:4;stroke-opacity:1;stroke-dasharray:none;stroke-dashoffset:0;marker:none;visibility:visible;display:inline;overflow:visible;enable-background:accumulate"
         d="m 101.99417,190.00393 c -0.36854,0 -1.47417,0 -1.10563,0 12.97178,-0.63445 26.03198,-0.26924 38.97338,-1.38204 0.11978,0 0.55282,-0.3409 0.55282,-0.27641 0,0.11578 -0.51064,0.23423 -0.82922,0.55282 -0.35733,5.95996 2.23919,13.12805 4.42251,18.79567 2.32223,5.12735 4.21543,7.55152 2.48766,13.26754 11.7032,-1.0908 23.39234,0.0356 35.10369,-1.38204 3.43153,-0.85788 16.98751,0.0749 18.79567,-0.82922"
         id="path2962"
         transform="translate(99.25,720.73877)"
         sodipodi:nodetypes="cccsccccc" />
      <path
         sodipodi:type="arc"
         style="color:#000000;fill:#e3f4d7;fill-opacity:1;fill-rule:nonzero;stroke:#5aa02c;stroke-width:1;stroke-linecap:round;stroke-linejoin:round;stroke-miterlimit:4;stroke-opacity:1;stroke-dasharray:none;stroke-dashoffset:0;marker:none;visibility:visible;display:inline;overflow:visible;enable-background:accumulate"
         id="path2964"
         sodipodi:cx="152.85306"
         sodipodi:cy="214.32774"
         sodipodi:rx="4.6989183"
         sodipodi:ry="4.6989183"
         d="m 157.55198,214.32774 c 0,2.59514 -2.10378,4.69892 -4.69892,4.69892 -2.59514,0 -4.69892,-2.10378 -4.69892,-4.69892 0,-2.59514 2.10378,-4.69891 4.69892,-4.69891 2.59514,0 4.69892,2.10377 4.69892,4.69891 z"
         transform="translate(98.973593,721.8444)" />
      <path
         style="color:#000000;fill:#e3f4d7;fill-opacity:1;fill-rule:nonzero;stroke:#5aa02c;stroke-width:1;stroke-linecap:round;stroke-linejoin:round;stroke-miterlimit:4;stroke-opacity:1;stroke-dasharray:none;stroke-dashoffset:0;marker:none;visibility:visible;display:inline;overflow:visible;enable-background:accumulate"
         d="m 138.47989,178.67124 8.84502,-0.27641 0.82922,10.22706 -9.95065,-0.55281 0.27641,-9.39784 z"
         id="path2966"
         transform="translate(99.25,720.73877)" />
    </g>
    <g
       id="g3912"
       s2p-scene-id="4"
       transform="matrix(2.6082159,0,0,2.6082159,-159.61543,-1534.0164)">
      <rect
         style="color:#000000;fill:none;stroke:#000000;stroke-width:1.5;stroke-linecap:square;stroke-linejoin:round;stroke-miterlimit:4;stroke-opacity:1;stroke-dasharray:none;stroke-dashoffset:0;marker:none;visibility:visible;display:inline;overflow:visible;enable-background:accumulate"
         id="rect3691"
         width="100"
         height="100"
         x="320"
         y="752.36218" />
      <path
         style="color:#000000;fill:none;stroke:#000000;stroke-width:1;stroke-linecap:butt;stroke-linejoin:miter;stroke-miterlimit:4;stroke-opacity:1;stroke-dasharray:none;stroke-dashoffset:0;marker:none;visibility:visible;display:inline;overflow:visible;enable-background:accumulate"
         d="m 319.54635,838.04766 c 14.89216,0.91518 31.48638,-0.96136 46.35957,0.85253 16.17252,-0.083 32.34053,-0.12358 48.46303,1.218 1.93553,-0.0224 3.87166,-0.14453 5.78954,-0.41201"
         id="path2968"
         sodipodi:nodetypes="cccc" />
      <path
         sodipodi:type="arc"
         style="color:#000000;fill:#e3f4d7;fill-opacity:1;fill-rule:nonzero;stroke:#5aa02c;stroke-width:1;stroke-linecap:round;stroke-linejoin:round;stroke-miterlimit:4;stroke-opacity:1;stroke-dasharray:none;stroke-dashoffset:0;marker:none;visibility:visible;display:inline;overflow:visible;enable-background:accumulate"
         id="path2976"
         sodipodi:cx="246.55501"
         sodipodi:cy="94.643524"
         sodipodi:rx="5.2517323"
         sodipodi:ry="5.2517323"
         d="m 251.80674,94.643524 c 0,2.900452 -2.35128,5.251733 -5.25173,5.251733 -2.90045,0 -5.25173,-2.351281 -5.25173,-5.251733 0,-2.900452 2.35128,-5.251732 5.25173,-5.251732 2.90045,0 5.25173,2.35128 5.25173,5.251732 z"
         transform="translate(99.25,720.73877)" />
      <path
         sodipodi:type="arc"
         style="color:#000000;fill:#e3f4d7;fill-opacity:1;fill-rule:nonzero;stroke:#5aa02c;stroke-width:1;stroke-linecap:round;stroke-linejoin:round;stroke-miterlimit:4;stroke-opacity:1;stroke-dasharray:none;stroke-dashoffset:0;marker:none;visibility:visible;display:inline;overflow:visible;enable-background:accumulate"
         id="path2978"
         sodipodi:cx="297.41391"
         sodipodi:cy="77.506294"
         sodipodi:rx="5.8045464"
         sodipodi:ry="5.8045464"
         d="m 303.21846,77.506294 c 0,3.205763 -2.59879,5.804547 -5.80455,5.804547 -3.20576,0 -5.80455,-2.598784 -5.80455,-5.804547 0,-3.205762 2.59879,-5.804546 5.80455,-5.804546 3.20576,0 5.80455,2.598784 5.80455,5.804546 z"
         transform="translate(99.25,720.73877)" />
    </g>
    <g
       id="g3918"
       s2p-scene-id="5"
       transform="matrix(2.6082159,0,0,2.6082159,-159.61543,-1534.0164)">
      <rect
         y="852.36218"
         x="320"
         height="100"
         width="100"
         id="rect3695"
         style="color:#000000;fill:none;stroke:#000000;stroke-width:1.5;stroke-linecap:square;stroke-linejoin:round;stroke-miterlimit:4;stroke-opacity:1;stroke-dasharray:none;stroke-dashoffset:0;marker:none;visibility:visible;display:inline;overflow:visible;enable-background:accumulate" />
      <path
         style="color:#000000;fill:none;stroke:#000000;stroke-width:1;stroke-linecap:butt;stroke-linejoin:miter;stroke-miterlimit:4;stroke-opacity:1;stroke-dasharray:none;stroke-dashoffset:0;marker:none;visibility:visible;display:inline;overflow:visible;enable-background:accumulate"
         d="m 320.37557,913.50677 c 3.79666,7.76364 10.53138,13.58825 16.07531,20.05026 5.60444,5.15908 14.15849,9.31853 21.37269,4.70799 8.22199,-4.55925 7.19064,-14.98236 9.53684,-22.76806 6.91157,-6.28335 7.18207,6.7285 6.96474,11.02065 0.76796,6.1805 -1.25281,16.14175 7.0406,17.74502 6.54475,-0.67292 12.92933,-4.05798 18.46733,-7.60616 6.58499,-4.85635 13.0968,-9.93459 18.2231,-16.403 l 0.79279,-0.86973 0.7567,-0.90165"
         id="path2980" />
      <path
         sodipodi:type="arc"
         style="color:#000000;fill:#e3f4d7;fill-opacity:1;fill-rule:nonzero;stroke:#5aa02c;stroke-width:1;stroke-linecap:round;stroke-linejoin:round;stroke-miterlimit:4;stroke-opacity:1;stroke-dasharray:none;stroke-dashoffset:0;marker:none;visibility:visible;display:inline;overflow:visible;enable-background:accumulate"
         id="path2985"
         sodipodi:cx="233.28748"
         sodipodi:cy="200.50739"
         sodipodi:rx="4.6989183"
         sodipodi:ry="4.6989183"
         d="m 237.98639,200.50739 c 0,2.59514 -2.10377,4.69891 -4.69891,4.69891 -2.59515,0 -4.69892,-2.10377 -4.69892,-4.69891 0,-2.59515 2.10377,-4.69892 4.69892,-4.69892 2.59514,0 4.69891,2.10377 4.69891,4.69892 z"
         transform="translate(99.25,720.73877)" />
      <path
         sodipodi:type="arc"
         style="color:#000000;fill:#e3f4d7;fill-opacity:1;fill-rule:nonzero;stroke:#5aa02c;stroke-width:1;stroke-linecap:round;stroke-linejoin:round;stroke-miterlimit:4;stroke-opacity:1;stroke-dasharray:none;stroke-dashoffset:0;marker:none;visibility:visible;display:inline;overflow:visible;enable-background:accumulate"
         id="path2987"
         sodipodi:cx="305.15329"
         sodipodi:cy="201.88942"
         sodipodi:rx="5.2517323"
         sodipodi:ry="5.2517323"
         d="m 310.40502,201.88942 c 0,2.90045 -2.35128,5.25173 -5.25173,5.25173 -2.90045,0 -5.25173,-2.35128 -5.25173,-5.25173 0,-2.90045 2.35128,-5.25173 5.25173,-5.25173 2.90045,0 5.25173,2.35128 5.25173,5.25173 z"
         transform="translate(100.90844,722.39721)" />
    </g>
    <g
       id="g3925"
       s2p-scene-id="6"
       transform="matrix(2.6082159,0,0,2.6082159,-159.61543,-1534.0164)">
      <rect
         y="752.36218"
         x="420"
         height="100"
         width="100"
         id="rect3693"
         style="color:#000000;fill:none;stroke:#000000;stroke-width:1.5;stroke-linecap:square;stroke-linejoin:round;stroke-miterlimit:4;stroke-opacity:1;stroke-dasharray:none;stroke-dashoffset:0;marker:none;visibility:visible;display:inline;overflow:visible;enable-background:accumulate" />
      <path
         style="color:#000000;fill:none;stroke:#000000;stroke-width:1;stroke-linecap:butt;stroke-linejoin:miter;stroke-miterlimit:4;stroke-opacity:1;stroke-dasharray:none;stroke-dashoffset:0;marker:none;visibility:visible;display:inline;overflow:visible;enable-background:accumulate"
         d="m 419.81693,843.2994 c 11.59768,-0.68463 25.31969,1.36767 36.79814,0.008 21.43404,-4.22137 42.35616,-10.93659 63.87915,-14.65729"
         id="path2989"
         sodipodi:nodetypes="ccc" />
      <path
         style="color:#000000;fill:#e3f4d7;fill-opacity:1;fill-rule:nonzero;stroke:#5aa02c;stroke-width:1;stroke-linecap:round;stroke-linejoin:round;stroke-miterlimit:4;stroke-opacity:1;stroke-dasharray:none;stroke-dashoffset:0;marker:none;visibility:visible;display:inline;overflow:visible;enable-background:accumulate"
         d="m 395.53837,104.04136 11.8855,-2.76407 1.65844,8.0158 -11.8855,2.76407 -1.65844,-8.0158 z"
         id="path2996"
         transform="translate(99.25,720.73877)" />
      <path
         style="color:#000000;fill:#e3f4d7;fill-opacity:1;fill-rule:nonzero;stroke:#5aa02c;stroke-width:1;stroke-linecap:round;stroke-linejoin:round;stroke-miterlimit:4;stroke-opacity:1;stroke-dasharray:none;stroke-dashoffset:0;marker:none;visibility:visible;display:inline;overflow:visible;enable-background:accumulate"
         d="m 328.64788,111.78075 11.05628,-0.82922 -1.38203,11.33269 -9.67425,-0.82922 0,-9.67425 z"
         id="path2998"
         transform="translate(99.25,720.73877)" />
    </g>
    <g
       id="g3931"
       s2p-scene-id="7"
       transform="matrix(2.6082159,0,0,2.6082159,-159.61543,-1534.0164)">
      <rect
         style="color:#000000;fill:none;stroke:#000000;stroke-width:1.5;stroke-linecap:square;stroke-linejoin:round;stroke-miterlimit:4;stroke-opacity:1;stroke-dasharray:none;stroke-dashoffset:0;marker:none;visibility:visible;display:inline;overflow:visible;enable-background:accumulate"
         id="rect3697"
         width="100"
         height="100"
         x="420"
         y="852.36218" />
      <path
         style="color:#000000;fill:none;stroke:#000000;stroke-width:1;stroke-linecap:butt;stroke-linejoin:miter;stroke-miterlimit:4;stroke-opacity:1;stroke-dasharray:none;stroke-dashoffset:0;marker:none;visibility:visible;display:inline;overflow:visible;enable-background:accumulate"
         d="m 420.7113,941.97668 c 22.44581,-3.98239 45.71628,-3.30108 68.64242,-3.84127 4.67164,0.46118 11.38294,2.41339 15.00253,-0.93321 0.25613,-6.20617 -0.39759,-12.6715 -0.87422,-18.96032 1.09794,-7.43963 -7.85653,-3.47038 -12.05252,-3.86164 -4.31248,-0.66049 -11.73781,2.72044 -13.43075,-2.91465 0.64386,-4.0629 -1.42601,-11.39739 4.4859,-11.9654 5.11846,-0.34638 10.06185,2.88718 15.22821,1.18954 7.15203,-2.078 14.24367,0.4946 21.39931,-0.17406"
         id="path3004"
         sodipodi:nodetypes="ccccccccc" />
      <path
         sodipodi:type="arc"
         style="color:#000000;fill:#e3f4d7;fill-opacity:1;fill-rule:nonzero;stroke:#5aa02c;stroke-width:1;stroke-linecap:round;stroke-linejoin:round;stroke-miterlimit:4;stroke-opacity:1;stroke-dasharray:none;stroke-dashoffset:0;marker:none;visibility:visible;display:inline;overflow:visible;enable-background:accumulate"
         id="path3008"
         sodipodi:cx="392.49789"
         sodipodi:cy="172.31387"
         sodipodi:rx="6.0809531"
         sodipodi:ry="6.0809531"
         d="m 398.57885,172.31387 c 0,3.35842 -2.72254,6.08096 -6.08096,6.08096 -3.35841,0 -6.08095,-2.72254 -6.08095,-6.08096 0,-3.35841 2.72254,-6.08095 6.08095,-6.08095 3.35842,0 6.08096,2.72254 6.08096,6.08095 z"
         transform="translate(99.25,720.73877)" />
      <path
         sodipodi:type="arc"
         style="color:#000000;fill:#e3f4d7;fill-opacity:1;fill-rule:nonzero;stroke:#5aa02c;stroke-width:1;stroke-linecap:round;stroke-linejoin:round;stroke-miterlimit:4;stroke-opacity:1;stroke-dasharray:none;stroke-dashoffset:0;marker:none;visibility:visible;display:inline;overflow:visible;enable-background:accumulate"
         id="path3010"
         sodipodi:cx="389.45743"
         sodipodi:cy="211.28726"
         sodipodi:rx="5.2517323"
         sodipodi:ry="5.2517323"
         d="m 394.70916,211.28726 c 0,2.90045 -2.35128,5.25173 -5.25173,5.25173 -2.90045,0 -5.25173,-2.35128 -5.25173,-5.25173 0,-2.90045 2.35128,-5.25173 5.25173,-5.25173 2.90045,0 5.25173,2.35128 5.25173,5.25173 z"
         transform="translate(99.25,720.73877)" />
    </g>
  </g>
</svg>
