<?xml version="1.0" encoding="UTF-8" standalone="no"?>
<!-- Created with Inkscape (http://www.inkscape.org/) -->

<svg
   xmlns:dc="http://purl.org/dc/elements/1.1/"
   xmlns:cc="http://creativecommons.org/ns#"
   xmlns:rdf="http://www.w3.org/1999/02/22-rdf-syntax-ns#"
   xmlns:svg="http://www.w3.org/2000/svg"
   xmlns="http://www.w3.org/2000/svg"
   xmlns:sodipodi="http://sodipodi.sourceforge.net/DTD/sodipodi-0.dtd"
   xmlns:inkscape="http://www.inkscape.org/namespaces/inkscape"
   width="1100"
   height="530"
   id="svg2885"
   version="1.1"
   inkscape:version="0.47 r22583"
   sodipodi:docname="pbp27.svg">
  <defs
     id="defs2887">
    <inkscape:perspective
       sodipodi:type="inkscape:persp3d"
       inkscape:vp_x="0 : 526.18109 : 1"
       inkscape:vp_y="0 : 1000 : 0"
       inkscape:vp_z="744.09448 : 526.18109 : 1"
       inkscape:persp3d-origin="372.04724 : 350.78739 : 1"
       id="perspective2893" />
    <inkscape:perspective
       id="perspective2903"
       inkscape:persp3d-origin="0.5 : 0.33333333 : 1"
       inkscape:vp_z="1 : 0.5 : 1"
       inkscape:vp_y="0 : 1000 : 0"
       inkscape:vp_x="0 : 0.5 : 1"
       sodipodi:type="inkscape:persp3d" />
    <inkscape:perspective
       id="perspective3722"
       inkscape:persp3d-origin="0.5 : 0.33333333 : 1"
       inkscape:vp_z="1 : 0.5 : 1"
       inkscape:vp_y="0 : 1000 : 0"
       inkscape:vp_x="0 : 0.5 : 1"
       sodipodi:type="inkscape:persp3d" />
    <inkscape:perspective
       id="perspective3773"
       inkscape:persp3d-origin="0.5 : 0.33333333 : 1"
       inkscape:vp_z="1 : 0.5 : 1"
       inkscape:vp_y="0 : 1000 : 0"
       inkscape:vp_x="0 : 0.5 : 1"
       sodipodi:type="inkscape:persp3d" />
    <inkscape:perspective
       id="perspective3773-1"
       inkscape:persp3d-origin="0.5 : 0.33333333 : 1"
       inkscape:vp_z="1 : 0.5 : 1"
       inkscape:vp_y="0 : 1000 : 0"
       inkscape:vp_x="0 : 0.5 : 1"
       sodipodi:type="inkscape:persp3d" />
    <inkscape:perspective
       id="perspective3858"
       inkscape:persp3d-origin="0.5 : 0.33333333 : 1"
       inkscape:vp_z="1 : 0.5 : 1"
       inkscape:vp_y="0 : 1000 : 0"
       inkscape:vp_x="0 : 0.5 : 1"
       sodipodi:type="inkscape:persp3d" />
    <inkscape:perspective
       id="perspective3858-4"
       inkscape:persp3d-origin="0.5 : 0.33333333 : 1"
       inkscape:vp_z="1 : 0.5 : 1"
       inkscape:vp_y="0 : 1000 : 0"
       inkscape:vp_x="0 : 0.5 : 1"
       sodipodi:type="inkscape:persp3d" />
    <inkscape:perspective
       id="perspective4155"
       inkscape:persp3d-origin="0.5 : 0.33333333 : 1"
       inkscape:vp_z="1 : 0.5 : 1"
       inkscape:vp_y="0 : 1000 : 0"
       inkscape:vp_x="0 : 0.5 : 1"
       sodipodi:type="inkscape:persp3d" />
    <inkscape:perspective
       id="perspective2847"
       inkscape:persp3d-origin="0.5 : 0.33333333 : 1"
       inkscape:vp_z="1 : 0.5 : 1"
       inkscape:vp_y="0 : 1000 : 0"
       inkscape:vp_x="0 : 0.5 : 1"
       sodipodi:type="inkscape:persp3d" />
  </defs>
  <sodipodi:namedview
     id="base"
     pagecolor="#ffffff"
     bordercolor="#666666"
     borderopacity="1.0"
     inkscape:pageopacity="0.0"
     inkscape:pageshadow="2"
     inkscape:zoom="0.85959655"
     inkscape:cx="240.10955"
     inkscape:cy="-18.493071"
     inkscape:document-units="px"
     inkscape:current-layer="layer1"
     showgrid="true"
     inkscape:snap-global="false"
     inkscape:window-width="1920"
     inkscape:window-height="1125"
     inkscape:window-x="0"
     inkscape:window-y="24"
     inkscape:window-maximized="1">
    <inkscape:grid
       type="xygrid"
       id="grid3683"
       empspacing="10"
       visible="true"
       enabled="false"
       snapvisiblegridlinesonly="true"
       spacingx="10px"
       spacingy="10px" />
  </sodipodi:namedview>
  <metadata
     id="metadata2890">
    <rdf:RDF>
      <cc:Work
         rdf:about="">
        <dc:format>image/svg+xml</dc:format>
        <dc:type
           rdf:resource="http://purl.org/dc/dcmitype/StillImage" />
        <dc:title />
      </cc:Work>
    </rdf:RDF>
  </metadata>
  <g
     inkscape:label="Layer 1"
     inkscape:groupmode="layer"
     id="layer1"
     transform="translate(-99.250005,-423.86217)">
    <path
       style="color:#000000;fill:none;stroke:#000000;stroke-width:7.82918167;stroke-linecap:square;stroke-linejoin:round;stroke-miterlimit:4;stroke-opacity:1;stroke-dasharray:none;stroke-dashoffset:0;marker:none;visibility:visible;display:inline;overflow:visible;enable-background:accumulate"
       d="m 649.25,428.00216 0,521.94543"
       id="path3701" />
    <g
       id="g3887"
       s2p-scene-id="0"
       transform="matrix(2.6097272,0,0,2.6097272,-159.76542,-1535.4579)">
      <rect
         style="color:#000000;fill:none;stroke:#000000;stroke-width:1.5;stroke-linecap:square;stroke-linejoin:round;stroke-miterlimit:4;stroke-opacity:1;stroke-dasharray:none;stroke-dashoffset:0;marker:none;visibility:visible;display:inline;overflow:visible;enable-background:accumulate"
         id="rect3685"
         width="100"
         height="100"
         x="100"
         y="752.36218" />
      <path
         style="color:#000000;fill:none;stroke:#000000;stroke-width:1;stroke-linecap:butt;stroke-linejoin:miter;stroke-miterlimit:4;stroke-opacity:1;stroke-dasharray:none;stroke-dashoffset:0;marker:none;visibility:visible;display:inline;overflow:visible;enable-background:accumulate"
         d="M 0.78224123,85.170215 C 16.370081,82.357855 15.248612,91.764199 22.32944,98.845027 c 3.08136,3.081363 13.639262,-0.844699 16.897954,2.413993 3.169446,3.16945 4.827648,7.54339 7.845479,10.56122 3.563154,3.56316 14.278991,-0.50672 18.104951,3.31924 2.909142,2.90915 4.168291,7.06301 8.147227,9.05248 6.689637,3.34482 22.35759,-0.79997 27.157429,0"
         id="path2874"
         transform="translate(99.25,720.73877)"
         sodipodi:nodetypes="csssssc" />
      <path
         sodipodi:type="arc"
         style="color:#000000;fill:#e3f4d7;fill-opacity:1;fill-rule:nonzero;stroke:#5aa02c;stroke-width:1;stroke-linecap:round;stroke-linejoin:round;stroke-miterlimit:4;stroke-opacity:1;stroke-dasharray:none;stroke-dashoffset:0;marker:none;visibility:visible;display:inline;overflow:visible;enable-background:accumulate"
         id="path2876"
         sodipodi:cx="8.1472282"
         sodipodi:cy="80.438324"
         sodipodi:rx="3.319241"
         sodipodi:ry="3.319241"
         d="m 11.466469,80.438324 c 0,1.833166 -1.4860745,3.319241 -3.3192408,3.319241 -1.8331662,0 -3.319241,-1.486075 -3.319241,-3.319241 0,-1.833166 1.4860748,-3.319241 3.319241,-3.319241 1.8331663,0 3.3192408,1.486075 3.3192408,3.319241 z"
         transform="translate(99.25,720.73877)" />
      <path
         sodipodi:type="arc"
         style="color:#000000;fill:#e3f4d7;fill-opacity:1;fill-rule:nonzero;stroke:#5aa02c;stroke-width:1;stroke-linecap:round;stroke-linejoin:round;stroke-miterlimit:4;stroke-opacity:1;stroke-dasharray:none;stroke-dashoffset:0;marker:none;visibility:visible;display:inline;overflow:visible;enable-background:accumulate"
         id="path2878"
         sodipodi:cx="30.476667"
         sodipodi:cy="95.525787"
         sodipodi:rx="3.319241"
         sodipodi:ry="3.319241"
         d="m 33.795908,95.525787 c 0,1.833167 -1.486074,3.319241 -3.319241,3.319241 -1.833166,0 -3.319241,-1.486074 -3.319241,-3.319241 0,-1.833166 1.486075,-3.319241 3.319241,-3.319241 1.833167,0 3.319241,1.486075 3.319241,3.319241 z"
         transform="translate(99.25,720.73877)" />
      <path
         sodipodi:type="arc"
         style="color:#000000;fill:#e3f4d7;fill-opacity:1;fill-rule:nonzero;stroke:#5aa02c;stroke-width:1;stroke-linecap:round;stroke-linejoin:round;stroke-miterlimit:4;stroke-opacity:1;stroke-dasharray:none;stroke-dashoffset:0;marker:none;visibility:visible;display:inline;overflow:visible;enable-background:accumulate"
         id="path2880"
         sodipodi:cx="57.030594"
         sodipodi:cy="109.40625"
         sodipodi:rx="3.319241"
         sodipodi:ry="3.319241"
         d="m 60.349835,109.40625 c 0,1.83317 -1.486075,3.31924 -3.319241,3.31924 -1.833166,0 -3.319241,-1.48607 -3.319241,-3.31924 0,-1.83317 1.486075,-3.31924 3.319241,-3.31924 1.833166,0 3.319241,1.48607 3.319241,3.31924 z"
         transform="translate(99.25,720.73877)" />
      <path
         sodipodi:type="arc"
         style="color:#000000;fill:#e3f4d7;fill-opacity:1;fill-rule:nonzero;stroke:#5aa02c;stroke-width:1;stroke-linecap:round;stroke-linejoin:round;stroke-miterlimit:4;stroke-opacity:1;stroke-dasharray:none;stroke-dashoffset:0;marker:none;visibility:visible;display:inline;overflow:visible;enable-background:accumulate"
         id="path2882"
         sodipodi:cx="82.981026"
         sodipodi:cy="121.17447"
         sodipodi:rx="3.319241"
         sodipodi:ry="3.319241"
         d="m 86.300267,121.17447 c 0,1.83317 -1.486075,3.31924 -3.319241,3.31924 -1.833167,0 -3.319241,-1.48607 -3.319241,-3.31924 0,-1.83317 1.486074,-3.31924 3.319241,-3.31924 1.833166,0 3.319241,1.48607 3.319241,3.31924 z"
         transform="translate(99.25,720.73877)" />
    </g>
    <g
       id="g3893"
       s2p-scene-id="1"
       transform="matrix(2.6097272,0,0,2.6097272,-159.76542,-1535.4579)">
      <rect
         y="852.36218"
         x="100"
         height="100"
         width="100"
         id="rect2909"
         style="color:#000000;fill:none;stroke:#000000;stroke-width:1.5;stroke-linecap:square;stroke-linejoin:round;stroke-miterlimit:4;stroke-opacity:1;stroke-dasharray:none;stroke-dashoffset:0;marker:none;visibility:visible;display:inline;overflow:visible;enable-background:accumulate" />
      <path
         style="color:#000000;fill:none;stroke:#000000;stroke-width:1;stroke-linecap:butt;stroke-linejoin:miter;stroke-miterlimit:4;stroke-opacity:1;stroke-dasharray:none;stroke-dashoffset:0;marker:none;visibility:visible;display:inline;overflow:visible;enable-background:accumulate"
         d="m 0.98789201,209.77918 c 5.60449539,1.80712 41.72805199,-0.6264 44.57623399,1.0148 2.03809,1.17439 -0.847964,6.33673 2.413994,6.33673 2.151603,0 9.880101,0.98287 11.16472,-0.30175 1.674195,-1.6742 -0.974519,-5.36222 0.301749,-6.63848 1.131244,-1.13125 7.384262,1.06471 9.354225,-0.90526 1.747446,-1.74744 -0.301749,-7.1621 -0.301749,-8.75072 0,-1.26172 10.844901,-1.49068 11.466468,-2.11224 2.899497,-2.8995 3.675449,-8.65078 7.845479,-9.95773 3.076457,-0.9642 9.131485,0.54901 13.002118,-0.0961"
         id="path2884"
         transform="translate(99.25,720.73877)"
         sodipodi:nodetypes="cssssssssc" />
      <path
         sodipodi:type="arc"
         style="color:#000000;fill:#e3f4d7;fill-opacity:1;fill-rule:nonzero;stroke:#5aa02c;stroke-width:1;stroke-linecap:round;stroke-linejoin:round;stroke-miterlimit:4;stroke-opacity:1;stroke-dasharray:none;stroke-dashoffset:0;marker:none;visibility:visible;display:inline;overflow:visible;enable-background:accumulate"
         id="path2888"
         sodipodi:cx="91.73175"
         sodipodi:cy="183.63655"
         sodipodi:rx="3.6209903"
         sodipodi:ry="3.6209903"
         d="m 95.352741,183.63655 c 0,1.99982 -1.621173,3.62099 -3.620991,3.62099 -1.999817,0 -3.62099,-1.62117 -3.62099,-3.62099 0,-1.99982 1.621173,-3.62099 3.62099,-3.62099 1.999818,0 3.620991,1.62117 3.620991,3.62099 z"
         transform="translate(101.10086,720.64267)" />
      <path
         style="color:#000000;fill:#e3f4d7;fill-opacity:1;fill-rule:nonzero;stroke:#5aa02c;stroke-width:1;stroke-linecap:round;stroke-linejoin:round;stroke-miterlimit:4;stroke-opacity:1;stroke-dasharray:none;stroke-dashoffset:0;marker:none;visibility:visible;display:inline;overflow:visible;enable-background:accumulate"
         d="m 60.048087,190.87853 3.92274,-0.30175 -0.301749,18.55758 -3.017492,-0.15088 -0.603499,-18.10495 z"
         id="path2890"
         transform="translate(99.25,720.73877)"
         sodipodi:nodetypes="ccccc" />
      <path
         style="color:#000000;fill:#e3f4d7;fill-opacity:1;fill-rule:nonzero;stroke:#5aa02c;stroke-width:1;stroke-linecap:round;stroke-linejoin:round;stroke-miterlimit:4;stroke-opacity:1;stroke-dasharray:none;stroke-dashoffset:0;marker:none;visibility:visible;display:inline;overflow:visible;enable-background:accumulate"
         d="m 42.39576,193.89601 -0.150874,15.38922 3.264464,0.46608 0.205651,-15.8553 -3.319241,0 z"
         id="path2892"
         transform="translate(99.25,720.73877)"
         sodipodi:nodetypes="ccccc" />
      <path
         style="color:#000000;fill:#e3f4d7;fill-opacity:1;fill-rule:nonzero;stroke:#5aa02c;stroke-width:1;stroke-linecap:round;stroke-linejoin:round;stroke-miterlimit:4;stroke-opacity:1;stroke-dasharray:none;stroke-dashoffset:0;marker:none;visibility:visible;display:inline;overflow:visible;enable-background:accumulate"
         d="m 31.23104,194.19776 -0.452623,15.08747 3.922739,0 0.150874,-15.69096 -3.62099,0.60349 z"
         id="path2894"
         transform="translate(99.25,720.73877)"
         sodipodi:nodetypes="ccccc" />
      <path
         style="color:#000000;fill:#e3f4d7;fill-opacity:1;fill-rule:nonzero;stroke:#5aa02c;stroke-width:1;stroke-linecap:round;stroke-linejoin:round;stroke-miterlimit:4;stroke-opacity:1;stroke-dasharray:none;stroke-dashoffset:0;marker:none;visibility:visible;display:inline;overflow:visible;enable-background:accumulate"
         d="m 20.217195,193.89602 3.92274,-0.30175 -0.905248,16.29445 -3.62099,1e-5 0.603498,-15.99271 z"
         id="path2896"
         transform="translate(99.25,720.73877)"
         sodipodi:nodetypes="ccccc" />
    </g>
    <g
       id="g3899"
       s2p-scene-id="2"
       transform="matrix(2.6097272,0,0,2.6097272,-159.76542,-1535.4579)">
      <rect
         y="752.36218"
         x="200"
         height="100"
         width="100"
         id="rect3687"
         style="color:#000000;fill:none;stroke:#000000;stroke-width:1.5;stroke-linecap:square;stroke-linejoin:round;stroke-miterlimit:4;stroke-opacity:1;stroke-dasharray:none;stroke-dashoffset:0;marker:none;visibility:visible;display:inline;overflow:visible;enable-background:accumulate" />
      <path
         style="color:#000000;fill:none;stroke:#000000;stroke-width:1;stroke-linecap:butt;stroke-linejoin:miter;stroke-miterlimit:4;stroke-opacity:1;stroke-dasharray:none;stroke-dashoffset:0;marker:none;visibility:visible;display:inline;overflow:visible;enable-background:accumulate"
         d="m 100.84887,117.78274 c 31.9742,-5.22797 67.12857,-0.8725 98.88359,-0.8725"
         id="path2898"
         transform="translate(99.25,720.73877)"
         sodipodi:nodetypes="cc" />
      <path
         style="color:#000000;fill:#e3f4d7;fill-opacity:1;fill-rule:nonzero;stroke:#5aa02c;stroke-width:1;stroke-linecap:round;stroke-linejoin:round;stroke-miterlimit:4;stroke-opacity:1;stroke-dasharray:none;stroke-dashoffset:0;marker:none;visibility:visible;display:inline;overflow:visible;enable-background:accumulate"
         d="m 178.86297,92.068874 5.23502,0.290834 -0.87251,22.975892 -4.36251,0 0,-23.266726 z"
         id="path2900"
         transform="translate(99.25,720.73877)" />
      <path
         style="color:#000000;fill:#e3f4d7;fill-opacity:1;fill-rule:nonzero;stroke:#5aa02c;stroke-width:1;stroke-linecap:round;stroke-linejoin:round;stroke-miterlimit:4;stroke-opacity:1;stroke-dasharray:none;stroke-dashoffset:0;marker:none;visibility:visible;display:inline;overflow:visible;enable-background:accumulate"
         d="m 261.53543,812.22598 4.94418,0 -1.74501,23.26672 -3.78084,-0.29083 0.58167,-22.97589 z"
         id="path2902" />
      <path
         style="color:#000000;fill:#e3f4d7;fill-opacity:1;fill-rule:nonzero;stroke:#5aa02c;stroke-width:1;stroke-linecap:round;stroke-linejoin:round;stroke-miterlimit:4;stroke-opacity:1;stroke-dasharray:none;stroke-dashoffset:0;marker:none;visibility:visible;display:inline;overflow:visible;enable-background:accumulate"
         d="m 241.46788,811.93514 6.10752,0 -0.87251,22.9759 -4.65334,-0.29083 -0.58167,-22.68507 z"
         id="path2904" />
      <path
         style="color:#000000;fill:#e3f4d7;fill-opacity:1;fill-rule:nonzero;stroke:#5aa02c;stroke-width:1;stroke-linecap:round;stroke-linejoin:round;stroke-miterlimit:4;stroke-opacity:1;stroke-dasharray:none;stroke-dashoffset:0;marker:none;visibility:visible;display:inline;overflow:visible;enable-background:accumulate"
         d="m 221.69116,811.64431 4.94418,-0.29084 -1.3337,24.08933 -4.48298,0.12047 0.8725,-23.91896 z"
         id="path2906"
         sodipodi:nodetypes="ccccc" />
    </g>
    <g
       id="g3905"
       s2p-scene-id="3"
       transform="matrix(2.6097272,0,0,2.6097272,-159.76542,-1535.4579)">
      <rect
         style="color:#000000;fill:none;stroke:#000000;stroke-width:1.5;stroke-linecap:square;stroke-linejoin:round;stroke-miterlimit:4;stroke-opacity:1;stroke-dasharray:none;stroke-dashoffset:0;marker:none;visibility:visible;display:inline;overflow:visible;enable-background:accumulate"
         id="rect3689"
         width="100"
         height="100"
         x="200"
         y="852.36218" />
      <path
         style="color:#000000;fill:none;stroke:#000000;stroke-width:1;stroke-linecap:butt;stroke-linejoin:miter;stroke-miterlimit:4;stroke-opacity:1;stroke-dasharray:none;stroke-dashoffset:0;marker:none;visibility:visible;display:inline;overflow:visible;enable-background:accumulate"
         d="m 101.5011,179.60994 c 10.97261,1.97586 22.63984,17.40482 31.99175,26.75674 7.42407,7.42406 56.95047,4.56523 66.89185,2.90834"
         id="path2908"
         transform="translate(99.25,720.73877)" />
      <path
         sodipodi:type="arc"
         style="color:#000000;fill:#e3f4d7;fill-opacity:1;fill-rule:nonzero;stroke:#5aa02c;stroke-width:1;stroke-linecap:round;stroke-linejoin:round;stroke-miterlimit:4;stroke-opacity:1;stroke-dasharray:none;stroke-dashoffset:0;marker:none;visibility:visible;display:inline;overflow:visible;enable-background:accumulate"
         id="path2910"
         sodipodi:cx="106.44528"
         sodipodi:cy="175.53825"
         sodipodi:rx="4.0716772"
         sodipodi:ry="4.0716772"
         d="m 110.51696,175.53825 c 0,2.24873 -1.82295,4.07168 -4.07168,4.07168 -2.24872,0 -4.07168,-1.82295 -4.07168,-4.07168 0,-2.24872 1.82296,-4.07167 4.07168,-4.07167 2.24873,0 4.07168,1.82295 4.07168,4.07167 z"
         transform="translate(99.25,720.73877)" />
      <path
         sodipodi:type="arc"
         style="color:#000000;fill:#e3f4d7;fill-opacity:1;fill-rule:nonzero;stroke:#5aa02c;stroke-width:1;stroke-linecap:round;stroke-linejoin:round;stroke-miterlimit:4;stroke-opacity:1;stroke-dasharray:none;stroke-dashoffset:0;marker:none;visibility:visible;display:inline;overflow:visible;enable-background:accumulate"
         id="path2912"
         sodipodi:cx="157.05042"
         sodipodi:cy="205.785"
         sodipodi:rx="4.0716772"
         sodipodi:ry="4.0716772"
         d="m 161.12209,205.785 c 0,2.24873 -1.82295,4.07168 -4.07167,4.07168 -2.24873,0 -4.07168,-1.82295 -4.07168,-4.07168 0,-2.24872 1.82295,-4.07167 4.07168,-4.07167 2.24872,0 4.07167,1.82295 4.07167,4.07167 z"
         transform="translate(99.25,720.73877)" />
      <path
         sodipodi:type="arc"
         style="color:#000000;fill:#e3f4d7;fill-opacity:1;fill-rule:nonzero;stroke:#5aa02c;stroke-width:1;stroke-linecap:round;stroke-linejoin:round;stroke-miterlimit:4;stroke-opacity:1;stroke-dasharray:none;stroke-dashoffset:0;marker:none;visibility:visible;display:inline;overflow:visible;enable-background:accumulate"
         id="path2914"
         sodipodi:cx="173.62796"
         sodipodi:cy="206.65752"
         sodipodi:rx="4.0716772"
         sodipodi:ry="4.0716772"
         d="m 177.69964,206.65752 c 0,2.24872 -1.82295,4.07167 -4.07168,4.07167 -2.24873,0 -4.07168,-1.82295 -4.07168,-4.07167 0,-2.24873 1.82295,-4.07168 4.07168,-4.07168 2.24873,0 4.07168,1.82295 4.07168,4.07168 z"
         transform="translate(99.25,719.86627)" />
      <path
         sodipodi:type="arc"
         style="color:#000000;fill:#e3f4d7;fill-opacity:1;fill-rule:nonzero;stroke:#5aa02c;stroke-width:1;stroke-linecap:round;stroke-linejoin:round;stroke-miterlimit:4;stroke-opacity:1;stroke-dasharray:none;stroke-dashoffset:0;marker:none;visibility:visible;display:inline;overflow:visible;enable-background:accumulate"
         id="path2916"
         sodipodi:cx="187.588"
         sodipodi:cy="205.785"
         sodipodi:rx="3.7808433"
         sodipodi:ry="3.7808433"
         d="m 191.36884,205.785 c 0,2.08811 -1.69274,3.78085 -3.78084,3.78085 -2.0881,0 -3.78085,-1.69274 -3.78085,-3.78085 0,-2.0881 1.69275,-3.78084 3.78085,-3.78084 2.0881,0 3.78084,1.69274 3.78084,3.78084 z"
         transform="translate(99.25,720.73877)" />
    </g>
    <g
       id="g3912"
       s2p-scene-id="4"
       transform="matrix(2.6097272,0,0,2.6097272,-159.76542,-1535.4579)">
      <rect
         style="color:#000000;fill:none;stroke:#000000;stroke-width:1.5;stroke-linecap:square;stroke-linejoin:round;stroke-miterlimit:4;stroke-opacity:1;stroke-dasharray:none;stroke-dashoffset:0;marker:none;visibility:visible;display:inline;overflow:visible;enable-background:accumulate"
         id="rect3691"
         width="100"
         height="100"
         x="320"
         y="752.36218" />
      <path
         style="color:#000000;fill:none;stroke:#000000;stroke-width:1;stroke-linecap:butt;stroke-linejoin:miter;stroke-miterlimit:4;stroke-opacity:1;stroke-dasharray:none;stroke-dashoffset:0;marker:none;visibility:visible;display:inline;overflow:visible;enable-background:accumulate"
         d="m 220.74308,108.06475 c 8.34601,5.8552 24.19631,17.91643 38.09927,5.81668 1.55872,-1.35655 8.42683,-7.55903 9.88836,-5.23501 12.16012,19.33618 26.13708,14.0159 52.0593,13.37837"
         id="path2918"
         transform="translate(99.25,720.73877)"
         sodipodi:nodetypes="cssc" />
      <path
         sodipodi:type="arc"
         style="color:#000000;fill:#e3f4d7;fill-opacity:1;fill-rule:nonzero;stroke:#5aa02c;stroke-width:1;stroke-linecap:round;stroke-linejoin:round;stroke-miterlimit:4;stroke-opacity:1;stroke-dasharray:none;stroke-dashoffset:0;marker:none;visibility:visible;display:inline;overflow:visible;enable-background:accumulate"
         id="path2920"
         sodipodi:cx="231.2131"
         sodipodi:cy="109.51892"
         sodipodi:rx="3.1991751"
         sodipodi:ry="3.1991751"
         d="m 234.41228,109.51892 c 0,1.76686 -1.43232,3.19918 -3.19918,3.19918 -1.76685,0 -3.19917,-1.43232 -3.19917,-3.19918 0,-1.76685 1.43232,-3.19917 3.19917,-3.19917 1.76686,0 3.19918,1.43232 3.19918,3.19917 z"
         transform="translate(99.25,720.73877)" />
      <path
         sodipodi:type="arc"
         style="color:#000000;fill:#e3f4d7;fill-opacity:1;fill-rule:nonzero;stroke:#5aa02c;stroke-width:1;stroke-linecap:round;stroke-linejoin:round;stroke-miterlimit:4;stroke-opacity:1;stroke-dasharray:none;stroke-dashoffset:0;marker:none;visibility:visible;display:inline;overflow:visible;enable-background:accumulate"
         id="path2922"
         sodipodi:cx="291.99744"
         sodipodi:cy="118.82561"
         sodipodi:rx="3.4900093"
         sodipodi:ry="3.4900093"
         d="m 295.48745,118.82561 c 0,1.92748 -1.56253,3.49001 -3.49001,3.49001 -1.92748,0 -3.49001,-1.56253 -3.49001,-3.49001 0,-1.92748 1.56253,-3.49001 3.49001,-3.49001 1.92748,0 3.49001,1.56253 3.49001,3.49001 z"
         transform="translate(99.25,720.73877)" />
      <path
         sodipodi:type="arc"
         style="color:#000000;fill:#e3f4d7;fill-opacity:1;fill-rule:nonzero;stroke:#5aa02c;stroke-width:1;stroke-linecap:round;stroke-linejoin:round;stroke-miterlimit:4;stroke-opacity:1;stroke-dasharray:none;stroke-dashoffset:0;marker:none;visibility:visible;display:inline;overflow:visible;enable-background:accumulate"
         id="path2924"
         sodipodi:cx="305.66663"
         sodipodi:cy="118.82561"
         sodipodi:rx="3.4900093"
         sodipodi:ry="3.4900093"
         d="m 309.15664,118.82561 c 0,1.92748 -1.56254,3.49001 -3.49001,3.49001 -1.92748,0 -3.49001,-1.56253 -3.49001,-3.49001 0,-1.92748 1.56253,-3.49001 3.49001,-3.49001 1.92747,0 3.49001,1.56253 3.49001,3.49001 z"
         transform="translate(99.25,720.73877)" />
    </g>
    <g
       id="g3918"
       s2p-scene-id="5"
       transform="matrix(2.6097272,0,0,2.6097272,-159.76542,-1535.4579)">
      <rect
         y="852.36218"
         x="320"
         height="100"
         width="100"
         id="rect3695"
         style="color:#000000;fill:none;stroke:#000000;stroke-width:1.5;stroke-linecap:square;stroke-linejoin:round;stroke-miterlimit:4;stroke-opacity:1;stroke-dasharray:none;stroke-dashoffset:0;marker:none;visibility:visible;display:inline;overflow:visible;enable-background:accumulate" />
      <path
         style="color:#000000;fill:none;stroke:#000000;stroke-width:1;stroke-linecap:butt;stroke-linejoin:miter;stroke-miterlimit:4;stroke-opacity:1;stroke-dasharray:none;stroke-dashoffset:0;marker:none;visibility:visible;display:inline;overflow:visible;enable-background:accumulate"
         d="m 320.11892,936.79317 c 24.95544,-1.63801 50.1067,1.22177 74.94248,-2.49873 7.05856,-1.38771 14.04785,1.23627 21.03992,0.33038 1.04281,-0.13731 2.08867,-0.26855 3.14127,-0.29946"
         id="path2926" />
      <path
         style="color:#000000;fill:#e3f4d7;fill-opacity:1;fill-rule:nonzero;stroke:#5aa02c;stroke-width:1;stroke-linecap:round;stroke-linejoin:round;stroke-miterlimit:4;stroke-opacity:1;stroke-dasharray:none;stroke-dashoffset:0;marker:none;visibility:visible;display:inline;overflow:visible;enable-background:accumulate"
         d="m 241.8453,195.90062 5.55257,0.20566 -2.05651,18.50856 -4.31866,-0.20565 0.8226,-18.50857 z"
         id="path2930"
         transform="translate(99.25,720.73877)" />
      <path
         style="color:#000000;fill:#e3f4d7;fill-opacity:1;fill-rule:nonzero;stroke:#5aa02c;stroke-width:1;stroke-linecap:round;stroke-linejoin:round;stroke-miterlimit:4;stroke-opacity:1;stroke-dasharray:none;stroke-dashoffset:0;marker:none;visibility:visible;display:inline;overflow:visible;enable-background:accumulate"
         d="m 257.88606,196.92888 18.91987,0.4113 -2.26216,17.48031 -16.45206,-0.20565 -0.20565,-17.68596 z"
         id="path2932"
         transform="translate(99.25,720.73877)"
         sodipodi:nodetypes="ccccc" />
      <path
         style="color:#000000;fill:#e3f4d7;fill-opacity:1;fill-rule:nonzero;stroke:#5aa02c;stroke-width:1;stroke-linecap:round;stroke-linejoin:round;stroke-miterlimit:4;stroke-opacity:1;stroke-dasharray:none;stroke-dashoffset:0;marker:none;visibility:visible;display:inline;overflow:visible;enable-background:accumulate"
         d="m 287.29412,197.95713 6.37517,-0.20565 -1.02825,15.62946 -5.14127,0.20565 -0.20565,-15.62946 z"
         id="path2934"
         transform="translate(99.25,720.73877)"
         sodipodi:nodetypes="ccccc" />
    </g>
    <g
       id="g3925"
       s2p-scene-id="6"
       transform="matrix(2.6097272,0,0,2.6097272,-159.76542,-1535.4579)">
      <rect
         y="752.36218"
         x="420"
         height="100"
         width="100"
         id="rect3693"
         style="color:#000000;fill:none;stroke:#000000;stroke-width:1.5;stroke-linecap:square;stroke-linejoin:round;stroke-miterlimit:4;stroke-opacity:1;stroke-dasharray:none;stroke-dashoffset:0;marker:none;visibility:visible;display:inline;overflow:visible;enable-background:accumulate" />
      <path
         style="color:#000000;fill:none;stroke:#000000;stroke-width:1;stroke-linecap:butt;stroke-linejoin:miter;stroke-miterlimit:4;stroke-opacity:1;stroke-dasharray:none;stroke-dashoffset:0;marker:none;visibility:visible;display:inline;overflow:visible;enable-background:accumulate"
         d="m 321.43215,110.55556 c 20.53813,17.99411 78.96389,16.08669 99.32932,-0.20565"
         id="path2958"
         transform="translate(99.25,720.73877)" />
      <path
         sodipodi:type="arc"
         style="color:#000000;fill:#e3f4d7;fill-opacity:1;fill-rule:nonzero;stroke:#5aa02c;stroke-width:1;stroke-linecap:round;stroke-linejoin:round;stroke-miterlimit:4;stroke-opacity:1;stroke-dasharray:none;stroke-dashoffset:0;marker:none;visibility:visible;display:inline;overflow:visible;enable-background:accumulate"
         id="path2960"
         sodipodi:cx="342.61417"
         sodipodi:cy="114.46292"
         sodipodi:rx="4.318666"
         sodipodi:ry="4.318666"
         d="m 346.93283,114.46292 c 0,2.38513 -1.93353,4.31867 -4.31866,4.31867 -2.38514,0 -4.31867,-1.93354 -4.31867,-4.31867 0,-2.38513 1.93353,-4.31866 4.31867,-4.31866 2.38513,0 4.31866,1.93353 4.31866,4.31866 z"
         transform="translate(99.455651,721.35572)" />
      <path
         sodipodi:type="arc"
         style="color:#000000;fill:#e3f4d7;fill-opacity:1;fill-rule:nonzero;stroke:#5aa02c;stroke-width:1.09090912;stroke-linecap:round;stroke-linejoin:round;stroke-miterlimit:4;stroke-opacity:1;stroke-dasharray:none;stroke-dashoffset:0;marker:none;visibility:visible;display:inline;overflow:visible;enable-background:accumulate"
         id="path2962"
         sodipodi:cx="404.92636"
         sodipodi:cy="111.58381"
         sodipodi:rx="4.9356184"
         sodipodi:ry="4.9356184"
         d="m 409.86198,111.58381 c 0,2.72587 -2.20975,4.93562 -4.93562,4.93562 -2.72587,0 -4.93562,-2.20975 -4.93562,-4.93562 0,-2.72587 2.20975,-4.93562 4.93562,-4.93562 2.72587,0 4.93562,2.20975 4.93562,4.93562 z"
         transform="matrix(0.91666667,0,0,0.91666667,134.02211,730.65437)" />
    </g>
    <g
       id="g3931"
       s2p-scene-id="7"
       transform="matrix(2.6097272,0,0,2.6097272,-159.76542,-1535.4579)">
      <rect
         style="color:#000000;fill:none;stroke:#000000;stroke-width:1.5;stroke-linecap:square;stroke-linejoin:round;stroke-miterlimit:4;stroke-opacity:1;stroke-dasharray:none;stroke-dashoffset:0;marker:none;visibility:visible;display:inline;overflow:visible;enable-background:accumulate"
         id="rect3697"
         width="100"
         height="100"
         x="420"
         y="852.36218" />
      <path
         style="color:#000000;fill:none;stroke:#000000;stroke-width:1;stroke-linecap:butt;stroke-linejoin:miter;stroke-miterlimit:4;stroke-opacity:1;stroke-dasharray:none;stroke-dashoffset:0;marker:none;visibility:visible;display:inline;overflow:visible;enable-background:accumulate"
         d="m 420.8878,938.64403 c 26.77501,-2.24599 53.76317,-1.29046 80.54918,-2.29356 6.11606,0.32064 12.24675,0.48809 18.36884,0.23705"
         id="path2936" />
      <path
         style="color:#000000;fill:#e3f4d7;fill-opacity:1;fill-rule:nonzero;stroke:#5aa02c;stroke-width:1;stroke-linecap:round;stroke-linejoin:round;stroke-miterlimit:4;stroke-opacity:1;stroke-dasharray:none;stroke-dashoffset:0;marker:none;visibility:visible;display:inline;overflow:visible;enable-background:accumulate"
         d="m 334.5938,216.0544 10.07688,-18.50857 3.70172,18.09727 -13.7786,0.4113 z"
         id="path2950"
         transform="translate(99.25,720.73877)" />
      <path
         style="color:#000000;fill:#e3f4d7;fill-opacity:1;fill-rule:nonzero;stroke:#5aa02c;stroke-width:1;stroke-linecap:round;stroke-linejoin:round;stroke-miterlimit:4;stroke-opacity:1;stroke-dasharray:none;stroke-dashoffset:0;marker:none;visibility:visible;display:inline;overflow:visible;enable-background:accumulate"
         d="m 354.13062,215.6431 6.99212,-17.27467 7.40343,16.86337 -14.39555,0.4113 z"
         id="path2952"
         transform="translate(99.25,720.73877)" />
      <path
         style="color:#000000;fill:#e3f4d7;fill-opacity:1;fill-rule:nonzero;stroke:#5aa02c;stroke-width:1;stroke-linecap:round;stroke-linejoin:round;stroke-miterlimit:4;stroke-opacity:1;stroke-dasharray:none;stroke-dashoffset:0;marker:none;visibility:visible;display:inline;overflow:visible;enable-background:accumulate"
         d="m 373.05049,215.84875 7.19778,-17.68597 6.58082,17.27467 -13.7786,0.4113 z"
         id="path2954"
         transform="translate(99.25,720.73877)" />
      <path
         style="color:#000000;fill:#e3f4d7;fill-opacity:1;fill-rule:nonzero;stroke:#5aa02c;stroke-width:1;stroke-linecap:round;stroke-linejoin:round;stroke-miterlimit:4;stroke-opacity:1;stroke-dasharray:none;stroke-dashoffset:0;marker:none;visibility:visible;display:inline;overflow:visible;enable-background:accumulate"
         d="m 392.99861,214.82049 7.60908,-17.27466 6.16952,17.48032 -13.7786,-0.20566 z"
         id="path2956"
         transform="translate(99.25,720.73877)" />
    </g>
  </g>
</svg>
