<?xml version="1.0" encoding="UTF-8" standalone="no"?>
<!-- Created with Inkscape (http://www.inkscape.org/) -->

<svg
   xmlns:dc="http://purl.org/dc/elements/1.1/"
   xmlns:cc="http://creativecommons.org/ns#"
   xmlns:rdf="http://www.w3.org/1999/02/22-rdf-syntax-ns#"
   xmlns:svg="http://www.w3.org/2000/svg"
   xmlns="http://www.w3.org/2000/svg"
   xmlns:sodipodi="http://sodipodi.sourceforge.net/DTD/sodipodi-0.dtd"
   xmlns:inkscape="http://www.inkscape.org/namespaces/inkscape"
   width="1100"
   height="530"
   id="svg2885"
   version="1.1"
   inkscape:version="0.47 r22583"
   sodipodi:docname="pbp31.svg">
  <defs
     id="defs2887">
    <inkscape:perspective
       sodipodi:type="inkscape:persp3d"
       inkscape:vp_x="0 : 526.18109 : 1"
       inkscape:vp_y="0 : 1000 : 0"
       inkscape:vp_z="744.09448 : 526.18109 : 1"
       inkscape:persp3d-origin="372.04724 : 350.78739 : 1"
       id="perspective2893" />
    <inkscape:perspective
       id="perspective2903"
       inkscape:persp3d-origin="0.5 : 0.33333333 : 1"
       inkscape:vp_z="1 : 0.5 : 1"
       inkscape:vp_y="0 : 1000 : 0"
       inkscape:vp_x="0 : 0.5 : 1"
       sodipodi:type="inkscape:persp3d" />
    <inkscape:perspective
       id="perspective3722"
       inkscape:persp3d-origin="0.5 : 0.33333333 : 1"
       inkscape:vp_z="1 : 0.5 : 1"
       inkscape:vp_y="0 : 1000 : 0"
       inkscape:vp_x="0 : 0.5 : 1"
       sodipodi:type="inkscape:persp3d" />
    <inkscape:perspective
       id="perspective3773"
       inkscape:persp3d-origin="0.5 : 0.33333333 : 1"
       inkscape:vp_z="1 : 0.5 : 1"
       inkscape:vp_y="0 : 1000 : 0"
       inkscape:vp_x="0 : 0.5 : 1"
       sodipodi:type="inkscape:persp3d" />
    <inkscape:perspective
       id="perspective3773-1"
       inkscape:persp3d-origin="0.5 : 0.33333333 : 1"
       inkscape:vp_z="1 : 0.5 : 1"
       inkscape:vp_y="0 : 1000 : 0"
       inkscape:vp_x="0 : 0.5 : 1"
       sodipodi:type="inkscape:persp3d" />
    <inkscape:perspective
       id="perspective3858"
       inkscape:persp3d-origin="0.5 : 0.33333333 : 1"
       inkscape:vp_z="1 : 0.5 : 1"
       inkscape:vp_y="0 : 1000 : 0"
       inkscape:vp_x="0 : 0.5 : 1"
       sodipodi:type="inkscape:persp3d" />
    <inkscape:perspective
       id="perspective3858-4"
       inkscape:persp3d-origin="0.5 : 0.33333333 : 1"
       inkscape:vp_z="1 : 0.5 : 1"
       inkscape:vp_y="0 : 1000 : 0"
       inkscape:vp_x="0 : 0.5 : 1"
       sodipodi:type="inkscape:persp3d" />
    <inkscape:perspective
       id="perspective4155"
       inkscape:persp3d-origin="0.5 : 0.33333333 : 1"
       inkscape:vp_z="1 : 0.5 : 1"
       inkscape:vp_y="0 : 1000 : 0"
       inkscape:vp_x="0 : 0.5 : 1"
       sodipodi:type="inkscape:persp3d" />
    <inkscape:perspective
       id="perspective2847"
       inkscape:persp3d-origin="0.5 : 0.33333333 : 1"
       inkscape:vp_z="1 : 0.5 : 1"
       inkscape:vp_y="0 : 1000 : 0"
       inkscape:vp_x="0 : 0.5 : 1"
       sodipodi:type="inkscape:persp3d" />
    <inkscape:perspective
       id="perspective2867"
       inkscape:persp3d-origin="0.5 : 0.33333333 : 1"
       inkscape:vp_z="1 : 0.5 : 1"
       inkscape:vp_y="0 : 1000 : 0"
       inkscape:vp_x="0 : 0.5 : 1"
       sodipodi:type="inkscape:persp3d" />
    <inkscape:perspective
       id="perspective2867-1"
       inkscape:persp3d-origin="0.5 : 0.33333333 : 1"
       inkscape:vp_z="1 : 0.5 : 1"
       inkscape:vp_y="0 : 1000 : 0"
       inkscape:vp_x="0 : 0.5 : 1"
       sodipodi:type="inkscape:persp3d" />
  </defs>
  <sodipodi:namedview
     id="base"
     pagecolor="#ffffff"
     bordercolor="#666666"
     borderopacity="1.0"
     inkscape:pageopacity="0.0"
     inkscape:pageshadow="2"
     inkscape:zoom="1.4142136"
     inkscape:cx="424.2603"
     inkscape:cy="157.77259"
     inkscape:document-units="px"
     inkscape:current-layer="layer1"
     showgrid="true"
     inkscape:snap-global="false"
     inkscape:window-width="1920"
     inkscape:window-height="1125"
     inkscape:window-x="0"
     inkscape:window-y="24"
     inkscape:window-maximized="1">
    <inkscape:grid
       type="xygrid"
       id="grid3683"
       empspacing="10"
       visible="true"
       enabled="false"
       snapvisiblegridlinesonly="true"
       spacingx="10px"
       spacingy="10px" />
  </sodipodi:namedview>
  <metadata
     id="metadata2890">
    <rdf:RDF>
      <cc:Work
         rdf:about="">
        <dc:format>image/svg+xml</dc:format>
        <dc:type
           rdf:resource="http://purl.org/dc/dcmitype/StillImage" />
        <dc:title />
      </cc:Work>
    </rdf:RDF>
  </metadata>
  <g
     inkscape:label="Layer 1"
     inkscape:groupmode="layer"
     id="layer1"
     transform="translate(-98.484197,-423.86215)">
    <path
       style="color:#000000;fill:none;stroke:#000000;stroke-width:7.81452084;stroke-linecap:square;stroke-linejoin:round;stroke-miterlimit:4;stroke-opacity:1;stroke-dasharray:none;stroke-dashoffset:0;marker:none;visibility:visible;display:inline;overflow:visible;enable-background:accumulate"
       d="m 649.44906,428.98688 0,520.96804"
       id="path3701" />
    <g
       id="g3887"
       s2p-scene-id="0"
       transform="matrix(2.6048402,0,0,2.6048402,-158.05141,-1530.7964)">
      <rect
         style="color:#000000;fill:none;stroke:#000000;stroke-width:1.5;stroke-linecap:square;stroke-linejoin:round;stroke-miterlimit:4;stroke-opacity:1;stroke-dasharray:none;stroke-dashoffset:0;marker:none;visibility:visible;display:inline;overflow:visible;enable-background:accumulate"
         id="rect3685"
         width="100"
         height="100"
         x="100"
         y="752.36218" />
      <path
         style="color:#000000;fill:none;stroke:#000000;stroke-width:1;stroke-linecap:butt;stroke-linejoin:miter;stroke-miterlimit:4;stroke-opacity:1;stroke-dasharray:none;stroke-dashoffset:0;marker:none;visibility:visible;display:inline;overflow:visible;enable-background:accumulate"
         d="m 1.328993,98.363525 c 7.2158209,0.961166 21.424206,-1.008188 28.706248,-0.531597 -2.420128,17.924872 19.290278,24.948482 20.200694,2.657982 15.708955,0 35.908374,1.06036 50.235935,-0.531594"
         id="path2874"
         transform="translate(99.25,720.73877)"
         sodipodi:nodetypes="cccc" />
      <path
         style="color:#000000;fill:#e3f4d7;fill-opacity:1;fill-rule:nonzero;stroke:#5aa02c;stroke-width:1;stroke-linecap:round;stroke-linejoin:round;stroke-miterlimit:4;stroke-opacity:1;stroke-dasharray:none;stroke-dashoffset:0;marker:none;visibility:visible;display:inline;overflow:visible;enable-background:accumulate"
         d="m 26.57986,91.186962 0,6.113368 30.832637,2.126389 0.797396,-6.644965 -31.630033,-1.594792 z"
         id="path2876"
         transform="translate(99.25,720.73877)" />
      <path
         sodipodi:type="arc"
         style="color:#000000;fill:#e3f4d7;fill-opacity:1;fill-rule:nonzero;stroke:#5aa02c;stroke-width:1;stroke-linecap:round;stroke-linejoin:round;stroke-miterlimit:4;stroke-opacity:1;stroke-dasharray:none;stroke-dashoffset:0;marker:none;visibility:visible;display:inline;overflow:visible;enable-background:accumulate"
         id="path2878"
         sodipodi:cx="38.806595"
         sodipodi:cy="107.93227"
         sodipodi:rx="4.5185761"
         sodipodi:ry="4.5185761"
         d="m 43.325171,107.93227 c 0,2.49554 -2.023035,4.51857 -4.518576,4.51857 -2.495541,0 -4.518576,-2.02303 -4.518576,-4.51857 0,-2.49554 2.023035,-4.51858 4.518576,-4.51858 2.495541,0 4.518576,2.02304 4.518576,4.51858 z"
         transform="translate(99.25,720.73877)" />
    </g>
    <g
       id="g3893"
       s2p-scene-id="1"
       transform="matrix(2.6048402,0,0,2.6048402,-158.05141,-1530.7964)">
      <rect
         y="852.36218"
         x="100"
         height="100"
         width="100"
         id="rect2909"
         style="color:#000000;fill:none;stroke:#000000;stroke-width:1.5;stroke-linecap:square;stroke-linejoin:round;stroke-miterlimit:4;stroke-opacity:1;stroke-dasharray:none;stroke-dashoffset:0;marker:none;visibility:visible;display:inline;overflow:visible;enable-background:accumulate" />
      <path
         style="color:#000000;fill:none;stroke:#000000;stroke-width:1;stroke-linecap:butt;stroke-linejoin:miter;stroke-miterlimit:4;stroke-opacity:1;stroke-dasharray:none;stroke-dashoffset:0;marker:none;visibility:visible;display:inline;overflow:visible;enable-background:accumulate"
         d="m 0.79739579,218.50449 c -0.35439813,0 -1.41759252,0 -1.06319439,0 32.6985056,0 70.1204006,0.5316 99.9402726,0.5316"
         id="path2880"
         transform="translate(99.25,720.73877)" />
      <path
         style="color:#000000;fill:#e3f4d7;fill-opacity:1;fill-rule:nonzero;stroke:#5aa02c;stroke-width:1;stroke-linecap:round;stroke-linejoin:round;stroke-miterlimit:4;stroke-opacity:1;stroke-dasharray:none;stroke-dashoffset:0;marker:none;visibility:visible;display:inline;overflow:visible;enable-background:accumulate"
         d="m 43.325171,190.59564 c -1.249678,-1.24968 -18.059011,-1.34429 -18.8717,-0.5316 -1.082251,1.08225 -0.473242,25.30922 1.063194,26.84566 1.958277,1.95828 36.900617,1.90598 39.072394,-0.2658 2.581795,-2.5818 1.594792,-10.93853 1.594792,-14.61892 0,-4.19789 -0.554755,-14.14065 -3.986979,-13.28993 -3.198697,0.79284 -11.25222,-0.0851 -11.42934,1.32899 -0.646985,5.16556 9.330399,3.24448 10.100347,4.78438 1.082427,2.16485 1.326077,16.48242 -0.265799,18.0743 -1.255412,1.25541 -2.156841,1.21132 -3.986979,2.12639 -4.900966,-0.67777 -8.37199,-1.7228 -13.28993,-1.32899 -3.674297,0 -11.912324,2.05149 -13.821527,-0.5316 -2.688209,-3.63706 -1.155647,-14.21145 2.126389,-17.80851 2.036103,-2.23153 11.666102,0.56064 13.28993,-1.06319 3.28589,-2.96321 -4.319628,-3.72118 -1.594792,-3.72118 z"
         id="path2882"
         transform="translate(99.25,720.73877)"
         sodipodi:nodetypes="cssssssssccsscc" />
      <path
         sodipodi:type="arc"
         style="color:#000000;fill:#e3f4d7;fill-opacity:1;fill-rule:nonzero;stroke:#5aa02c;stroke-width:1;stroke-linecap:round;stroke-linejoin:round;stroke-miterlimit:4;stroke-opacity:1;stroke-dasharray:none;stroke-dashoffset:0;marker:none;visibility:visible;display:inline;overflow:visible;enable-background:accumulate"
         id="path2892"
         sodipodi:cx="41.198784"
         sodipodi:cy="208.66994"
         sodipodi:rx="4.5185761"
         sodipodi:ry="4.5185761"
         d="m 45.71736,208.66994 c 0,2.49554 -2.023035,4.51857 -4.518576,4.51857 -2.495541,0 -4.518576,-2.02303 -4.518576,-4.51857 0,-2.49554 2.023035,-4.51858 4.518576,-4.51858 2.495541,0 4.518576,2.02304 4.518576,4.51858 z"
         transform="translate(99.25,720.73877)" />
    </g>
    <g
       id="g3899"
       s2p-scene-id="2"
       transform="matrix(2.6048402,0,0,2.6048402,-158.05141,-1530.7964)">
      <rect
         y="752.36218"
         x="200"
         height="100"
         width="100"
         id="rect3687"
         style="color:#000000;fill:none;stroke:#000000;stroke-width:1.5;stroke-linecap:square;stroke-linejoin:round;stroke-miterlimit:4;stroke-opacity:1;stroke-dasharray:none;stroke-dashoffset:0;marker:none;visibility:visible;display:inline;overflow:visible;enable-background:accumulate" />
      <path
         style="color:#000000;fill:none;stroke:#000000;stroke-width:1;stroke-linecap:butt;stroke-linejoin:miter;stroke-miterlimit:4;stroke-opacity:1;stroke-dasharray:none;stroke-dashoffset:0;marker:none;visibility:visible;display:inline;overflow:visible;enable-background:accumulate"
         d="m 101.00346,91.984358 c 12.87016,-0.698534 14.3528,0.630296 26.84566,0.265799 0,5.038564 -1.6674,22.181853 0.5316,26.579863 12.98224,-1.23212 26.06247,0.51463 39.0724,0.79739 6.59914,0 14.92549,-0.0102 21.26388,-1.59479 3.28066,-0.82016 11.90478,0.5316 12.75834,0.5316"
         id="path2894"
         transform="translate(99.25,720.73877)"
         sodipodi:nodetypes="ccccsc" />
      <path
         style="color:#000000;fill:#e3f4d7;fill-opacity:1;fill-rule:nonzero;stroke:#5aa02c;stroke-width:1;stroke-linecap:round;stroke-linejoin:round;stroke-miterlimit:4;stroke-opacity:1;stroke-dasharray:none;stroke-dashoffset:0;marker:none;visibility:visible;display:inline;overflow:visible;enable-background:accumulate"
         d="m 128.38072,99.692518 4.25278,-5.050174 24.45347,19.934896 -3.45538,3.98698 -25.25087,-18.871702 z"
         id="path2898"
         transform="translate(99.25,720.73877)" />
      <path
         sodipodi:type="arc"
         style="color:#000000;fill:#e3f4d7;fill-opacity:1;fill-rule:nonzero;stroke:#5aa02c;stroke-width:1;stroke-linecap:round;stroke-linejoin:round;stroke-miterlimit:4;stroke-opacity:1;stroke-dasharray:none;stroke-dashoffset:0;marker:none;visibility:visible;display:inline;overflow:visible;enable-background:accumulate"
         id="path2900"
         sodipodi:cx="132.89929"
         sodipodi:cy="112.98244"
         sodipodi:rx="3.986979"
         sodipodi:ry="3.986979"
         d="m 136.88627,112.98244 c 0,2.20194 -1.78503,3.98698 -3.98698,3.98698 -2.20195,0 -3.98698,-1.78504 -3.98698,-3.98698 0,-2.20195 1.78503,-3.98698 3.98698,-3.98698 2.20195,0 3.98698,1.78503 3.98698,3.98698 z"
         transform="translate(99.25,720.73877)" />
    </g>
    <g
       id="g3905"
       s2p-scene-id="3"
       transform="matrix(2.6048402,0,0,2.6048402,-158.05141,-1530.7964)">
      <rect
         style="color:#000000;fill:none;stroke:#000000;stroke-width:1.5;stroke-linecap:square;stroke-linejoin:round;stroke-miterlimit:4;stroke-opacity:1;stroke-dasharray:none;stroke-dashoffset:0;marker:none;visibility:visible;display:inline;overflow:visible;enable-background:accumulate"
         id="rect3689"
         width="100"
         height="100"
         x="200"
         y="852.36218" />
      <path
         style="color:#000000;fill:none;stroke:#000000;stroke-width:1;stroke-linecap:butt;stroke-linejoin:miter;stroke-miterlimit:4;stroke-opacity:1;stroke-dasharray:none;stroke-dashoffset:0;marker:none;visibility:visible;display:inline;overflow:visible;enable-background:accumulate"
         d="m 101.00347,208.93574 c -0.3544,0 -1.417596,0 -1.063198,0 32.896008,0 67.482108,3.45538 100.206068,3.45538"
         id="path2902"
         transform="translate(99.25,720.73877)" />
      <path
         style="color:#000000;fill:#e3f4d7;fill-opacity:1;fill-rule:nonzero;stroke:#5aa02c;stroke-width:1;stroke-linecap:round;stroke-linejoin:round;stroke-miterlimit:4;stroke-opacity:1;stroke-dasharray:none;stroke-dashoffset:0;marker:none;visibility:visible;display:inline;overflow:visible;enable-background:accumulate"
         d="m 123.33055,195.11421 0,13.55573 13.82153,0.2658 0.53159,-13.55573 -14.35312,-0.2658 z"
         id="path2904"
         transform="translate(99.25,720.73877)" />
      <path
         style="color:#000000;fill:#e3f4d7;fill-opacity:1;fill-rule:nonzero;stroke:#5aa02c;stroke-width:1;stroke-linecap:round;stroke-linejoin:round;stroke-miterlimit:4;stroke-opacity:1;stroke-dasharray:none;stroke-dashoffset:0;marker:none;visibility:visible;display:inline;overflow:visible;enable-background:accumulate"
         d="m 131.30451,189.26664 -0.7974,4.78438 38.0092,4.78437 0.7974,-5.05017 -38.0092,-4.51858 z"
         id="path2908"
         transform="translate(99.25,720.73877)" />
      <path
         sodipodi:type="arc"
         style="color:#000000;fill:#e3f4d7;fill-opacity:1;fill-rule:nonzero;stroke:#5aa02c;stroke-width:1;stroke-linecap:round;stroke-linejoin:round;stroke-miterlimit:4;stroke-opacity:1;stroke-dasharray:none;stroke-dashoffset:0;marker:none;visibility:visible;display:inline;overflow:visible;enable-background:accumulate"
         id="path2910"
         sodipodi:cx="148.84721"
         sodipodi:cy="204.94876"
         sodipodi:rx="4.7843747"
         sodipodi:ry="4.7843747"
         d="m 153.63159,204.94876 c 0,2.64234 -2.14204,4.78438 -4.78438,4.78438 -2.64233,0 -4.78437,-2.14204 -4.78437,-4.78438 0,-2.64234 2.14204,-4.78437 4.78437,-4.78437 2.64234,0 4.78438,2.14203 4.78438,4.78437 z"
         transform="translate(99.25,720.73877)" />
      <path
         style="color:#000000;fill:#e3f4d7;fill-opacity:1;fill-rule:nonzero;stroke:#5aa02c;stroke-width:1;stroke-linecap:round;stroke-linejoin:round;stroke-miterlimit:4;stroke-opacity:1;stroke-dasharray:none;stroke-dashoffset:0;marker:none;visibility:visible;display:inline;overflow:visible;enable-background:accumulate"
         d="m 162.40294,199.36699 -1.32899,10.36615 9.56875,1.06319 1.32899,-10.63194 -9.56875,-0.7974 z"
         id="path2906"
         transform="translate(99.25,720.73877)" />
    </g>
    <g
       id="g3912"
       s2p-scene-id="4"
       transform="matrix(2.6048402,0,0,2.6048402,-158.05141,-1530.7964)">
      <rect
         style="color:#000000;fill:none;stroke:#000000;stroke-width:1.5;stroke-linecap:square;stroke-linejoin:round;stroke-miterlimit:4;stroke-opacity:1;stroke-dasharray:none;stroke-dashoffset:0;marker:none;visibility:visible;display:inline;overflow:visible;enable-background:accumulate"
         id="rect3691"
         width="100"
         height="100"
         x="320"
         y="752.36218" />
      <path
         style="color:#000000;fill:none;stroke:#000000;stroke-width:1;stroke-linecap:butt;stroke-linejoin:miter;stroke-miterlimit:4;stroke-opacity:1;stroke-dasharray:none;stroke-dashoffset:0;marker:none;visibility:visible;display:inline;overflow:visible;enable-background:accumulate"
         d="m 320.66023,828.93684 c 28.57814,2.05984 57.14806,-0.56403 85.50577,4.3999 4.27408,0.1436 8.70499,-1.25974 12.83971,0.38444"
         id="path2912"
         sodipodi:nodetypes="ccc" />
      <path
         style="color:#000000;fill:#e3f4d7;fill-opacity:1;fill-rule:nonzero;stroke:#5aa02c;stroke-width:1;stroke-linecap:round;stroke-linejoin:round;stroke-miterlimit:4;stroke-opacity:1;stroke-dasharray:none;stroke-dashoffset:0;marker:none;visibility:visible;display:inline;overflow:visible;enable-background:accumulate"
         d="m 243.20572,93.844948 c 0.14821,-0.831252 1.3958,-4.698498 5.58177,-3.986979 2.56453,10.082911 4.985,12.368341 22.59288,14.884721 15.42447,1.44032 19.96424,-4.60461 24.71927,-8.771353 1.59506,-1.397722 2.94595,2.414356 3.18958,2.657986 0.36248,7.451537 -8.50454,8.426657 -13.55573,10.631947 -12.96939,0.5052 -31.80486,0.4493 -39.60399,-8.23976 -1.3039,-1.303903 -3.3875,-3.794799 -2.92378,-7.176562 z"
         id="path2922"
         transform="translate(99.25,720.73877)"
         sodipodi:nodetypes="cccscccc" />
      <path
         sodipodi:type="arc"
         style="color:#000000;fill:#e3f4d7;fill-opacity:1;fill-rule:nonzero;stroke:#5aa02c;stroke-width:1;stroke-linecap:round;stroke-linejoin:round;stroke-miterlimit:4;stroke-opacity:1;stroke-dasharray:none;stroke-dashoffset:0;marker:none;visibility:visible;display:inline;overflow:visible;enable-background:accumulate"
         id="path2924"
         sodipodi:cx="270.58298"
         sodipodi:cy="96.76873"
         sodipodi:rx="5.847569"
         sodipodi:ry="5.847569"
         d="m 276.43055,96.76873 c 0,3.229523 -2.61805,5.84757 -5.84757,5.84757 -3.22953,0 -5.84757,-2.618047 -5.84757,-5.84757 0,-3.229523 2.61804,-5.847569 5.84757,-5.847569 3.22952,0 5.84757,2.618046 5.84757,5.847569 z"
         transform="translate(99.781597,721.27037)" />
    </g>
    <g
       id="g3918"
       s2p-scene-id="5"
       transform="matrix(2.6048402,0,0,2.6048402,-158.05141,-1530.7964)">
      <rect
         y="852.36218"
         x="320"
         height="100"
         width="100"
         id="rect3695"
         style="color:#000000;fill:none;stroke:#000000;stroke-width:1.5;stroke-linecap:square;stroke-linejoin:round;stroke-miterlimit:4;stroke-opacity:1;stroke-dasharray:none;stroke-dashoffset:0;marker:none;visibility:visible;display:inline;overflow:visible;enable-background:accumulate" />
      <path
         style="color:#000000;fill:none;stroke:#000000;stroke-width:1;stroke-linecap:butt;stroke-linejoin:miter;stroke-miterlimit:4;stroke-opacity:1;stroke-dasharray:none;stroke-dashoffset:0;marker:none;visibility:visible;display:inline;overflow:visible;enable-background:accumulate"
         d="m 220.87863,208.40414 c 20.87087,4.14359 45.11128,-2.74305 65.65226,2.39219 3.5222,0.88055 7.70399,-0.88738 11.16354,0.2658 6.5778,2.1926 17.28059,-2.12455 22.59288,0.5316"
         id="path2940"
         transform="translate(99.25,720.73877)" />
      <path
         style="color:#000000;fill:#e3f4d7;fill-opacity:1;fill-rule:nonzero;stroke:#5aa02c;stroke-width:1;stroke-linecap:round;stroke-linejoin:round;stroke-miterlimit:4;stroke-opacity:1;stroke-dasharray:none;stroke-dashoffset:0;marker:none;visibility:visible;display:inline;overflow:visible;enable-background:accumulate"
         d="m 245.3321,197.2406 0,10.89774 13.02414,0 -0.2658,-12.22673 -12.75834,1.32899 z"
         id="path2942"
         transform="translate(99.25,720.73877)" />
      <path
         style="color:#000000;fill:#e3f4d7;fill-opacity:1;fill-rule:nonzero;stroke:#5aa02c;stroke-width:1;stroke-linecap:round;stroke-linejoin:round;stroke-miterlimit:4;stroke-opacity:1;stroke-dasharray:none;stroke-dashoffset:0;marker:none;visibility:visible;display:inline;overflow:visible;enable-background:accumulate"
         d="m 288.12568,197.7722 0.2658,12.49253 10.63194,0.2658 0.2658,-14.61892 -11.16354,1.86059 z"
         id="path2944"
         transform="translate(99.25,720.73877)" />
      <path
         sodipodi:type="arc"
         style="color:#000000;fill:#e3f4d7;fill-opacity:1;fill-rule:nonzero;stroke:#5aa02c;stroke-width:1;stroke-linecap:round;stroke-linejoin:round;stroke-miterlimit:4;stroke-opacity:1;stroke-dasharray:none;stroke-dashoffset:0;marker:none;visibility:visible;display:inline;overflow:visible;enable-background:accumulate"
         id="path2946"
         sodipodi:cx="265.53281"
         sodipodi:cy="203.08817"
         sodipodi:rx="4.7843747"
         sodipodi:ry="4.7843747"
         d="m 270.31718,203.08817 c 0,2.64233 -2.14204,4.78437 -4.78437,4.78437 -2.64234,0 -4.78438,-2.14204 -4.78438,-4.78437 0,-2.64234 2.14204,-4.78438 4.78438,-4.78438 2.64233,0 4.78437,2.14204 4.78437,4.78438 z"
         transform="translate(99.25,720.73877)" />
    </g>
    <g
       id="g3925"
       s2p-scene-id="6"
       transform="matrix(2.6048402,0,0,2.6048402,-158.05141,-1530.7964)">
      <rect
         y="752.36218"
         x="420"
         height="100"
         width="100"
         id="rect3693"
         style="color:#000000;fill:none;stroke:#000000;stroke-width:1.5;stroke-linecap:square;stroke-linejoin:round;stroke-miterlimit:4;stroke-opacity:1;stroke-dasharray:none;stroke-dashoffset:0;marker:none;visibility:visible;display:inline;overflow:visible;enable-background:accumulate" />
      <path
         style="color:#000000;fill:none;stroke:#000000;stroke-width:1;stroke-linecap:butt;stroke-linejoin:miter;stroke-miterlimit:4;stroke-opacity:1;stroke-dasharray:none;stroke-dashoffset:0;marker:none;visibility:visible;display:inline;overflow:visible;enable-background:accumulate"
         d="m 321.6163,106.07168 c 32.021,-0.74625 69.21677,-0.26579 99.40868,-0.26579"
         id="path2934"
         transform="translate(99.25,720.73877)" />
      <path
         sodipodi:type="arc"
         style="color:#000000;fill:#e3f4d7;fill-opacity:1;fill-rule:nonzero;stroke:#5aa02c;stroke-width:1;stroke-linecap:round;stroke-linejoin:round;stroke-miterlimit:4;stroke-opacity:1;stroke-dasharray:none;stroke-dashoffset:0;marker:none;visibility:visible;display:inline;overflow:visible;enable-background:accumulate"
         id="path2936"
         sodipodi:cx="351.11993"
         sodipodi:cy="73.910057"
         sodipodi:rx="4.7843747"
         sodipodi:ry="4.7843747"
         d="m 355.90431,73.910057 c 0,2.642337 -2.14204,4.784375 -4.78438,4.784375 -2.64233,0 -4.78437,-2.142038 -4.78437,-4.784375 0,-2.642337 2.14204,-4.784375 4.78437,-4.784375 2.64234,0 4.78438,2.142038 4.78438,4.784375 z"
         transform="translate(99.25,720.73877)" />
      <path
         style="color:#000000;fill:#e3f4d7;fill-opacity:1;fill-rule:nonzero;stroke:#5aa02c;stroke-width:1;stroke-linecap:round;stroke-linejoin:round;stroke-miterlimit:4;stroke-opacity:1;stroke-dasharray:none;stroke-dashoffset:0;marker:none;visibility:visible;display:inline;overflow:visible;enable-background:accumulate"
         d="m 337.03262,104.21109 9.30295,-8.239753 7.97396,8.239753 -17.27691,0 z"
         id="path2938"
         transform="translate(99.25,720.73877)" />
    </g>
    <g
       id="g3931"
       s2p-scene-id="7"
       transform="matrix(2.6048402,0,0,2.6048402,-158.05141,-1530.7964)">
      <rect
         style="color:#000000;fill:none;stroke:#000000;stroke-width:1.5;stroke-linecap:square;stroke-linejoin:round;stroke-miterlimit:4;stroke-opacity:1;stroke-dasharray:none;stroke-dashoffset:0;marker:none;visibility:visible;display:inline;overflow:visible;enable-background:accumulate"
         id="rect3697"
         width="100"
         height="100"
         x="420"
         y="852.36218" />
      <path
         style="color:#000000;fill:none;stroke:#000000;stroke-width:1;stroke-linecap:butt;stroke-linejoin:miter;stroke-miterlimit:4;stroke-opacity:1;stroke-dasharray:none;stroke-dashoffset:0;marker:none;visibility:visible;display:inline;overflow:visible;enable-background:accumulate"
         d="m 420.6005,907.87903 c 0.8478,5.97183 6.43725,9.35969 9.77495,13.89299 12.38265,19.22522 32.87516,16.38476 52.52866,10.65186 14.52923,-5.47608 27.70186,-15.43614 36.57347,-28.26603"
         id="path2948"
         sodipodi:nodetypes="cccc" />
      <path
         style="color:#000000;fill:#e3f4d7;fill-opacity:1;fill-rule:nonzero;stroke:#5aa02c;stroke-width:1;stroke-linecap:round;stroke-linejoin:round;stroke-miterlimit:4;stroke-opacity:1;stroke-dasharray:none;stroke-dashoffset:0;marker:none;visibility:visible;display:inline;overflow:visible;enable-background:accumulate"
         d="m 363.08088,204.68296 10.89775,0 0,8.23976 -10.71714,1.73724 -0.18061,-9.977 z"
         id="path2959"
         transform="translate(99.25,720.73877)"
         sodipodi:nodetypes="ccccc" />
      <path
         sodipodi:type="arc"
         style="color:#000000;fill:#e3f4d7;fill-opacity:1;fill-rule:nonzero;stroke:#5aa02c;stroke-width:1;stroke-linecap:round;stroke-linejoin:round;stroke-miterlimit:4;stroke-opacity:1;stroke-dasharray:none;stroke-dashoffset:0;marker:none;visibility:visible;display:inline;overflow:visible;enable-background:accumulate"
         id="path2961"
         sodipodi:cx="341.01959"
         sodipodi:cy="202.29077"
         sodipodi:rx="5.847569"
         sodipodi:ry="5.847569"
         d="m 346.86716,202.29077 c 0,3.22952 -2.61804,5.84757 -5.84757,5.84757 -3.22952,0 -5.84757,-2.61805 -5.84757,-5.84757 0,-3.22952 2.61805,-5.84757 5.84757,-5.84757 3.22953,0 5.84757,2.61805 5.84757,5.84757 z"
         transform="translate(100.0474,721.53617)" />
    </g>
  </g>
</svg>
