<?xml version="1.0" encoding="UTF-8" standalone="no"?>
<!-- Created with Inkscape (http://www.inkscape.org/) -->

<svg
   xmlns:dc="http://purl.org/dc/elements/1.1/"
   xmlns:cc="http://creativecommons.org/ns#"
   xmlns:rdf="http://www.w3.org/1999/02/22-rdf-syntax-ns#"
   xmlns:svg="http://www.w3.org/2000/svg"
   xmlns="http://www.w3.org/2000/svg"
   xmlns:sodipodi="http://sodipodi.sourceforge.net/DTD/sodipodi-0.dtd"
   xmlns:inkscape="http://www.inkscape.org/namespaces/inkscape"
   width="1100"
   height="530"
   id="svg2885"
   version="1.1"
   inkscape:version="0.47 r22583"
   sodipodi:docname="pbp32.svg">
  <defs
     id="defs2887">
    <inkscape:perspective
       sodipodi:type="inkscape:persp3d"
       inkscape:vp_x="0 : 526.18109 : 1"
       inkscape:vp_y="0 : 1000 : 0"
       inkscape:vp_z="744.09448 : 526.18109 : 1"
       inkscape:persp3d-origin="372.04724 : 350.78739 : 1"
       id="perspective2893" />
    <inkscape:perspective
       id="perspective2903"
       inkscape:persp3d-origin="0.5 : 0.33333333 : 1"
       inkscape:vp_z="1 : 0.5 : 1"
       inkscape:vp_y="0 : 1000 : 0"
       inkscape:vp_x="0 : 0.5 : 1"
       sodipodi:type="inkscape:persp3d" />
    <inkscape:perspective
       id="perspective3722"
       inkscape:persp3d-origin="0.5 : 0.33333333 : 1"
       inkscape:vp_z="1 : 0.5 : 1"
       inkscape:vp_y="0 : 1000 : 0"
       inkscape:vp_x="0 : 0.5 : 1"
       sodipodi:type="inkscape:persp3d" />
    <inkscape:perspective
       id="perspective3773"
       inkscape:persp3d-origin="0.5 : 0.33333333 : 1"
       inkscape:vp_z="1 : 0.5 : 1"
       inkscape:vp_y="0 : 1000 : 0"
       inkscape:vp_x="0 : 0.5 : 1"
       sodipodi:type="inkscape:persp3d" />
    <inkscape:perspective
       id="perspective3773-1"
       inkscape:persp3d-origin="0.5 : 0.33333333 : 1"
       inkscape:vp_z="1 : 0.5 : 1"
       inkscape:vp_y="0 : 1000 : 0"
       inkscape:vp_x="0 : 0.5 : 1"
       sodipodi:type="inkscape:persp3d" />
    <inkscape:perspective
       id="perspective3858"
       inkscape:persp3d-origin="0.5 : 0.33333333 : 1"
       inkscape:vp_z="1 : 0.5 : 1"
       inkscape:vp_y="0 : 1000 : 0"
       inkscape:vp_x="0 : 0.5 : 1"
       sodipodi:type="inkscape:persp3d" />
    <inkscape:perspective
       id="perspective3858-4"
       inkscape:persp3d-origin="0.5 : 0.33333333 : 1"
       inkscape:vp_z="1 : 0.5 : 1"
       inkscape:vp_y="0 : 1000 : 0"
       inkscape:vp_x="0 : 0.5 : 1"
       sodipodi:type="inkscape:persp3d" />
    <inkscape:perspective
       id="perspective4155"
       inkscape:persp3d-origin="0.5 : 0.33333333 : 1"
       inkscape:vp_z="1 : 0.5 : 1"
       inkscape:vp_y="0 : 1000 : 0"
       inkscape:vp_x="0 : 0.5 : 1"
       sodipodi:type="inkscape:persp3d" />
    <inkscape:perspective
       id="perspective2921"
       inkscape:persp3d-origin="0.5 : 0.33333333 : 1"
       inkscape:vp_z="1 : 0.5 : 1"
       inkscape:vp_y="0 : 1000 : 0"
       inkscape:vp_x="0 : 0.5 : 1"
       sodipodi:type="inkscape:persp3d" />
  </defs>
  <sodipodi:namedview
     id="base"
     pagecolor="#ffffff"
     bordercolor="#666666"
     borderopacity="1.0"
     inkscape:pageopacity="0.0"
     inkscape:pageshadow="2"
     inkscape:zoom="1.8805643"
     inkscape:cx="226.2048"
     inkscape:cy="172.08743"
     inkscape:document-units="px"
     inkscape:current-layer="layer1"
     showgrid="true"
     inkscape:snap-global="false"
     inkscape:window-width="1920"
     inkscape:window-height="1125"
     inkscape:window-x="0"
     inkscape:window-y="24"
     inkscape:window-maximized="1">
    <inkscape:grid
       type="xygrid"
       id="grid3683"
       empspacing="10"
       visible="true"
       enabled="false"
       snapvisiblegridlinesonly="true"
       spacingx="10px"
       spacingy="10px" />
  </sodipodi:namedview>
  <metadata
     id="metadata2890">
    <rdf:RDF>
      <cc:Work
         rdf:about="">
        <dc:format>image/svg+xml</dc:format>
        <dc:type
           rdf:resource="http://purl.org/dc/dcmitype/StillImage" />
        <dc:title />
      </cc:Work>
    </rdf:RDF>
  </metadata>
  <g
     inkscape:label="Layer 1"
     inkscape:groupmode="layer"
     id="layer1"
     transform="translate(-99.250002,-423.86215)">
    <path
       style="color:#000000;fill:none;stroke:#000000;stroke-width:7.82639265;stroke-linecap:square;stroke-linejoin:round;stroke-miterlimit:4;stroke-opacity:1;stroke-dasharray:none;stroke-dashoffset:0;marker:none;visibility:visible;display:inline;overflow:visible;enable-background:accumulate"
       d="m 649.05409,428.18947 0,521.75951"
       id="path3701" />
    <g
       id="g3887"
       s2p-scene-id="0"
       transform="matrix(2.6087976,0,0,2.6087976,-159.67316,-1534.5712)">
      <rect
         style="color:#000000;fill:none;stroke:#000000;stroke-width:1.5;stroke-linecap:square;stroke-linejoin:round;stroke-miterlimit:4;stroke-opacity:1;stroke-dasharray:none;stroke-dashoffset:0;marker:none;visibility:visible;display:inline;overflow:visible;enable-background:accumulate"
         id="rect3685"
         width="100"
         height="100"
         x="100"
         y="752.36218" />
      <path
         style="color:#000000;fill:#e3f4d7;fill-opacity:1;fill-rule:nonzero;stroke:#5aa02c;stroke-width:1;stroke-linecap:round;stroke-linejoin:round;stroke-miterlimit:4;stroke-opacity:1;stroke-dasharray:none;stroke-dashoffset:0;marker:none;visibility:visible;display:inline;overflow:visible;enable-background:accumulate"
         d="m 81.890315,57.112412 8.242207,-3.722287 0.531755,11.964494 -8.773962,-8.242207 z"
         id="path2930"
         transform="translate(99.25,720.73877)" />
      <path
         style="color:#000000;fill:none;stroke:#000000;stroke-width:1;stroke-linecap:butt;stroke-linejoin:miter;stroke-miterlimit:4;stroke-opacity:1;stroke-dasharray:none;stroke-dashoffset:0;marker:none;visibility:visible;display:inline;overflow:visible;enable-background:accumulate"
         d="m 100.31351,841.92769 c 15.12545,-1.19522 37.82068,-0.35686 55.03667,-2.39289 1.20952,-3.50411 0.3305,-7.71834 0.006,-11.21941 2.65727,-0.48143 6.50545,0.17084 9.59986,0.11275 2.5732,-1.87426 0.63477,-6.98723 0.91109,-10.12996 -2.2138,-4.15404 6.74163,-1.0232 10.08575,-2.56302 2.10194,-2.6253 0.37055,-7.0882 0.5075,-10.38849 -0.0175,-4.50608 7.10949,-1.94598 10.16163,-2.38311 4.97525,1.25762 2.23823,-10.44173 2.92406,-15.64995 2.16039,-1.74387 9.09864,-0.34495 10.23022,-0.28349 l -0.55638,0.12678"
         id="path2927"
         sodipodi:nodetypes="ccccccccccc" />
    </g>
    <g
       id="g3893"
       s2p-scene-id="1"
       transform="matrix(2.6087976,0,0,2.6087976,-159.67316,-1534.5712)">
      <rect
         y="852.36218"
         x="100"
         height="100"
         width="100"
         id="rect2909"
         style="color:#000000;fill:none;stroke:#000000;stroke-width:1.5;stroke-linecap:square;stroke-linejoin:round;stroke-miterlimit:4;stroke-opacity:1;stroke-dasharray:none;stroke-dashoffset:0;marker:none;visibility:visible;display:inline;overflow:visible;enable-background:accumulate" />
      <path
         style="color:#000000;fill:none;stroke:#000000;stroke-width:1;stroke-linecap:butt;stroke-linejoin:miter;stroke-miterlimit:4;stroke-opacity:1;stroke-dasharray:none;stroke-dashoffset:0;marker:none;visibility:visible;display:inline;overflow:visible;enable-background:accumulate"
         d="m 101.37702,919.29809 c 4.65434,-3.09816 5.31771,5.0242 5.58868,8.61707 1.95122,3.88203 -1.75736,8.50141 1.2237,12.00279 4.27218,1.7858 11.90813,-1.7126 16.57374,-1.05951 13.50698,-0.89508 26.50801,-5.3447 38.91929,-10.51948 7.67713,-3.41684 14.77275,-7.97557 21.53842,-12.91339 3.70469,-2.13192 7.71751,-4.48044 9.44891,-8.61093 1.29446,-1.98456 3.0259,-3.68539 4.01848,-5.86193"
         id="path2943"
         sodipodi:nodetypes="cccccccc" />
      <path
         style="color:#000000;fill:#e3f4d7;fill-opacity:1;fill-rule:nonzero;stroke:#5aa02c;stroke-width:1;stroke-linecap:round;stroke-linejoin:round;stroke-miterlimit:4;stroke-opacity:1;stroke-dasharray:none;stroke-dashoffset:0;marker:none;visibility:visible;display:inline;overflow:visible;enable-background:accumulate"
         d="m 86.410235,172.23743 c 0,0 2.127021,0 3.190532,0 1.06351,0 -0.265878,6.38107 -0.265878,6.38107 l 3.988165,-3.98817 2.392899,3.45641 -3.988166,2.92465 4.254043,1.59527 -1.329389,3.72229 -4.785797,-2.3929 1.329388,6.11518 -4.51992,-0.26588 0.531755,-5.8493 -4.254042,3.72229 -2.658777,-3.72229 4.785798,-2.65878 -4.785797,-3.72229 1.861144,-2.92465 5.051675,3.98817 -0.797633,-6.38107 z"
         id="path2951"
         transform="translate(99.25,720.73877)"
         sodipodi:nodetypes="csccccccccccccccccc" />
    </g>
    <g
       id="g3899"
       s2p-scene-id="2"
       transform="matrix(2.6087976,0,0,2.6087976,-159.67316,-1534.5712)">
      <rect
         y="752.36218"
         x="200"
         height="100"
         width="100"
         id="rect3687"
         style="color:#000000;fill:none;stroke:#000000;stroke-width:1.5;stroke-linecap:square;stroke-linejoin:round;stroke-miterlimit:4;stroke-opacity:1;stroke-dasharray:none;stroke-dashoffset:0;marker:none;visibility:visible;display:inline;overflow:visible;enable-background:accumulate" />
      <path
         style="color:#000000;fill:none;stroke:#000000;stroke-width:1;stroke-linecap:butt;stroke-linejoin:miter;stroke-miterlimit:4;stroke-opacity:1;stroke-dasharray:none;stroke-dashoffset:0;marker:none;visibility:visible;display:inline;overflow:visible;enable-background:accumulate"
         d="m 201.08114,798.05788 c 4.50119,4.22244 11.13275,5.62636 14.89164,10.73722 7.82616,7.22183 18.32868,10.21579 27.24655,15.74145 11.88234,6.12448 24.98753,9.2117 37.52978,13.61008 5.50003,1.22604 11.2274,0.85988 16.71135,2.17845 0.75205,0.0589 1.50898,0.0688 2.26128,0.007"
         id="path2932" />
      <path
         sodipodi:type="arc"
         style="color:#000000;fill:#e3f4d7;fill-opacity:1;fill-rule:nonzero;stroke:#5aa02c;stroke-width:1;stroke-linecap:round;stroke-linejoin:round;stroke-miterlimit:4;stroke-opacity:1;stroke-dasharray:none;stroke-dashoffset:0;marker:none;visibility:visible;display:inline;overflow:visible;enable-background:accumulate"
         id="path2941"
         sodipodi:cx="117.7838"
         sodipodi:cy="81.839035"
         sodipodi:rx="5.0516753"
         sodipodi:ry="5.0516753"
         d="m 122.83547,81.839035 c 0,2.789963 -2.26171,5.051675 -5.05167,5.051675 -2.78997,0 -5.05168,-2.261712 -5.05168,-5.051675 0,-2.789963 2.26171,-5.051675 5.05168,-5.051675 2.78996,0 5.05167,2.261712 5.05167,5.051675 z"
         transform="translate(100.57939,720.73877)" />
    </g>
    <g
       id="g3905"
       s2p-scene-id="3"
       transform="matrix(2.6087976,0,0,2.6087976,-159.67316,-1534.5712)">
      <rect
         style="color:#000000;fill:none;stroke:#000000;stroke-width:1.5;stroke-linecap:square;stroke-linejoin:round;stroke-miterlimit:4;stroke-opacity:1;stroke-dasharray:none;stroke-dashoffset:0;marker:none;visibility:visible;display:inline;overflow:visible;enable-background:accumulate"
         id="rect3689"
         width="100"
         height="100"
         x="200"
         y="852.36218" />
      <path
         style="color:#000000;fill:none;stroke:#000000;stroke-width:1;stroke-linecap:butt;stroke-linejoin:miter;stroke-miterlimit:4;stroke-opacity:1;stroke-dasharray:none;stroke-dashoffset:0;marker:none;visibility:visible;display:inline;overflow:visible;enable-background:accumulate"
         d="m 200.01763,941.63181 c 10.96405,0.38098 22.70163,-6.86627 28.19244,-15.94456 2.95522,-3.64814 6.7957,-6.74625 8.43218,-11.29423 1.87325,-3.70028 5.03202,-8.39113 9.776,-7.64664 4.9517,1.22935 6.58665,6.75276 7.8057,11.07307 1.87635,5.82283 5.31099,12.19485 11.74026,13.75476 6.48477,2.11743 13.32232,2.84485 20.03875,3.79146 4.70008,-0.10519 9.22805,-1.5259 13.71878,-2.7737"
         id="path2953"
         sodipodi:nodetypes="cccccccc" />
      <path
         sodipodi:type="arc"
         style="color:#000000;fill:#e3f4d7;fill-opacity:1;fill-rule:nonzero;stroke:#5aa02c;stroke-width:1;stroke-linecap:round;stroke-linejoin:round;stroke-miterlimit:4;stroke-opacity:1;stroke-dasharray:none;stroke-dashoffset:0;marker:none;visibility:visible;display:inline;overflow:visible;enable-background:accumulate"
         id="path2969"
         sodipodi:cx="137.72462"
         sodipodi:cy="183.67017"
         sodipodi:rx="4.5199199"
         sodipodi:ry="4.5199199"
         d="m 142.24454,183.67017 c 0,2.49628 -2.02363,4.51992 -4.51992,4.51992 -2.49628,0 -4.51992,-2.02364 -4.51992,-4.51992 0,-2.49629 2.02364,-4.51992 4.51992,-4.51992 2.49629,0 4.51992,2.02363 4.51992,4.51992 z"
         transform="translate(99.25,720.73877)" />
      <path
         sodipodi:type="arc"
         style="color:#000000;fill:#e3f4d7;fill-opacity:1;fill-rule:nonzero;stroke:#5aa02c;stroke-width:1;stroke-linecap:round;stroke-linejoin:round;stroke-miterlimit:4;stroke-opacity:1;stroke-dasharray:none;stroke-dashoffset:0;marker:none;visibility:visible;display:inline;overflow:visible;enable-background:accumulate"
         id="path2971"
         sodipodi:cx="156.86781"
         sodipodi:cy="187.12659"
         sodipodi:rx="4.5199199"
         sodipodi:ry="4.5199199"
         d="m 161.38773,187.12659 c 0,2.49628 -2.02363,4.51992 -4.51992,4.51992 -2.49628,0 -4.51992,-2.02364 -4.51992,-4.51992 0,-2.49629 2.02364,-4.51992 4.51992,-4.51992 2.49629,0 4.51992,2.02363 4.51992,4.51992 z"
         transform="translate(99.25,720.73877)" />
    </g>
    <g
       id="g3912"
       s2p-scene-id="4"
       transform="matrix(2.6087976,0,0,2.6087976,-159.67316,-1534.5712)">
      <rect
         style="color:#000000;fill:none;stroke:#000000;stroke-width:1.5;stroke-linecap:square;stroke-linejoin:round;stroke-miterlimit:4;stroke-opacity:1;stroke-dasharray:none;stroke-dashoffset:0;marker:none;visibility:visible;display:inline;overflow:visible;enable-background:accumulate"
         id="rect3691"
         width="100"
         height="100"
         x="320"
         y="752.36218" />
      <path
         style="color:#000000;fill:none;stroke:#000000;stroke-width:1;stroke-linecap:butt;stroke-linejoin:miter;stroke-miterlimit:4;stroke-opacity:1;stroke-dasharray:none;stroke-dashoffset:0;marker:none;visibility:visible;display:inline;overflow:visible;enable-background:accumulate"
         d="m 320.19432,835.54663 c 6.45592,0.70569 13.03712,0.0748 19.40962,1.53849 7.88331,0.92506 15.81451,0.0372 23.62805,-1.00733 14.04751,-0.64291 28.17587,1.50835 42.15842,-0.62591 5.01185,-0.21241 10.0549,0.65647 15.03978,-0.17109"
         id="path2973" />
      <path
         style="color:#000000;fill:#e3f4d7;fill-opacity:1;fill-rule:nonzero;stroke:#5aa02c;stroke-width:1;stroke-linecap:round;stroke-linejoin:round;stroke-miterlimit:4;stroke-opacity:1;stroke-dasharray:none;stroke-dashoffset:0;marker:none;visibility:visible;display:inline;overflow:visible;enable-background:accumulate"
         d="m 242.48041,99.12108 4.7858,16.21854 11.69862,-16.484417 -16.48442,0.265877 z"
         id="path2980"
         transform="translate(99.25,720.73877)" />
      <path
         style="color:#000000;fill:#e3f4d7;fill-opacity:1;fill-rule:nonzero;stroke:#5aa02c;stroke-width:1;stroke-linecap:round;stroke-linejoin:round;stroke-miterlimit:4;stroke-opacity:1;stroke-dasharray:none;stroke-dashoffset:0;marker:none;visibility:visible;display:inline;overflow:visible;enable-background:accumulate"
         d="m 279.17153,100.18459 4.25404,14.62327 7.97633,-14.35739 -12.23037,-0.26588 z"
         id="path2982"
         transform="translate(99.25,720.73877)" />
    </g>
    <g
       id="g3918"
       s2p-scene-id="5"
       transform="matrix(2.6087976,0,0,2.6087976,-159.67316,-1534.5712)">
      <rect
         y="852.36218"
         x="320"
         height="100"
         width="100"
         id="rect3695"
         style="color:#000000;fill:none;stroke:#000000;stroke-width:1.5;stroke-linecap:square;stroke-linejoin:round;stroke-miterlimit:4;stroke-opacity:1;stroke-dasharray:none;stroke-dashoffset:0;marker:none;visibility:visible;display:inline;overflow:visible;enable-background:accumulate" />
      <path
         style="color:#000000;fill:none;stroke:#000000;stroke-width:1;stroke-linecap:butt;stroke-linejoin:miter;stroke-miterlimit:4;stroke-opacity:1;stroke-dasharray:none;stroke-dashoffset:0;marker:none;visibility:visible;display:inline;overflow:visible;enable-background:accumulate"
         d="m 321.25783,940.03655 c 6.63129,-0.64224 13.28106,0.17739 19.83283,1.05724 10.01968,0.0176 20.14487,-0.55832 30.03154,1.43311 9.06495,0.75452 18.15351,1.3086 27.2257,1.89478 5.05607,-0.13492 10.23854,-0.78352 15.15182,0.79689 2.10018,0.40503 4.29356,0.64489 6.39872,0.13548"
         id="path2994" />
      <path
         style="color:#000000;fill:#e3f4d7;fill-opacity:1;fill-rule:nonzero;stroke:#5aa02c;stroke-width:1;stroke-linecap:round;stroke-linejoin:round;stroke-miterlimit:4;stroke-opacity:1;stroke-dasharray:none;stroke-dashoffset:0;marker:none;visibility:visible;display:inline;overflow:visible;enable-background:accumulate"
         d="m 243.54392,195.10291 4.25404,3.72229 -14.88914,19.94082 -4.7858,-2.65878 15.4209,-21.00433 z"
         id="path3005"
         transform="translate(99.25,720.73877)" />
      <path
         style="color:#000000;fill:#e3f4d7;fill-opacity:1;fill-rule:nonzero;stroke:#5aa02c;stroke-width:1;stroke-linecap:round;stroke-linejoin:round;stroke-miterlimit:4;stroke-opacity:1;stroke-dasharray:none;stroke-dashoffset:0;marker:none;visibility:visible;display:inline;overflow:visible;enable-background:accumulate"
         d="m 255.77429,196.96405 4.7858,0 -1.86114,22.86548 -5.05168,-0.79763 2.12702,-22.06785 z"
         id="path3007"
         transform="translate(99.25,720.73877)" />
    </g>
    <g
       id="g3925"
       s2p-scene-id="6"
       transform="matrix(2.6087976,0,0,2.6087976,-159.67316,-1534.5712)">
      <rect
         y="752.36218"
         x="420"
         height="100"
         width="100"
         id="rect3693"
         style="color:#000000;fill:none;stroke:#000000;stroke-width:1.5;stroke-linecap:square;stroke-linejoin:round;stroke-miterlimit:4;stroke-opacity:1;stroke-dasharray:none;stroke-dashoffset:0;marker:none;visibility:visible;display:inline;overflow:visible;enable-background:accumulate" />
      <path
         style="color:#000000;fill:none;stroke:#000000;stroke-width:1;stroke-linecap:butt;stroke-linejoin:miter;stroke-miterlimit:4;stroke-opacity:1;stroke-dasharray:none;stroke-dashoffset:0;marker:none;visibility:visible;display:inline;overflow:visible;enable-background:accumulate"
         d="m 420.96195,840.86418 c 4.25151,-0.43128 8.51643,0.38825 12.76198,0.46375 4.55743,0.64152 9.17136,0.3179 13.68107,-0.45985 4.63897,-0.18897 9.28892,-0.0196 13.91568,-0.47202 4.59134,0.0947 9.18172,0.14943 13.74987,-0.39703 6.02685,-0.27535 11.9787,-1.25687 17.92594,-2.17813 8.31244,-0.98587 16.41446,1.92706 24.69337,1.72155 0.9075,-0.0415 1.81327,-0.12918 2.71033,-0.27354"
         id="path2984" />
      <path
         style="color:#000000;fill:#e3f4d7;fill-opacity:1;fill-rule:nonzero;stroke:#5aa02c;stroke-width:1;stroke-linecap:round;stroke-linejoin:round;stroke-miterlimit:4;stroke-opacity:1;stroke-dasharray:none;stroke-dashoffset:0;marker:none;visibility:visible;display:inline;overflow:visible;enable-background:accumulate"
         d="m 346.70445,61.632332 59.02484,-3.190531 0.26587,12.762126 -59.02483,1.329389 -0.26588,-10.900984 z"
         id="path2992"
         transform="translate(99.25,720.73877)" />
    </g>
    <g
       id="g3931"
       s2p-scene-id="7"
       transform="matrix(2.6087976,0,0,2.6087976,-159.67316,-1534.5712)">
      <rect
         style="color:#000000;fill:none;stroke:#000000;stroke-width:1.5;stroke-linecap:square;stroke-linejoin:round;stroke-miterlimit:4;stroke-opacity:1;stroke-dasharray:none;stroke-dashoffset:0;marker:none;visibility:visible;display:inline;overflow:visible;enable-background:accumulate"
         id="rect3697"
         width="100"
         height="100"
         x="420"
         y="852.36218" />
      <path
         style="color:#000000;fill:none;stroke:#000000;stroke-width:1;stroke-linecap:butt;stroke-linejoin:miter;stroke-miterlimit:4;stroke-opacity:1;stroke-dasharray:none;stroke-dashoffset:0;marker:none;visibility:visible;display:inline;overflow:visible;enable-background:accumulate"
         d="m 322.24371,213.18259 c 12.1669,1.03563 24.89382,-3.79532 36.95699,-1.59527 0.90251,0.90251 -0.17108,7.2735 0.79763,8.24221 19.5154,-3.43175 41.30242,-0.65713 60.08835,-1.86114"
         id="path3009"
         transform="translate(99.25,720.73877)"
         sodipodi:nodetypes="cccc" />
      <path
         style="color:#000000;fill:#e3f4d7;fill-opacity:1;fill-rule:nonzero;stroke:#5aa02c;stroke-width:1;stroke-linecap:round;stroke-linejoin:round;stroke-miterlimit:4;stroke-opacity:1;stroke-dasharray:none;stroke-dashoffset:0;marker:none;visibility:visible;display:inline;overflow:visible;enable-background:accumulate"
         d="m 454.19666,921.15924 0.26588,9.57159 21.80196,0.26588 0,-10.10335 -22.06784,0.26588 z"
         id="path3011" />
    </g>
  </g>
</svg>
