<?xml version="1.0" encoding="UTF-8" standalone="no"?>
<!-- Created with Inkscape (http://www.inkscape.org/) -->

<svg
   xmlns:dc="http://purl.org/dc/elements/1.1/"
   xmlns:cc="http://creativecommons.org/ns#"
   xmlns:rdf="http://www.w3.org/1999/02/22-rdf-syntax-ns#"
   xmlns:svg="http://www.w3.org/2000/svg"
   xmlns="http://www.w3.org/2000/svg"
   xmlns:sodipodi="http://sodipodi.sourceforge.net/DTD/sodipodi-0.dtd"
   xmlns:inkscape="http://www.inkscape.org/namespaces/inkscape"
   width="101.5"
   height="101.5"
   id="svg3369"
   version="1.1"
   inkscape:version="0.47 r22583"
   sodipodi:docname="pbp-scene-2-3.svg">
  <defs
     id="defs3371" />
  <sodipodi:namedview
     id="base"
     pagecolor="#ffffff"
     bordercolor="#666666"
     borderopacity="1.0"
     inkscape:pageopacity="0.0"
     inkscape:pageshadow="2"
     inkscape:zoom="1.979899"
     inkscape:cx="50.787947"
     inkscape:cy="46.707918"
     inkscape:document-units="px"
     inkscape:current-layer="layer1-5"
     showgrid="false"
     inkscape:window-width="761"
     inkscape:window-height="602"
     inkscape:window-x="1157"
     inkscape:window-y="272"
     inkscape:window-maximized="0" />
  <metadata
     id="metadata3374">
    <rdf:RDF>
      <cc:Work
         rdf:about="">
        <dc:format>image/svg+xml</dc:format>
        <dc:type
           rdf:resource="http://purl.org/dc/dcmitype/StillImage" />
        <dc:title />
      </cc:Work>
    </rdf:RDF>
  </metadata>
  <g
     inkscape:label="Layer 1"
     inkscape:groupmode="layer"
     id="layer1"
     transform="translate(-297.78211,-633.04076)">
    <g
       id="layer1-5"
       inkscape:label="Layer 1"
       transform="translate(282.44186,627.2204)">
      <g
         transform="translate(637.63865,-609.50313)"
         id="g11071">
        <rect
           style="color:#000000;fill:none;stroke:#000000;stroke-width:1.5;stroke-linecap:square;stroke-linejoin:round;stroke-miterlimit:4;stroke-opacity:1;stroke-dasharray:none;stroke-dashoffset:0;marker:none;visibility:visible;display:inline;overflow:visible;enable-background:accumulate"
           id="rect10344"
           width="100"
           height="100"
           x="-621.5484"
           y="616.07349" />
        <path
           style="color:#000000;fill:none;stroke:#000000;stroke-width:1;stroke-linecap:butt;stroke-linejoin:miter;stroke-miterlimit:4;stroke-opacity:1;stroke-dasharray:none;stroke-dashoffset:0;marker:none;visibility:visible;display:inline;overflow:visible;enable-background:accumulate"
           d="m -620.62093,699.4665 c 31.51378,-1.44073 69.64701,3.06425 98.05607,3.06425"
           id="path10346" />
        <path
           sodipodi:nodetypes="csssssssssssc"
           id="path10356"
           d="m -544.2197,683.94147 c 0,0.91577 -0.17409,1.79088 -0.49097,2.59404 -0.21585,0.54709 -4.53857,-1.62242 -4.87705,-1.15198 -0.46132,0.64116 3.01328,3.88516 2.36758,4.34052 -1.15098,0.81173 -2.55513,1.28849 -4.07063,1.28849 -1.71773,0 -3.2924,-0.61249 -4.51754,-1.63099 -0.50939,-0.42348 3.17696,-3.66349 2.80327,-4.2125 -0.4063,-0.5969 -4.85893,1.48713 -5.06821,0.77845 -0.1878,-0.63595 -0.28859,-1.30922 -0.28859,-2.00603 0,-3.14466 2.05275,-5.80986 4.89137,-6.72874 0.68657,-0.22224 1.48224,5.15037 2.24283,5.15037 0.84137,0 1.58529,-5.34575 2.33375,-5.07612 2.72554,0.98187 4.67419,3.59061 4.67419,6.65449 z"
           style="opacity:0.98999999;color:#000000;fill:#e3f4d7;fill-opacity:1;fill-rule:nonzero;stroke:#5aa02c;stroke-width:1;stroke-linecap:round;stroke-linejoin:round;stroke-miterlimit:4;stroke-opacity:1;stroke-dashoffset:0;marker:none;visibility:visible;display:inline;overflow:visible;enable-background:accumulate" />
      </g>
    </g>
  </g>
</svg>
